G04 #@! TF.GenerationSoftware,KiCad,Pcbnew,(6.0.4-0)*
G04 #@! TF.CreationDate,2022-09-25T17:40:02+01:00*
G04 #@! TF.ProjectId,FB4NetworkAdaptor,4642344e-6574-4776-9f72-6b4164617074,rev?*
G04 #@! TF.SameCoordinates,Original*
G04 #@! TF.FileFunction,Copper,L1,Top*
G04 #@! TF.FilePolarity,Positive*
%FSLAX46Y46*%
G04 Gerber Fmt 4.6, Leading zero omitted, Abs format (unit mm)*
G04 Created by KiCad (PCBNEW (6.0.4-0)) date 2022-09-25 17:40:02*
%MOMM*%
%LPD*%
G01*
G04 APERTURE LIST*
G04 Aperture macros list*
%AMRoundRect*
0 Rectangle with rounded corners*
0 $1 Rounding radius*
0 $2 $3 $4 $5 $6 $7 $8 $9 X,Y pos of 4 corners*
0 Add a 4 corners polygon primitive as box body*
4,1,4,$2,$3,$4,$5,$6,$7,$8,$9,$2,$3,0*
0 Add four circle primitives for the rounded corners*
1,1,$1+$1,$2,$3*
1,1,$1+$1,$4,$5*
1,1,$1+$1,$6,$7*
1,1,$1+$1,$8,$9*
0 Add four rect primitives between the rounded corners*
20,1,$1+$1,$2,$3,$4,$5,0*
20,1,$1+$1,$4,$5,$6,$7,0*
20,1,$1+$1,$6,$7,$8,$9,0*
20,1,$1+$1,$8,$9,$2,$3,0*%
G04 Aperture macros list end*
G04 #@! TA.AperFunction,ComponentPad*
%ADD10C,5.600000*%
G04 #@! TD*
G04 #@! TA.AperFunction,ComponentPad*
%ADD11C,6.000000*%
G04 #@! TD*
G04 #@! TA.AperFunction,ComponentPad*
%ADD12RoundRect,0.250000X-0.265000X-0.615000X0.265000X-0.615000X0.265000X0.615000X-0.265000X0.615000X0*%
G04 #@! TD*
G04 #@! TA.AperFunction,ComponentPad*
%ADD13O,1.030000X1.730000*%
G04 #@! TD*
G04 #@! TA.AperFunction,ComponentPad*
%ADD14C,1.400000*%
G04 #@! TD*
G04 #@! TA.AperFunction,ComponentPad*
%ADD15O,1.300000X3.300000*%
G04 #@! TD*
G04 #@! TA.AperFunction,Conductor*
%ADD16C,0.200000*%
G04 #@! TD*
G04 APERTURE END LIST*
D10*
X112900000Y-106800000D03*
D11*
X106600000Y-106700000D03*
D12*
X100000000Y-100000000D03*
D13*
X101500000Y-100000000D03*
X103000000Y-100000000D03*
X104500000Y-100000000D03*
X106000000Y-100000000D03*
X107500000Y-100000000D03*
X109000000Y-100000000D03*
X110500000Y-100000000D03*
X112000000Y-100000000D03*
X113500000Y-100000000D03*
D14*
X111040000Y-111960000D03*
X109770000Y-114500000D03*
X108500000Y-111960000D03*
X107230000Y-114500000D03*
X105960000Y-111960000D03*
X104690000Y-114500000D03*
X103420000Y-111960000D03*
X102150000Y-114500000D03*
D15*
X98850000Y-124000000D03*
X114350000Y-124000000D03*
D16*
X102275000Y-107025000D02*
G75*
G02*
X102575000Y-107325000I0J-300000D01*
G01*
X101882900Y-106725000D02*
G75*
G03*
X102182904Y-107025000I300000J0D01*
G01*
X104690000Y-114500000D02*
X104690000Y-112278199D01*
X103372290Y-110960489D02*
X102575000Y-110163199D01*
X102182904Y-106425004D02*
G75*
G03*
X101882904Y-106725000I-4J-299996D01*
G01*
X102575000Y-106075000D02*
X102575000Y-103606800D01*
X104690000Y-112278199D02*
X104419511Y-112007710D01*
X104419511Y-112007710D02*
X104419511Y-111545988D01*
X104419511Y-111545988D02*
X103834012Y-110960489D01*
X102575000Y-106125000D02*
G75*
G02*
X102275000Y-106425000I-300000J0D01*
G01*
X103834012Y-110960489D02*
X103372290Y-110960489D01*
X102275000Y-107025000D02*
X102182904Y-107025000D01*
X102575000Y-110163199D02*
X102575000Y-107325000D01*
X102182904Y-106425000D02*
X102275000Y-106425000D01*
X102575000Y-106125000D02*
X102575000Y-106075000D01*
X102575000Y-103606800D02*
X105025000Y-101156800D01*
X105025000Y-101156800D02*
X105025000Y-100875000D01*
X105025000Y-100875000D02*
X104500000Y-100350000D01*
X104500000Y-100350000D02*
X104500000Y-100000000D01*
X101285900Y-108575000D02*
G75*
G02*
X100985902Y-108875000I-300000J0D01*
G01*
X100725000Y-108875000D02*
X100985902Y-108875000D01*
X100985902Y-108274998D02*
G75*
G02*
X101285902Y-108575000I-2J-300002D01*
G01*
X100985902Y-108275000D02*
X100725000Y-108275000D01*
X100725000Y-108875000D02*
G75*
G03*
X100425000Y-109175000I0J-300000D01*
G01*
X102468199Y-111960000D02*
X100425000Y-109916801D01*
X103420000Y-111960000D02*
X102468199Y-111960000D01*
X101835480Y-101164520D02*
X101837385Y-101164520D01*
X100425000Y-109916801D02*
X100425000Y-109175000D01*
X100425000Y-107975000D02*
X100425000Y-105525000D01*
X100425000Y-105525000D02*
X100425000Y-102575000D01*
X100425000Y-107975000D02*
G75*
G03*
X100725000Y-108275000I300000J0D01*
G01*
X100425000Y-102575000D02*
X101835480Y-101164520D01*
X101837385Y-101164520D02*
X102314520Y-100687385D01*
X102314520Y-100687385D02*
X102314520Y-100685480D01*
X102314520Y-100685480D02*
X103000000Y-100000000D01*
X99975000Y-110103199D02*
X99975000Y-102388603D01*
X101500000Y-100863603D02*
X101500000Y-100000000D01*
X99975000Y-102388603D02*
X101500000Y-100863603D01*
X102150000Y-114500000D02*
X102150000Y-112278199D01*
X102150000Y-112278199D02*
X99975000Y-110103199D01*
X105475000Y-100875000D02*
X106000000Y-100350000D01*
X103025000Y-103793200D02*
X105475000Y-101343200D01*
X106000000Y-100350000D02*
X106000000Y-100000000D01*
X105475000Y-101343200D02*
X105475000Y-100875000D01*
X103025000Y-109976801D02*
X103025000Y-103793200D01*
X108500000Y-111960000D02*
X106959511Y-111960000D01*
X106959511Y-111960000D02*
X106959511Y-111545988D01*
X103558697Y-110510498D02*
X103025000Y-109976801D01*
X106959511Y-111545988D02*
X106374012Y-110960489D01*
X106374012Y-110960489D02*
X104470395Y-110960489D01*
X104470395Y-110960489D02*
X104020404Y-110510498D01*
X104020404Y-110510498D02*
X103558697Y-110510498D01*
M02*
