M48
; DRILL file {KiCad (6.0.4-0)} date Sunday, 25 September 2022 at 17:40:20
; FORMAT={-:-/ absolute / metric / decimal}
; #@! TF.CreationDate,2022-09-25T17:40:20+01:00
; #@! TF.GenerationSoftware,Kicad,Pcbnew,(6.0.4-0)
; #@! TF.FileFunction,Plated,1,2,PTH
FMAT,2
METRIC
; #@! TA.AperFunction,Plated,PTH,ComponentDrill
T1C0.500
; #@! TA.AperFunction,Plated,PTH,ComponentDrill
T2C0.730
; #@! TA.AperFunction,Plated,PTH,ComponentDrill
T3C0.760
; #@! TA.AperFunction,Plated,PTH,ComponentDrill
T4C3.200
; #@! TA.AperFunction,Plated,PTH,ComponentDrill
T5C5.000
%
G90
G05
T2
X100.0Y-100.0
X101.5Y-100.0
X103.0Y-100.0
X104.5Y-100.0
X106.0Y-100.0
X107.5Y-100.0
X109.0Y-100.0
X110.5Y-100.0
X112.0Y-100.0
X113.5Y-100.0
T3
X102.15Y-114.5
X103.42Y-111.96
X104.69Y-114.5
X105.96Y-111.96
X107.23Y-114.5
X108.5Y-111.96
X109.77Y-114.5
X111.04Y-111.96
T4
X112.9Y-106.8
T5
X106.6Y-106.7
T1
X98.85Y-123.0G85X98.85Y-125.0
G05
X114.35Y-123.0G85X114.35Y-125.0
G05
T0
M30
