G04 #@! TF.GenerationSoftware,KiCad,Pcbnew,(6.0.4-0)*
G04 #@! TF.CreationDate,2022-05-30T10:48:12+01:00*
G04 #@! TF.ProjectId,InterlockSplitterCombiner06,496e7465-726c-46f6-936b-53706c697474,rev?*
G04 #@! TF.SameCoordinates,Original*
G04 #@! TF.FileFunction,Copper,L2,Bot*
G04 #@! TF.FilePolarity,Positive*
%FSLAX46Y46*%
G04 Gerber Fmt 4.6, Leading zero omitted, Abs format (unit mm)*
G04 Created by KiCad (PCBNEW (6.0.4-0)) date 2022-05-30 10:48:12*
%MOMM*%
%LPD*%
G01*
G04 APERTURE LIST*
G04 #@! TA.AperFunction,ComponentPad*
%ADD10C,1.500000*%
G04 #@! TD*
G04 #@! TA.AperFunction,ComponentPad*
%ADD11O,1.300000X5.000000*%
G04 #@! TD*
G04 #@! TA.AperFunction,ComponentPad*
%ADD12O,1.800000X1.500000*%
G04 #@! TD*
G04 #@! TA.AperFunction,ComponentPad*
%ADD13O,1.300000X2.300000*%
G04 #@! TD*
G04 #@! TA.AperFunction,SMDPad,CuDef*
%ADD14R,1.350000X1.350000*%
G04 #@! TD*
G04 #@! TA.AperFunction,Conductor*
%ADD15C,0.200000*%
G04 #@! TD*
G04 #@! TA.AperFunction,Conductor*
%ADD16C,0.250000*%
G04 #@! TD*
G04 APERTURE END LIST*
D10*
X164400000Y-60600000D03*
X163130000Y-63140000D03*
X161860000Y-60600000D03*
X160590000Y-63140000D03*
X159320000Y-60600000D03*
X158050000Y-63140000D03*
X156780000Y-60600000D03*
X155510000Y-63140000D03*
D11*
X152200000Y-50350000D03*
D12*
X166600000Y-59100000D03*
D11*
X167700000Y-50350000D03*
D13*
X152200000Y-57000000D03*
X167700000Y-57100000D03*
D10*
X143500000Y-76500000D03*
X144770000Y-73960000D03*
X146040000Y-76500000D03*
X147310000Y-73960000D03*
X148580000Y-76500000D03*
X149850000Y-73960000D03*
X151120000Y-76500000D03*
X152390000Y-73960000D03*
D13*
X140200000Y-80000000D03*
X155700000Y-80100000D03*
D11*
X155700000Y-86750000D03*
X140200000Y-86750000D03*
D12*
X141300000Y-78000000D03*
D10*
X167500000Y-76500000D03*
X168770000Y-73960000D03*
X170040000Y-76500000D03*
X171310000Y-73960000D03*
X172580000Y-76500000D03*
X173850000Y-73960000D03*
X175120000Y-76500000D03*
X176390000Y-73960000D03*
D13*
X179700000Y-80100000D03*
D11*
X164200000Y-86750000D03*
X179700000Y-86750000D03*
D12*
X165300000Y-78000000D03*
D13*
X164200000Y-80000000D03*
D14*
X166562500Y-67600000D03*
X164562500Y-67600000D03*
X162562500Y-67600000D03*
X160562500Y-67600000D03*
X158562500Y-67600000D03*
X156562500Y-67600000D03*
X154562500Y-67600000D03*
X152562500Y-67600000D03*
X161900000Y-69900000D03*
X163900000Y-69900000D03*
X165900000Y-69900000D03*
X167900000Y-69900000D03*
X169900000Y-69900000D03*
X171900000Y-69900000D03*
X173900000Y-69900000D03*
X175900000Y-69900000D03*
X144237500Y-69900000D03*
X146237500Y-69900000D03*
X148237500Y-69900000D03*
X150237500Y-69900000D03*
X152237500Y-69900000D03*
X154237500Y-69900000D03*
X156237500Y-69900000D03*
X158237500Y-69900000D03*
D15*
X143500000Y-70637500D02*
X144237500Y-69900000D01*
X143500000Y-76500000D02*
X143500000Y-70637500D01*
X166562500Y-67600000D02*
X165100000Y-66137500D01*
X165100000Y-66137500D02*
X165100000Y-61300000D01*
X165100000Y-61300000D02*
X164400000Y-60600000D01*
X163100000Y-63170000D02*
X163130000Y-63140000D01*
X164562500Y-67600000D02*
X163100000Y-66137500D01*
X163100000Y-66137500D02*
X163100000Y-63170000D01*
X146237500Y-70412500D02*
X146237500Y-69900000D01*
X144770000Y-73960000D02*
X144770000Y-71880000D01*
X144770000Y-71880000D02*
X146237500Y-70412500D01*
X146040000Y-72097500D02*
X148237500Y-69900000D01*
X161860000Y-66897500D02*
X161860000Y-60600000D01*
X162562500Y-67600000D02*
X161860000Y-66897500D01*
X146040000Y-76500000D02*
X146040000Y-72097500D01*
D16*
X176390000Y-73960000D02*
X176390000Y-70390000D01*
X152562500Y-65637500D02*
X155060000Y-63140000D01*
X152562500Y-67600000D02*
X152562500Y-65637500D01*
X155060000Y-63140000D02*
X155510000Y-63140000D01*
X176390000Y-70390000D02*
X175900000Y-69900000D01*
X156780000Y-63420000D02*
X156780000Y-60600000D01*
X154562500Y-65637500D02*
X156780000Y-63420000D01*
X154562500Y-67600000D02*
X154562500Y-65637500D01*
X173900000Y-70600000D02*
X173900000Y-69900000D01*
X175120000Y-76500000D02*
X175120000Y-71820000D01*
X175120000Y-71820000D02*
X173900000Y-70600000D01*
X171310000Y-73960000D02*
X171310000Y-73510000D01*
X171310000Y-73510000D02*
X167900000Y-70100000D01*
X160590000Y-67572500D02*
X160590000Y-63140000D01*
X160562500Y-67600000D02*
X160590000Y-67572500D01*
X167900000Y-70100000D02*
X167900000Y-69900000D01*
X172580000Y-73080000D02*
X169900000Y-70400000D01*
X158562500Y-65637500D02*
X159320000Y-64880000D01*
X172580000Y-76500000D02*
X172580000Y-73080000D01*
X169900000Y-70400000D02*
X169900000Y-69900000D01*
X159320000Y-64880000D02*
X159320000Y-60600000D01*
X158562500Y-67600000D02*
X158562500Y-65637500D01*
D15*
X154200000Y-69900000D02*
X154237500Y-69900000D01*
X149850000Y-73960000D02*
X150140000Y-73960000D01*
X156562500Y-64627500D02*
X158050000Y-63140000D01*
X156562500Y-67600000D02*
X156562500Y-64627500D01*
X150140000Y-73960000D02*
X154200000Y-69900000D01*
D16*
X147310000Y-73390000D02*
X150237500Y-70462500D01*
X150237500Y-70462500D02*
X150237500Y-69900000D01*
X147310000Y-73960000D02*
X147310000Y-73390000D01*
X152237500Y-70052911D02*
X152237500Y-69900000D01*
X148580000Y-76500000D02*
X148580000Y-73710411D01*
X148580000Y-73710411D02*
X152237500Y-70052911D01*
X151120000Y-76500000D02*
X151120000Y-73617862D01*
X156237500Y-70162500D02*
X156237500Y-69900000D01*
X153338351Y-71399511D02*
X155000489Y-71399511D01*
X151120000Y-73617862D02*
X153338351Y-71399511D01*
X155000489Y-71399511D02*
X156237500Y-70162500D01*
X152390000Y-73960000D02*
X153240000Y-73960000D01*
X156300489Y-70899511D02*
X157237989Y-70899511D01*
X157237989Y-70899511D02*
X158237500Y-69900000D01*
X153240000Y-73960000D02*
X156300489Y-70899511D01*
X167500000Y-76500000D02*
X167500000Y-75500000D01*
X167500000Y-75500000D02*
X161900000Y-69900000D01*
X163900000Y-70000000D02*
X163900000Y-69900000D01*
X168770000Y-73960000D02*
X167860000Y-73960000D01*
X167860000Y-73960000D02*
X163900000Y-70000000D01*
X165900000Y-69950000D02*
X165900000Y-69900000D01*
X170040000Y-73440000D02*
X169485489Y-72885489D01*
X170040000Y-76500000D02*
X170040000Y-73440000D01*
X168835489Y-72885489D02*
X165900000Y-69950000D01*
X169485489Y-72885489D02*
X168835489Y-72885489D01*
X173850000Y-72350000D02*
X171900000Y-70400000D01*
X173850000Y-73960000D02*
X173850000Y-72350000D01*
X171900000Y-70400000D02*
X171900000Y-69900000D01*
G04 #@! TA.AperFunction,Conductor*
G36*
X159622824Y-68713774D02*
G01*
X159628612Y-68717493D01*
X159633607Y-68720228D01*
X159640795Y-68725615D01*
X159777184Y-68776745D01*
X159839366Y-68783500D01*
X160669852Y-68783500D01*
X160737973Y-68803502D01*
X160784466Y-68857158D01*
X160794570Y-68927432D01*
X160780372Y-68970008D01*
X160779766Y-68971116D01*
X160774385Y-68978295D01*
X160723255Y-69114684D01*
X160716500Y-69176866D01*
X160716500Y-70623134D01*
X160723255Y-70685316D01*
X160774385Y-70821705D01*
X160861739Y-70938261D01*
X160978295Y-71025615D01*
X161114684Y-71076745D01*
X161176866Y-71083500D01*
X162135406Y-71083500D01*
X162203527Y-71103502D01*
X162224501Y-71120405D01*
X166573059Y-75468964D01*
X166607085Y-75531276D01*
X166602020Y-75602092D01*
X166573059Y-75647154D01*
X166532251Y-75687962D01*
X166405944Y-75868347D01*
X166403621Y-75873329D01*
X166403618Y-75873334D01*
X166356415Y-75974562D01*
X166312880Y-76067924D01*
X166255885Y-76280629D01*
X166236693Y-76500000D01*
X166255885Y-76719371D01*
X166257308Y-76724681D01*
X166257310Y-76724691D01*
X166269842Y-76771461D01*
X166268153Y-76842437D01*
X166228360Y-76901233D01*
X166163096Y-76929182D01*
X166093082Y-76917409D01*
X166081180Y-76910810D01*
X166028185Y-76877566D01*
X166018219Y-76872489D01*
X165820286Y-76792920D01*
X165809571Y-76789685D01*
X165599699Y-76746223D01*
X165590563Y-76745020D01*
X165572087Y-76743955D01*
X165556668Y-76747533D01*
X165554000Y-76758294D01*
X165554000Y-77727885D01*
X165558475Y-77743124D01*
X165559865Y-77744329D01*
X165567548Y-77746000D01*
X166668411Y-77746000D01*
X166682393Y-77741895D01*
X166683886Y-77732273D01*
X166683299Y-77729511D01*
X166688702Y-77658720D01*
X166731519Y-77602088D01*
X166798157Y-77577595D01*
X166868046Y-77593846D01*
X166868346Y-77594056D01*
X167067924Y-77687120D01*
X167280629Y-77744115D01*
X167500000Y-77763307D01*
X167719371Y-77744115D01*
X167932076Y-77687120D01*
X168131654Y-77594056D01*
X168312038Y-77467749D01*
X168467749Y-77312038D01*
X168480233Y-77294210D01*
X168590899Y-77136162D01*
X168590900Y-77136160D01*
X168594056Y-77131653D01*
X168596379Y-77126671D01*
X168596382Y-77126666D01*
X168655805Y-76999231D01*
X168702722Y-76945946D01*
X168770999Y-76926485D01*
X168838959Y-76947027D01*
X168884195Y-76999231D01*
X168943618Y-77126666D01*
X168943621Y-77126671D01*
X168945944Y-77131653D01*
X168949100Y-77136160D01*
X168949101Y-77136162D01*
X169059768Y-77294210D01*
X169072251Y-77312038D01*
X169227962Y-77467749D01*
X169408346Y-77594056D01*
X169607924Y-77687120D01*
X169820629Y-77744115D01*
X170040000Y-77763307D01*
X170259371Y-77744115D01*
X170472076Y-77687120D01*
X170671654Y-77594056D01*
X170852038Y-77467749D01*
X171007749Y-77312038D01*
X171020233Y-77294210D01*
X171130899Y-77136162D01*
X171130900Y-77136160D01*
X171134056Y-77131653D01*
X171136379Y-77126671D01*
X171136382Y-77126666D01*
X171195805Y-76999231D01*
X171242722Y-76945946D01*
X171310999Y-76926485D01*
X171378959Y-76947027D01*
X171424195Y-76999231D01*
X171483618Y-77126666D01*
X171483621Y-77126671D01*
X171485944Y-77131653D01*
X171489100Y-77136160D01*
X171489101Y-77136162D01*
X171599768Y-77294210D01*
X171612251Y-77312038D01*
X171767962Y-77467749D01*
X171948346Y-77594056D01*
X172147924Y-77687120D01*
X172360629Y-77744115D01*
X172580000Y-77763307D01*
X172799371Y-77744115D01*
X173012076Y-77687120D01*
X173211654Y-77594056D01*
X173392038Y-77467749D01*
X173547749Y-77312038D01*
X173560233Y-77294210D01*
X173670899Y-77136162D01*
X173670900Y-77136160D01*
X173674056Y-77131653D01*
X173676379Y-77126671D01*
X173676382Y-77126666D01*
X173735805Y-76999231D01*
X173782722Y-76945946D01*
X173850999Y-76926485D01*
X173918959Y-76947027D01*
X173964195Y-76999231D01*
X174023618Y-77126666D01*
X174023621Y-77126671D01*
X174025944Y-77131653D01*
X174029100Y-77136160D01*
X174029101Y-77136162D01*
X174139768Y-77294210D01*
X174152251Y-77312038D01*
X174307962Y-77467749D01*
X174488346Y-77594056D01*
X174687924Y-77687120D01*
X174900629Y-77744115D01*
X175120000Y-77763307D01*
X175339371Y-77744115D01*
X175552076Y-77687120D01*
X175735189Y-77601734D01*
X175805380Y-77591073D01*
X175870193Y-77620053D01*
X175909049Y-77679473D01*
X175909612Y-77750467D01*
X175902633Y-77769179D01*
X175809297Y-77969340D01*
X175751171Y-78186271D01*
X175731597Y-78410000D01*
X175751171Y-78633729D01*
X175752595Y-78639042D01*
X175752595Y-78639044D01*
X175796795Y-78804000D01*
X175809297Y-78850660D01*
X175811619Y-78855641D01*
X175811620Y-78855642D01*
X175901884Y-79049214D01*
X175901885Y-79049215D01*
X175904210Y-79054201D01*
X175907366Y-79058708D01*
X175907367Y-79058710D01*
X175993312Y-79181451D01*
X176033026Y-79238169D01*
X176191831Y-79396974D01*
X176196339Y-79400131D01*
X176196342Y-79400133D01*
X176235172Y-79427322D01*
X176375799Y-79525790D01*
X176380781Y-79528113D01*
X176380786Y-79528116D01*
X176574358Y-79618380D01*
X176579340Y-79620703D01*
X176584648Y-79622125D01*
X176584650Y-79622126D01*
X176790956Y-79677405D01*
X176790958Y-79677405D01*
X176796271Y-79678829D01*
X176894186Y-79687396D01*
X176961235Y-79693262D01*
X176961242Y-79693262D01*
X176963959Y-79693500D01*
X177076041Y-79693500D01*
X177078758Y-79693262D01*
X177078765Y-79693262D01*
X177145814Y-79687396D01*
X177243729Y-79678829D01*
X177249042Y-79677405D01*
X177249044Y-79677405D01*
X177455350Y-79622126D01*
X177455352Y-79622125D01*
X177460660Y-79620703D01*
X177465642Y-79618380D01*
X177659214Y-79528116D01*
X177659219Y-79528113D01*
X177664201Y-79525790D01*
X177804828Y-79427322D01*
X177843658Y-79400133D01*
X177843661Y-79400131D01*
X177848169Y-79396974D01*
X178006974Y-79238169D01*
X178135790Y-79054202D01*
X178138113Y-79049220D01*
X178138116Y-79049215D01*
X178228380Y-78855642D01*
X178228380Y-78855641D01*
X178230703Y-78850660D01*
X178243206Y-78804000D01*
X178287405Y-78639044D01*
X178287405Y-78639042D01*
X178288829Y-78633729D01*
X178308403Y-78410000D01*
X178288829Y-78186271D01*
X178230703Y-77969340D01*
X178228380Y-77964358D01*
X178138116Y-77770786D01*
X178138113Y-77770781D01*
X178135790Y-77765799D01*
X178132633Y-77761290D01*
X178010133Y-77586342D01*
X178010131Y-77586339D01*
X178006974Y-77581831D01*
X177848169Y-77423026D01*
X177843661Y-77419869D01*
X177843658Y-77419867D01*
X177668710Y-77297367D01*
X177668708Y-77297366D01*
X177664201Y-77294210D01*
X177659219Y-77291887D01*
X177659214Y-77291884D01*
X177465642Y-77201620D01*
X177465641Y-77201619D01*
X177460660Y-77199297D01*
X177455352Y-77197875D01*
X177455350Y-77197874D01*
X177249044Y-77142595D01*
X177249042Y-77142595D01*
X177243729Y-77141171D01*
X177145814Y-77132604D01*
X177078765Y-77126738D01*
X177078758Y-77126738D01*
X177076041Y-77126500D01*
X176963959Y-77126500D01*
X176961242Y-77126738D01*
X176961235Y-77126738D01*
X176894186Y-77132604D01*
X176796271Y-77141171D01*
X176790958Y-77142595D01*
X176790956Y-77142595D01*
X176584650Y-77197874D01*
X176584648Y-77197875D01*
X176579340Y-77199297D01*
X176574359Y-77201619D01*
X176574358Y-77201620D01*
X176385998Y-77289454D01*
X176315806Y-77300115D01*
X176250994Y-77271135D01*
X176212137Y-77211715D01*
X176211574Y-77140721D01*
X176218553Y-77122009D01*
X176304795Y-76937061D01*
X176307120Y-76932076D01*
X176364115Y-76719371D01*
X176383307Y-76500000D01*
X176364115Y-76280629D01*
X176307120Y-76067924D01*
X176263585Y-75974562D01*
X176216382Y-75873334D01*
X176216379Y-75873329D01*
X176214056Y-75868347D01*
X176087749Y-75687962D01*
X175932038Y-75532251D01*
X175927530Y-75529094D01*
X175927527Y-75529092D01*
X175841655Y-75468964D01*
X175807228Y-75444858D01*
X175762901Y-75389402D01*
X175753500Y-75341646D01*
X175753500Y-75249576D01*
X175773502Y-75181455D01*
X175827158Y-75134962D01*
X175897432Y-75124858D01*
X175932751Y-75135382D01*
X175952934Y-75144794D01*
X175952942Y-75144797D01*
X175957924Y-75147120D01*
X176170629Y-75204115D01*
X176390000Y-75223307D01*
X176609371Y-75204115D01*
X176822076Y-75147120D01*
X177021654Y-75054056D01*
X177202038Y-74927749D01*
X177357749Y-74772038D01*
X177484056Y-74591653D01*
X177486380Y-74586669D01*
X177486382Y-74586666D01*
X177545945Y-74458931D01*
X177577120Y-74392076D01*
X177634115Y-74179371D01*
X177653307Y-73960000D01*
X177634115Y-73740629D01*
X177577120Y-73527924D01*
X177533585Y-73434562D01*
X177486382Y-73333334D01*
X177486379Y-73333329D01*
X177484056Y-73328347D01*
X177357749Y-73147962D01*
X177202038Y-72992251D01*
X177197530Y-72989094D01*
X177197527Y-72989092D01*
X177144134Y-72951706D01*
X177077228Y-72904858D01*
X177032901Y-72849402D01*
X177023500Y-72801646D01*
X177023500Y-70850189D01*
X177031518Y-70805960D01*
X177073971Y-70692718D01*
X177073973Y-70692712D01*
X177076745Y-70685316D01*
X177083500Y-70623134D01*
X177083500Y-69676849D01*
X177103502Y-69608728D01*
X177157158Y-69562235D01*
X177227432Y-69552131D01*
X177279607Y-69572154D01*
X179602876Y-71127893D01*
X179605785Y-71129900D01*
X179659084Y-71167798D01*
X179673978Y-71172960D01*
X179696719Y-71183478D01*
X179837156Y-71266300D01*
X179851511Y-71276164D01*
X179938808Y-71345501D01*
X179999340Y-71393580D01*
X180012200Y-71405332D01*
X180088601Y-71485529D01*
X180142423Y-71542026D01*
X180153539Y-71555442D01*
X180263647Y-71708774D01*
X180272808Y-71723595D01*
X180360722Y-71890673D01*
X180367749Y-71906616D01*
X180431767Y-72084204D01*
X180436529Y-72100964D01*
X180475440Y-72285704D01*
X180477842Y-72302949D01*
X180479968Y-72333618D01*
X180488621Y-72458481D01*
X180487769Y-72478455D01*
X180487691Y-72484849D01*
X180486309Y-72493724D01*
X180487473Y-72502626D01*
X180487473Y-72502628D01*
X180490436Y-72525283D01*
X180491500Y-72541621D01*
X180491500Y-78501583D01*
X180471498Y-78569704D01*
X180417842Y-78616197D01*
X180347568Y-78626301D01*
X180298265Y-78608145D01*
X180232856Y-78566875D01*
X180222609Y-78561654D01*
X180035668Y-78487072D01*
X180024631Y-78483803D01*
X179971770Y-78473288D01*
X179958894Y-78474440D01*
X179954000Y-78489596D01*
X179954000Y-81713294D01*
X179957806Y-81726256D01*
X179972722Y-81728192D01*
X179995300Y-81724313D01*
X180006417Y-81721334D01*
X180195252Y-81651669D01*
X180205630Y-81646719D01*
X180301077Y-81589934D01*
X180369847Y-81572294D01*
X180437237Y-81594635D01*
X180481851Y-81649862D01*
X180491500Y-81698219D01*
X180491500Y-83801583D01*
X180471498Y-83869704D01*
X180417842Y-83916197D01*
X180347568Y-83926301D01*
X180298265Y-83908145D01*
X180232856Y-83866875D01*
X180222609Y-83861654D01*
X180035668Y-83787072D01*
X180024631Y-83783803D01*
X179971770Y-83773288D01*
X179958894Y-83774440D01*
X179954000Y-83789596D01*
X179954000Y-86878000D01*
X179933998Y-86946121D01*
X179880342Y-86992614D01*
X179828000Y-87004000D01*
X178560115Y-87004000D01*
X178544876Y-87008475D01*
X178543671Y-87009865D01*
X178542000Y-87017548D01*
X178542000Y-88651092D01*
X178542266Y-88656881D01*
X178555984Y-88806176D01*
X178558082Y-88817497D01*
X178612713Y-89011203D01*
X178616837Y-89021950D01*
X178705859Y-89202466D01*
X178711869Y-89212273D01*
X178769993Y-89290111D01*
X178794725Y-89356661D01*
X178779550Y-89426017D01*
X178729288Y-89476159D01*
X178669035Y-89491500D01*
X165231642Y-89491500D01*
X165163521Y-89471498D01*
X165117028Y-89417842D01*
X165106924Y-89347568D01*
X165132692Y-89287494D01*
X165171764Y-89237931D01*
X165178032Y-89228280D01*
X165271743Y-89050164D01*
X165276152Y-89039521D01*
X165335833Y-88847316D01*
X165338227Y-88836054D01*
X165357563Y-88672678D01*
X165358000Y-88665272D01*
X165358000Y-87610590D01*
X165378002Y-87542469D01*
X165431658Y-87495976D01*
X165501932Y-87485872D01*
X165566512Y-87515366D01*
X165605707Y-87577979D01*
X165649297Y-87740660D01*
X165651619Y-87745641D01*
X165651620Y-87745642D01*
X165741884Y-87939214D01*
X165741885Y-87939215D01*
X165744210Y-87944201D01*
X165873026Y-88128169D01*
X166031831Y-88286974D01*
X166036339Y-88290131D01*
X166036342Y-88290133D01*
X166211290Y-88412633D01*
X166215799Y-88415790D01*
X166220781Y-88418113D01*
X166220786Y-88418116D01*
X166414358Y-88508380D01*
X166419340Y-88510703D01*
X166424648Y-88512125D01*
X166424650Y-88512126D01*
X166630956Y-88567405D01*
X166630958Y-88567405D01*
X166636271Y-88568829D01*
X166734186Y-88577396D01*
X166801235Y-88583262D01*
X166801242Y-88583262D01*
X166803959Y-88583500D01*
X166916041Y-88583500D01*
X166918758Y-88583262D01*
X166918765Y-88583262D01*
X166985814Y-88577396D01*
X167083729Y-88568829D01*
X167089042Y-88567405D01*
X167089044Y-88567405D01*
X167295350Y-88512126D01*
X167295352Y-88512125D01*
X167300660Y-88510703D01*
X167305642Y-88508380D01*
X167499214Y-88418116D01*
X167499219Y-88418113D01*
X167504201Y-88415790D01*
X167508710Y-88412633D01*
X167683658Y-88290133D01*
X167683661Y-88290131D01*
X167688169Y-88286974D01*
X167846974Y-88128169D01*
X167975790Y-87944202D01*
X167978113Y-87939220D01*
X167978116Y-87939215D01*
X168068380Y-87745642D01*
X168068380Y-87745641D01*
X168070703Y-87740660D01*
X168128829Y-87523729D01*
X168148403Y-87300000D01*
X168128829Y-87076271D01*
X168114318Y-87022115D01*
X168072126Y-86864650D01*
X168072125Y-86864648D01*
X168070703Y-86859340D01*
X168068380Y-86854358D01*
X167978116Y-86660786D01*
X167978113Y-86660781D01*
X167975790Y-86655799D01*
X167972633Y-86651290D01*
X167850133Y-86476342D01*
X167850131Y-86476339D01*
X167846974Y-86471831D01*
X167688169Y-86313026D01*
X167683661Y-86309869D01*
X167683658Y-86309867D01*
X167508710Y-86187367D01*
X167508708Y-86187366D01*
X167504201Y-86184210D01*
X167499219Y-86181887D01*
X167499214Y-86181884D01*
X167305642Y-86091620D01*
X167305641Y-86091619D01*
X167300660Y-86089297D01*
X167295352Y-86087875D01*
X167295350Y-86087874D01*
X167089044Y-86032595D01*
X167089042Y-86032595D01*
X167083729Y-86031171D01*
X166985814Y-86022604D01*
X166918765Y-86016738D01*
X166918758Y-86016738D01*
X166916041Y-86016500D01*
X166803959Y-86016500D01*
X166801242Y-86016738D01*
X166801235Y-86016738D01*
X166734186Y-86022604D01*
X166636271Y-86031171D01*
X166630958Y-86032595D01*
X166630956Y-86032595D01*
X166424650Y-86087874D01*
X166424648Y-86087875D01*
X166419340Y-86089297D01*
X166414359Y-86091619D01*
X166414358Y-86091620D01*
X166220786Y-86181884D01*
X166220781Y-86181887D01*
X166215799Y-86184210D01*
X166211292Y-86187366D01*
X166211290Y-86187367D01*
X166036342Y-86309867D01*
X166036339Y-86309869D01*
X166031831Y-86313026D01*
X165873026Y-86471831D01*
X165869869Y-86476340D01*
X165869867Y-86476342D01*
X165816488Y-86552575D01*
X165744210Y-86655798D01*
X165741887Y-86660780D01*
X165741884Y-86660785D01*
X165741884Y-86660786D01*
X165649297Y-86859340D01*
X165647875Y-86864648D01*
X165647874Y-86864650D01*
X165603663Y-87029650D01*
X165566711Y-87090273D01*
X165502851Y-87121294D01*
X165432356Y-87112866D01*
X165377609Y-87067663D01*
X165361060Y-87032537D01*
X165353525Y-87006876D01*
X165352135Y-87005671D01*
X165344452Y-87004000D01*
X163060115Y-87004000D01*
X163044876Y-87008475D01*
X163043671Y-87009865D01*
X163042000Y-87017548D01*
X163042000Y-88651092D01*
X163042266Y-88656881D01*
X163055984Y-88806176D01*
X163058082Y-88817497D01*
X163112713Y-89011203D01*
X163116837Y-89021950D01*
X163205859Y-89202466D01*
X163211869Y-89212273D01*
X163269993Y-89290111D01*
X163294725Y-89356661D01*
X163279550Y-89426017D01*
X163229288Y-89476159D01*
X163169035Y-89491500D01*
X156731642Y-89491500D01*
X156663521Y-89471498D01*
X156617028Y-89417842D01*
X156606924Y-89347568D01*
X156632692Y-89287494D01*
X156671764Y-89237931D01*
X156678032Y-89228280D01*
X156771743Y-89050164D01*
X156776152Y-89039521D01*
X156835833Y-88847316D01*
X156838227Y-88836054D01*
X156857563Y-88672678D01*
X156858000Y-88665272D01*
X156858000Y-87022115D01*
X156853525Y-87006876D01*
X156852135Y-87005671D01*
X156844452Y-87004000D01*
X154560115Y-87004000D01*
X154544876Y-87008475D01*
X154543671Y-87009865D01*
X154542000Y-87017548D01*
X154542000Y-88651092D01*
X154542266Y-88656881D01*
X154555984Y-88806176D01*
X154558082Y-88817497D01*
X154612713Y-89011203D01*
X154616837Y-89021950D01*
X154705859Y-89202466D01*
X154711869Y-89212273D01*
X154769993Y-89290111D01*
X154794725Y-89356661D01*
X154779550Y-89426017D01*
X154729288Y-89476159D01*
X154669035Y-89491500D01*
X141231642Y-89491500D01*
X141163521Y-89471498D01*
X141117028Y-89417842D01*
X141106924Y-89347568D01*
X141132692Y-89287494D01*
X141171764Y-89237931D01*
X141178032Y-89228280D01*
X141271743Y-89050164D01*
X141276152Y-89039521D01*
X141335833Y-88847316D01*
X141338227Y-88836054D01*
X141357563Y-88672678D01*
X141358000Y-88665272D01*
X141358000Y-87610590D01*
X141378002Y-87542469D01*
X141431658Y-87495976D01*
X141501932Y-87485872D01*
X141566512Y-87515366D01*
X141605707Y-87577979D01*
X141649297Y-87740660D01*
X141651619Y-87745641D01*
X141651620Y-87745642D01*
X141741884Y-87939214D01*
X141741885Y-87939215D01*
X141744210Y-87944201D01*
X141873026Y-88128169D01*
X142031831Y-88286974D01*
X142036339Y-88290131D01*
X142036342Y-88290133D01*
X142211290Y-88412633D01*
X142215799Y-88415790D01*
X142220781Y-88418113D01*
X142220786Y-88418116D01*
X142414358Y-88508380D01*
X142419340Y-88510703D01*
X142424648Y-88512125D01*
X142424650Y-88512126D01*
X142630956Y-88567405D01*
X142630958Y-88567405D01*
X142636271Y-88568829D01*
X142734186Y-88577396D01*
X142801235Y-88583262D01*
X142801242Y-88583262D01*
X142803959Y-88583500D01*
X142916041Y-88583500D01*
X142918758Y-88583262D01*
X142918765Y-88583262D01*
X142985814Y-88577396D01*
X143083729Y-88568829D01*
X143089042Y-88567405D01*
X143089044Y-88567405D01*
X143295350Y-88512126D01*
X143295352Y-88512125D01*
X143300660Y-88510703D01*
X143305642Y-88508380D01*
X143499214Y-88418116D01*
X143499219Y-88418113D01*
X143504201Y-88415790D01*
X143508710Y-88412633D01*
X143683658Y-88290133D01*
X143683661Y-88290131D01*
X143688169Y-88286974D01*
X143846974Y-88128169D01*
X143975790Y-87944202D01*
X143978113Y-87939220D01*
X143978116Y-87939215D01*
X144068380Y-87745642D01*
X144068380Y-87745641D01*
X144070703Y-87740660D01*
X144128829Y-87523729D01*
X144148403Y-87300000D01*
X144128829Y-87076271D01*
X144114318Y-87022115D01*
X144072126Y-86864650D01*
X144072125Y-86864648D01*
X144070703Y-86859340D01*
X144068380Y-86854358D01*
X143978116Y-86660786D01*
X143978113Y-86660781D01*
X143975790Y-86655799D01*
X143972633Y-86651290D01*
X143850133Y-86476342D01*
X143850131Y-86476339D01*
X143846974Y-86471831D01*
X143688169Y-86313026D01*
X143683661Y-86309869D01*
X143683658Y-86309867D01*
X143508710Y-86187367D01*
X143508708Y-86187366D01*
X143504201Y-86184210D01*
X143499219Y-86181887D01*
X143499214Y-86181884D01*
X143305642Y-86091620D01*
X143305641Y-86091619D01*
X143300660Y-86089297D01*
X143295352Y-86087875D01*
X143295350Y-86087874D01*
X143089044Y-86032595D01*
X143089042Y-86032595D01*
X143083729Y-86031171D01*
X142985814Y-86022604D01*
X142918765Y-86016738D01*
X142918758Y-86016738D01*
X142916041Y-86016500D01*
X142803959Y-86016500D01*
X142801242Y-86016738D01*
X142801235Y-86016738D01*
X142734186Y-86022604D01*
X142636271Y-86031171D01*
X142630958Y-86032595D01*
X142630956Y-86032595D01*
X142424650Y-86087874D01*
X142424648Y-86087875D01*
X142419340Y-86089297D01*
X142414359Y-86091619D01*
X142414358Y-86091620D01*
X142220786Y-86181884D01*
X142220781Y-86181887D01*
X142215799Y-86184210D01*
X142211292Y-86187366D01*
X142211290Y-86187367D01*
X142036342Y-86309867D01*
X142036339Y-86309869D01*
X142031831Y-86313026D01*
X141873026Y-86471831D01*
X141869869Y-86476340D01*
X141869867Y-86476342D01*
X141816488Y-86552575D01*
X141744210Y-86655798D01*
X141741887Y-86660780D01*
X141741884Y-86660785D01*
X141741884Y-86660786D01*
X141649297Y-86859340D01*
X141647875Y-86864648D01*
X141647874Y-86864650D01*
X141603663Y-87029650D01*
X141566711Y-87090273D01*
X141502851Y-87121294D01*
X141432356Y-87112866D01*
X141377609Y-87067663D01*
X141361060Y-87032537D01*
X141353525Y-87006876D01*
X141352135Y-87005671D01*
X141344452Y-87004000D01*
X140072000Y-87004000D01*
X140003879Y-86983998D01*
X139957386Y-86930342D01*
X139946000Y-86878000D01*
X139946000Y-83786706D01*
X139942194Y-83773744D01*
X139927278Y-83771808D01*
X139904700Y-83775687D01*
X139893583Y-83778666D01*
X139704748Y-83848331D01*
X139689154Y-83855769D01*
X139688017Y-83853385D01*
X139630078Y-83868209D01*
X139562701Y-83845829D01*
X139518120Y-83790574D01*
X139508500Y-83742287D01*
X139508500Y-82982703D01*
X140120743Y-82982703D01*
X140158268Y-83267734D01*
X140234129Y-83545036D01*
X140235813Y-83548984D01*
X140338861Y-83790574D01*
X140346923Y-83809476D01*
X140356340Y-83825210D01*
X140436116Y-83958507D01*
X140454000Y-84023213D01*
X140454000Y-86477885D01*
X140458475Y-86493124D01*
X140459865Y-86494329D01*
X140467548Y-86496000D01*
X141339885Y-86496000D01*
X141355124Y-86491525D01*
X141356329Y-86490135D01*
X141358000Y-86482452D01*
X141358000Y-84956459D01*
X141378002Y-84888338D01*
X141431658Y-84841845D01*
X141501932Y-84831741D01*
X141527301Y-84838133D01*
X141601236Y-84865189D01*
X141640373Y-84879511D01*
X141921264Y-84940755D01*
X141949841Y-84943004D01*
X142144282Y-84958307D01*
X142144291Y-84958307D01*
X142146739Y-84958500D01*
X142302271Y-84958500D01*
X142304407Y-84958354D01*
X142304418Y-84958354D01*
X142512548Y-84944165D01*
X142512554Y-84944164D01*
X142516825Y-84943873D01*
X142521020Y-84943004D01*
X142521022Y-84943004D01*
X142657583Y-84914724D01*
X142798342Y-84885574D01*
X143069343Y-84789607D01*
X143276854Y-84682503D01*
X143321005Y-84659715D01*
X143321006Y-84659715D01*
X143324812Y-84657750D01*
X143328313Y-84655289D01*
X143328317Y-84655287D01*
X143442417Y-84575096D01*
X143560023Y-84492441D01*
X143770622Y-84296740D01*
X143952713Y-84074268D01*
X144102927Y-83829142D01*
X144120287Y-83789596D01*
X144216757Y-83569830D01*
X144218483Y-83565898D01*
X144297244Y-83289406D01*
X144337751Y-83004784D01*
X144337845Y-82986951D01*
X144337867Y-82982703D01*
X151550743Y-82982703D01*
X151588268Y-83267734D01*
X151664129Y-83545036D01*
X151665813Y-83548984D01*
X151768861Y-83790574D01*
X151776923Y-83809476D01*
X151803140Y-83853281D01*
X151879746Y-83981280D01*
X151924561Y-84056161D01*
X152104313Y-84280528D01*
X152121397Y-84296740D01*
X152282727Y-84449836D01*
X152312851Y-84478423D01*
X152546317Y-84646186D01*
X152550112Y-84648195D01*
X152550113Y-84648196D01*
X152571869Y-84659715D01*
X152800392Y-84780712D01*
X153070373Y-84879511D01*
X153351264Y-84940755D01*
X153379841Y-84943004D01*
X153574282Y-84958307D01*
X153574291Y-84958307D01*
X153576739Y-84958500D01*
X153732271Y-84958500D01*
X153734407Y-84958354D01*
X153734418Y-84958354D01*
X153942548Y-84944165D01*
X153942554Y-84944164D01*
X153946825Y-84943873D01*
X153951020Y-84943004D01*
X153951022Y-84943004D01*
X154087583Y-84914724D01*
X154228342Y-84885574D01*
X154348231Y-84843119D01*
X154373940Y-84834015D01*
X154444831Y-84830131D01*
X154506567Y-84865189D01*
X154539550Y-84928060D01*
X154542000Y-84952788D01*
X154542000Y-86477885D01*
X154546475Y-86493124D01*
X154547865Y-86494329D01*
X154555548Y-86496000D01*
X155427885Y-86496000D01*
X155443124Y-86491525D01*
X155444329Y-86490135D01*
X155446000Y-86482452D01*
X155446000Y-86477885D01*
X155954000Y-86477885D01*
X155958475Y-86493124D01*
X155959865Y-86494329D01*
X155967548Y-86496000D01*
X156839885Y-86496000D01*
X156855124Y-86491525D01*
X156856329Y-86490135D01*
X156858000Y-86482452D01*
X156858000Y-86477885D01*
X163042000Y-86477885D01*
X163046475Y-86493124D01*
X163047865Y-86494329D01*
X163055548Y-86496000D01*
X163927885Y-86496000D01*
X163943124Y-86491525D01*
X163944329Y-86490135D01*
X163946000Y-86482452D01*
X163946000Y-83786706D01*
X163942194Y-83773744D01*
X163927278Y-83771808D01*
X163904700Y-83775687D01*
X163893583Y-83778666D01*
X163704748Y-83848331D01*
X163694370Y-83853281D01*
X163521394Y-83956191D01*
X163512085Y-83962955D01*
X163360757Y-84095665D01*
X163352847Y-84104000D01*
X163228236Y-84262069D01*
X163221968Y-84271720D01*
X163128257Y-84449836D01*
X163123848Y-84460479D01*
X163064167Y-84652684D01*
X163061773Y-84663946D01*
X163042437Y-84827322D01*
X163042000Y-84834728D01*
X163042000Y-86477885D01*
X156858000Y-86477885D01*
X156858000Y-84848908D01*
X156857734Y-84843119D01*
X156844016Y-84693824D01*
X156841918Y-84682503D01*
X156787287Y-84488797D01*
X156783163Y-84478050D01*
X156694141Y-84297534D01*
X156688131Y-84287727D01*
X156567701Y-84126451D01*
X156560011Y-84117911D01*
X156412206Y-83981280D01*
X156403081Y-83974279D01*
X156232856Y-83866875D01*
X156222609Y-83861654D01*
X156035668Y-83787072D01*
X156024631Y-83783803D01*
X155971770Y-83773288D01*
X155958894Y-83774440D01*
X155954000Y-83789596D01*
X155954000Y-86477885D01*
X155446000Y-86477885D01*
X155446000Y-84006528D01*
X155464568Y-83940693D01*
X155530684Y-83832803D01*
X155530687Y-83832798D01*
X155532927Y-83829142D01*
X155648483Y-83565898D01*
X155727244Y-83289406D01*
X155767751Y-83004784D01*
X155767845Y-82986951D01*
X155767867Y-82982703D01*
X164120743Y-82982703D01*
X164158268Y-83267734D01*
X164234129Y-83545036D01*
X164235813Y-83548984D01*
X164338861Y-83790574D01*
X164346923Y-83809476D01*
X164356340Y-83825210D01*
X164436116Y-83958507D01*
X164454000Y-84023213D01*
X164454000Y-86477885D01*
X164458475Y-86493124D01*
X164459865Y-86494329D01*
X164467548Y-86496000D01*
X165339885Y-86496000D01*
X165355124Y-86491525D01*
X165356329Y-86490135D01*
X165358000Y-86482452D01*
X165358000Y-84956459D01*
X165378002Y-84888338D01*
X165431658Y-84841845D01*
X165501932Y-84831741D01*
X165527301Y-84838133D01*
X165601236Y-84865189D01*
X165640373Y-84879511D01*
X165921264Y-84940755D01*
X165949841Y-84943004D01*
X166144282Y-84958307D01*
X166144291Y-84958307D01*
X166146739Y-84958500D01*
X166302271Y-84958500D01*
X166304407Y-84958354D01*
X166304418Y-84958354D01*
X166512548Y-84944165D01*
X166512554Y-84944164D01*
X166516825Y-84943873D01*
X166521020Y-84943004D01*
X166521022Y-84943004D01*
X166657583Y-84914724D01*
X166798342Y-84885574D01*
X167069343Y-84789607D01*
X167276854Y-84682503D01*
X167321005Y-84659715D01*
X167321006Y-84659715D01*
X167324812Y-84657750D01*
X167328313Y-84655289D01*
X167328317Y-84655287D01*
X167442417Y-84575096D01*
X167560023Y-84492441D01*
X167770622Y-84296740D01*
X167952713Y-84074268D01*
X168102927Y-83829142D01*
X168120287Y-83789596D01*
X168216757Y-83569830D01*
X168218483Y-83565898D01*
X168297244Y-83289406D01*
X168337751Y-83004784D01*
X168337845Y-82986951D01*
X168337867Y-82982703D01*
X175550743Y-82982703D01*
X175588268Y-83267734D01*
X175664129Y-83545036D01*
X175665813Y-83548984D01*
X175768861Y-83790574D01*
X175776923Y-83809476D01*
X175803140Y-83853281D01*
X175879746Y-83981280D01*
X175924561Y-84056161D01*
X176104313Y-84280528D01*
X176121397Y-84296740D01*
X176282727Y-84449836D01*
X176312851Y-84478423D01*
X176546317Y-84646186D01*
X176550112Y-84648195D01*
X176550113Y-84648196D01*
X176571869Y-84659715D01*
X176800392Y-84780712D01*
X177070373Y-84879511D01*
X177351264Y-84940755D01*
X177379841Y-84943004D01*
X177574282Y-84958307D01*
X177574291Y-84958307D01*
X177576739Y-84958500D01*
X177732271Y-84958500D01*
X177734407Y-84958354D01*
X177734418Y-84958354D01*
X177942548Y-84944165D01*
X177942554Y-84944164D01*
X177946825Y-84943873D01*
X177951020Y-84943004D01*
X177951022Y-84943004D01*
X178087583Y-84914724D01*
X178228342Y-84885574D01*
X178348231Y-84843119D01*
X178373940Y-84834015D01*
X178444831Y-84830131D01*
X178506567Y-84865189D01*
X178539550Y-84928060D01*
X178542000Y-84952788D01*
X178542000Y-86477885D01*
X178546475Y-86493124D01*
X178547865Y-86494329D01*
X178555548Y-86496000D01*
X179427885Y-86496000D01*
X179443124Y-86491525D01*
X179444329Y-86490135D01*
X179446000Y-86482452D01*
X179446000Y-84006528D01*
X179464568Y-83940693D01*
X179530684Y-83832803D01*
X179530687Y-83832798D01*
X179532927Y-83829142D01*
X179648483Y-83565898D01*
X179727244Y-83289406D01*
X179767751Y-83004784D01*
X179767845Y-82986951D01*
X179769235Y-82721583D01*
X179769235Y-82721576D01*
X179769257Y-82717297D01*
X179731732Y-82432266D01*
X179655871Y-82154964D01*
X179543077Y-81890524D01*
X179463884Y-81758202D01*
X179446000Y-81693496D01*
X179446000Y-80372115D01*
X179441525Y-80356876D01*
X179440135Y-80355671D01*
X179432452Y-80354000D01*
X178560115Y-80354000D01*
X178544876Y-80358475D01*
X178543671Y-80359865D01*
X178542000Y-80367548D01*
X178542000Y-80651092D01*
X178542266Y-80656881D01*
X178549785Y-80738714D01*
X178536100Y-80808379D01*
X178486924Y-80859586D01*
X178417869Y-80876078D01*
X178381013Y-80868569D01*
X178253658Y-80821964D01*
X178253656Y-80821963D01*
X178249627Y-80820489D01*
X177968736Y-80759245D01*
X177937685Y-80756801D01*
X177745718Y-80741693D01*
X177745709Y-80741693D01*
X177743261Y-80741500D01*
X177587729Y-80741500D01*
X177585593Y-80741646D01*
X177585582Y-80741646D01*
X177377452Y-80755835D01*
X177377446Y-80755836D01*
X177373175Y-80756127D01*
X177368980Y-80756996D01*
X177368978Y-80756996D01*
X177232417Y-80785276D01*
X177091658Y-80814426D01*
X176820657Y-80910393D01*
X176565188Y-81042250D01*
X176561687Y-81044711D01*
X176561683Y-81044713D01*
X176551594Y-81051804D01*
X176329977Y-81207559D01*
X176314892Y-81221577D01*
X176127191Y-81396000D01*
X176119378Y-81403260D01*
X175937287Y-81625732D01*
X175787073Y-81870858D01*
X175671517Y-82134102D01*
X175592756Y-82410594D01*
X175552249Y-82695216D01*
X175552227Y-82699505D01*
X175552226Y-82699512D01*
X175550765Y-82978417D01*
X175550743Y-82982703D01*
X168337867Y-82982703D01*
X168339235Y-82721583D01*
X168339235Y-82721576D01*
X168339257Y-82717297D01*
X168301732Y-82432266D01*
X168225871Y-82154964D01*
X168113077Y-81890524D01*
X168015923Y-81728192D01*
X167967643Y-81647521D01*
X167967640Y-81647517D01*
X167965439Y-81643839D01*
X167785687Y-81419472D01*
X167594383Y-81237931D01*
X167580258Y-81224527D01*
X167580255Y-81224525D01*
X167577149Y-81221577D01*
X167343683Y-81053814D01*
X167336790Y-81050164D01*
X167298654Y-81029972D01*
X167089608Y-80919288D01*
X166892935Y-80847316D01*
X166823658Y-80821964D01*
X166823656Y-80821963D01*
X166819627Y-80820489D01*
X166538736Y-80759245D01*
X166507685Y-80756801D01*
X166315718Y-80741693D01*
X166315709Y-80741693D01*
X166313261Y-80741500D01*
X166157729Y-80741500D01*
X166155593Y-80741646D01*
X166155582Y-80741646D01*
X165947452Y-80755835D01*
X165947446Y-80755836D01*
X165943175Y-80756127D01*
X165938980Y-80756996D01*
X165938978Y-80756996D01*
X165802417Y-80785276D01*
X165661658Y-80814426D01*
X165614455Y-80831141D01*
X165505400Y-80869760D01*
X165434510Y-80873644D01*
X165372773Y-80838586D01*
X165339790Y-80775716D01*
X165338213Y-80736178D01*
X165357563Y-80572678D01*
X165358000Y-80565272D01*
X165358000Y-80272115D01*
X165353525Y-80256876D01*
X165352135Y-80255671D01*
X165344452Y-80254000D01*
X164472115Y-80254000D01*
X164456876Y-80258475D01*
X164455671Y-80259865D01*
X164454000Y-80267548D01*
X164454000Y-81613292D01*
X164457977Y-81626837D01*
X164457976Y-81697834D01*
X164444513Y-81728169D01*
X164357073Y-81870858D01*
X164241517Y-82134102D01*
X164162756Y-82410594D01*
X164122249Y-82695216D01*
X164122227Y-82699505D01*
X164122226Y-82699512D01*
X164120765Y-82978417D01*
X164120743Y-82982703D01*
X155767867Y-82982703D01*
X155769235Y-82721583D01*
X155769235Y-82721576D01*
X155769257Y-82717297D01*
X155731732Y-82432266D01*
X155655871Y-82154964D01*
X155543077Y-81890524D01*
X155463884Y-81758202D01*
X155451472Y-81713294D01*
X155954000Y-81713294D01*
X155957806Y-81726256D01*
X155972722Y-81728192D01*
X155995300Y-81724313D01*
X156006417Y-81721334D01*
X156195252Y-81651669D01*
X156205630Y-81646719D01*
X156378606Y-81543809D01*
X156387915Y-81537045D01*
X156539243Y-81404335D01*
X156547153Y-81396000D01*
X156671764Y-81237931D01*
X156678032Y-81228280D01*
X156771743Y-81050164D01*
X156776152Y-81039521D01*
X156835833Y-80847316D01*
X156838227Y-80836054D01*
X156857563Y-80672678D01*
X156858000Y-80665272D01*
X156858000Y-80551092D01*
X163042000Y-80551092D01*
X163042266Y-80556881D01*
X163055984Y-80706176D01*
X163058082Y-80717497D01*
X163112713Y-80911203D01*
X163116837Y-80921950D01*
X163205859Y-81102466D01*
X163211869Y-81112273D01*
X163332299Y-81273549D01*
X163339989Y-81282089D01*
X163487794Y-81418720D01*
X163496919Y-81425721D01*
X163667144Y-81533125D01*
X163677391Y-81538346D01*
X163864332Y-81612928D01*
X163875369Y-81616197D01*
X163928230Y-81626712D01*
X163941106Y-81625560D01*
X163946000Y-81610404D01*
X163946000Y-80272115D01*
X163941525Y-80256876D01*
X163940135Y-80255671D01*
X163932452Y-80254000D01*
X163060115Y-80254000D01*
X163044876Y-80258475D01*
X163043671Y-80259865D01*
X163042000Y-80267548D01*
X163042000Y-80551092D01*
X156858000Y-80551092D01*
X156858000Y-80372115D01*
X156853525Y-80356876D01*
X156852135Y-80355671D01*
X156844452Y-80354000D01*
X155972115Y-80354000D01*
X155956876Y-80358475D01*
X155955671Y-80359865D01*
X155954000Y-80367548D01*
X155954000Y-81713294D01*
X155451472Y-81713294D01*
X155446000Y-81693496D01*
X155446000Y-80372115D01*
X155441525Y-80356876D01*
X155440135Y-80355671D01*
X155432452Y-80354000D01*
X154560115Y-80354000D01*
X154544876Y-80358475D01*
X154543671Y-80359865D01*
X154542000Y-80367548D01*
X154542000Y-80651092D01*
X154542266Y-80656881D01*
X154549785Y-80738714D01*
X154536100Y-80808379D01*
X154486924Y-80859586D01*
X154417869Y-80876078D01*
X154381013Y-80868569D01*
X154253658Y-80821964D01*
X154253656Y-80821963D01*
X154249627Y-80820489D01*
X153968736Y-80759245D01*
X153937685Y-80756801D01*
X153745718Y-80741693D01*
X153745709Y-80741693D01*
X153743261Y-80741500D01*
X153587729Y-80741500D01*
X153585593Y-80741646D01*
X153585582Y-80741646D01*
X153377452Y-80755835D01*
X153377446Y-80755836D01*
X153373175Y-80756127D01*
X153368980Y-80756996D01*
X153368978Y-80756996D01*
X153232417Y-80785276D01*
X153091658Y-80814426D01*
X152820657Y-80910393D01*
X152565188Y-81042250D01*
X152561687Y-81044711D01*
X152561683Y-81044713D01*
X152551594Y-81051804D01*
X152329977Y-81207559D01*
X152314892Y-81221577D01*
X152127191Y-81396000D01*
X152119378Y-81403260D01*
X151937287Y-81625732D01*
X151787073Y-81870858D01*
X151671517Y-82134102D01*
X151592756Y-82410594D01*
X151552249Y-82695216D01*
X151552227Y-82699505D01*
X151552226Y-82699512D01*
X151550765Y-82978417D01*
X151550743Y-82982703D01*
X144337867Y-82982703D01*
X144339235Y-82721583D01*
X144339235Y-82721576D01*
X144339257Y-82717297D01*
X144301732Y-82432266D01*
X144225871Y-82154964D01*
X144113077Y-81890524D01*
X144015923Y-81728192D01*
X143967643Y-81647521D01*
X143967640Y-81647517D01*
X143965439Y-81643839D01*
X143785687Y-81419472D01*
X143594383Y-81237931D01*
X143580258Y-81224527D01*
X143580255Y-81224525D01*
X143577149Y-81221577D01*
X143343683Y-81053814D01*
X143336790Y-81050164D01*
X143298654Y-81029972D01*
X143089608Y-80919288D01*
X142892935Y-80847316D01*
X142823658Y-80821964D01*
X142823656Y-80821963D01*
X142819627Y-80820489D01*
X142538736Y-80759245D01*
X142507685Y-80756801D01*
X142315718Y-80741693D01*
X142315709Y-80741693D01*
X142313261Y-80741500D01*
X142157729Y-80741500D01*
X142155593Y-80741646D01*
X142155582Y-80741646D01*
X141947452Y-80755835D01*
X141947446Y-80755836D01*
X141943175Y-80756127D01*
X141938980Y-80756996D01*
X141938978Y-80756996D01*
X141802416Y-80785277D01*
X141661658Y-80814426D01*
X141614455Y-80831141D01*
X141505400Y-80869760D01*
X141434510Y-80873644D01*
X141372773Y-80838586D01*
X141339790Y-80775716D01*
X141338213Y-80736178D01*
X141357563Y-80572678D01*
X141358000Y-80565272D01*
X141358000Y-80272115D01*
X141353525Y-80256876D01*
X141352135Y-80255671D01*
X141344452Y-80254000D01*
X140472115Y-80254000D01*
X140456876Y-80258475D01*
X140455671Y-80259865D01*
X140454000Y-80267548D01*
X140454000Y-81613292D01*
X140457977Y-81626837D01*
X140457976Y-81697834D01*
X140444513Y-81728169D01*
X140357073Y-81870858D01*
X140241517Y-82134102D01*
X140162756Y-82410594D01*
X140122249Y-82695216D01*
X140122227Y-82699505D01*
X140122226Y-82699512D01*
X140120765Y-82978417D01*
X140120743Y-82982703D01*
X139508500Y-82982703D01*
X139508500Y-81656892D01*
X139528502Y-81588771D01*
X139582158Y-81542278D01*
X139652432Y-81532174D01*
X139681190Y-81539862D01*
X139864332Y-81612928D01*
X139875369Y-81616197D01*
X139928230Y-81626712D01*
X139941106Y-81625560D01*
X139946000Y-81610404D01*
X139946000Y-79872000D01*
X139958953Y-79827885D01*
X154542000Y-79827885D01*
X154546475Y-79843124D01*
X154547865Y-79844329D01*
X154555548Y-79846000D01*
X155427885Y-79846000D01*
X155443124Y-79841525D01*
X155444329Y-79840135D01*
X155446000Y-79832452D01*
X155446000Y-79827885D01*
X155954000Y-79827885D01*
X155958475Y-79843124D01*
X155959865Y-79844329D01*
X155967548Y-79846000D01*
X156839885Y-79846000D01*
X156855124Y-79841525D01*
X156856329Y-79840135D01*
X156858000Y-79832452D01*
X156858000Y-79827885D01*
X178542000Y-79827885D01*
X178546475Y-79843124D01*
X178547865Y-79844329D01*
X178555548Y-79846000D01*
X179427885Y-79846000D01*
X179443124Y-79841525D01*
X179444329Y-79840135D01*
X179446000Y-79832452D01*
X179446000Y-78486706D01*
X179442194Y-78473744D01*
X179427278Y-78471808D01*
X179404700Y-78475687D01*
X179393583Y-78478666D01*
X179204748Y-78548331D01*
X179194370Y-78553281D01*
X179021394Y-78656191D01*
X179012085Y-78662955D01*
X178860757Y-78795665D01*
X178852847Y-78804000D01*
X178728236Y-78962069D01*
X178721968Y-78971720D01*
X178628257Y-79149836D01*
X178623848Y-79160479D01*
X178564167Y-79352684D01*
X178561773Y-79363946D01*
X178542437Y-79527322D01*
X178542000Y-79534728D01*
X178542000Y-79827885D01*
X156858000Y-79827885D01*
X156858000Y-79727885D01*
X163042000Y-79727885D01*
X163046475Y-79743124D01*
X163047865Y-79744329D01*
X163055548Y-79746000D01*
X165339885Y-79746000D01*
X165355124Y-79741525D01*
X165356329Y-79740135D01*
X165358000Y-79732452D01*
X165358000Y-79448908D01*
X165357734Y-79443122D01*
X165353361Y-79395530D01*
X165367045Y-79325865D01*
X165416221Y-79274657D01*
X165478832Y-79258000D01*
X165504175Y-79258000D01*
X165509770Y-79257751D01*
X165668078Y-79243622D01*
X165679092Y-79241640D01*
X165884860Y-79185349D01*
X165895341Y-79181451D01*
X166087903Y-79089603D01*
X166097516Y-79083918D01*
X166270767Y-78959425D01*
X166279233Y-78952117D01*
X166427692Y-78798918D01*
X166434735Y-78790221D01*
X166553719Y-78613156D01*
X166559105Y-78603358D01*
X166644857Y-78408010D01*
X166648422Y-78397418D01*
X166678624Y-78271616D01*
X166677919Y-78257530D01*
X166669040Y-78254000D01*
X163931589Y-78254000D01*
X163917607Y-78258105D01*
X163912896Y-78288462D01*
X163911229Y-78288203D01*
X163908270Y-78327010D01*
X163865457Y-78383645D01*
X163834034Y-78400635D01*
X163704748Y-78448331D01*
X163694370Y-78453281D01*
X163521394Y-78556191D01*
X163512085Y-78562955D01*
X163360757Y-78695665D01*
X163352847Y-78704000D01*
X163228236Y-78862069D01*
X163221968Y-78871720D01*
X163128257Y-79049836D01*
X163123848Y-79060479D01*
X163064167Y-79252684D01*
X163061773Y-79263946D01*
X163042437Y-79427322D01*
X163042000Y-79434728D01*
X163042000Y-79727885D01*
X156858000Y-79727885D01*
X156858000Y-79548908D01*
X156857734Y-79543119D01*
X156844016Y-79393824D01*
X156841918Y-79382503D01*
X156787287Y-79188797D01*
X156783163Y-79178050D01*
X156694141Y-78997534D01*
X156688131Y-78987727D01*
X156567701Y-78826451D01*
X156560011Y-78817911D01*
X156412206Y-78681280D01*
X156403081Y-78674279D01*
X156232856Y-78566875D01*
X156222609Y-78561654D01*
X156035668Y-78487072D01*
X156024631Y-78483803D01*
X155971770Y-78473288D01*
X155958894Y-78474440D01*
X155954000Y-78489596D01*
X155954000Y-79827885D01*
X155446000Y-79827885D01*
X155446000Y-78486706D01*
X155442194Y-78473744D01*
X155427278Y-78471808D01*
X155404700Y-78475687D01*
X155393583Y-78478666D01*
X155204748Y-78548331D01*
X155194370Y-78553281D01*
X155021394Y-78656191D01*
X155012085Y-78662955D01*
X154860757Y-78795665D01*
X154852847Y-78804000D01*
X154728236Y-78962069D01*
X154721968Y-78971720D01*
X154628257Y-79149836D01*
X154623848Y-79160479D01*
X154564167Y-79352684D01*
X154561773Y-79363946D01*
X154542437Y-79527322D01*
X154542000Y-79534728D01*
X154542000Y-79827885D01*
X139958953Y-79827885D01*
X139966002Y-79803879D01*
X140019658Y-79757386D01*
X140072000Y-79746000D01*
X141339885Y-79746000D01*
X141355124Y-79741525D01*
X141356329Y-79740135D01*
X141358000Y-79732452D01*
X141358000Y-79448908D01*
X141357734Y-79443122D01*
X141353361Y-79395530D01*
X141367045Y-79325865D01*
X141416221Y-79274657D01*
X141478832Y-79258000D01*
X141504175Y-79258000D01*
X141509770Y-79257751D01*
X141668078Y-79243622D01*
X141679092Y-79241640D01*
X141884860Y-79185349D01*
X141895341Y-79181451D01*
X142087903Y-79089603D01*
X142097516Y-79083918D01*
X142270767Y-78959425D01*
X142279233Y-78952117D01*
X142427692Y-78798918D01*
X142434735Y-78790221D01*
X142553719Y-78613156D01*
X142559105Y-78603358D01*
X142644857Y-78408010D01*
X142648422Y-78397418D01*
X142678624Y-78271616D01*
X142677919Y-78257530D01*
X142669040Y-78254000D01*
X139931589Y-78254000D01*
X139917607Y-78258105D01*
X139912896Y-78288462D01*
X139911229Y-78288203D01*
X139908270Y-78327010D01*
X139865457Y-78383645D01*
X139834034Y-78400635D01*
X139704748Y-78448331D01*
X139689154Y-78455769D01*
X139688017Y-78453385D01*
X139630078Y-78468209D01*
X139562701Y-78445829D01*
X139518120Y-78390574D01*
X139508500Y-78342287D01*
X139508500Y-77728384D01*
X139921376Y-77728384D01*
X139922081Y-77742470D01*
X139930960Y-77746000D01*
X141027885Y-77746000D01*
X141043124Y-77741525D01*
X141044329Y-77740135D01*
X141046000Y-77732452D01*
X141046000Y-76764312D01*
X141041714Y-76749716D01*
X141029676Y-76747654D01*
X140931922Y-76756378D01*
X140920909Y-76758359D01*
X140715140Y-76814651D01*
X140704659Y-76818549D01*
X140512097Y-76910397D01*
X140502484Y-76916082D01*
X140329233Y-77040575D01*
X140320767Y-77047883D01*
X140172308Y-77201082D01*
X140165265Y-77209779D01*
X140046281Y-77386844D01*
X140040895Y-77396642D01*
X139955143Y-77591990D01*
X139951578Y-77602582D01*
X139921376Y-77728384D01*
X139508500Y-77728384D01*
X139508500Y-72553250D01*
X139510246Y-72532345D01*
X139512770Y-72517344D01*
X139512770Y-72517341D01*
X139513576Y-72512552D01*
X139513729Y-72500000D01*
X139512248Y-72489656D01*
X139511330Y-72462352D01*
X139515260Y-72410091D01*
X139523519Y-72300237D01*
X139524557Y-72286431D01*
X139527379Y-72267763D01*
X139573079Y-72068208D01*
X139578661Y-72050176D01*
X139581731Y-72042383D01*
X139653678Y-71859718D01*
X139661900Y-71842708D01*
X139764551Y-71665608D01*
X139775224Y-71650019D01*
X139903200Y-71490261D01*
X139916084Y-71476443D01*
X140005869Y-71393580D01*
X140066510Y-71337615D01*
X140081314Y-71325879D01*
X140121605Y-71298595D01*
X140224445Y-71228955D01*
X140239594Y-71221060D01*
X140239557Y-71220993D01*
X140247403Y-71216625D01*
X140255784Y-71213416D01*
X140262925Y-71207985D01*
X140262932Y-71207981D01*
X140298563Y-71180881D01*
X140304943Y-71176334D01*
X140313340Y-71170736D01*
X142858104Y-69474099D01*
X142925878Y-69452953D01*
X142994326Y-69471805D01*
X143041716Y-69524670D01*
X143054000Y-69578935D01*
X143054000Y-70176397D01*
X143033998Y-70244518D01*
X143027962Y-70253101D01*
X142977563Y-70318782D01*
X142968476Y-70330624D01*
X142965316Y-70338254D01*
X142910696Y-70470117D01*
X142910321Y-70471021D01*
X142910320Y-70471025D01*
X142907162Y-70478650D01*
X142891500Y-70597615D01*
X142891500Y-70597620D01*
X142886250Y-70637500D01*
X142887328Y-70645688D01*
X142890422Y-70669190D01*
X142891500Y-70685636D01*
X142891500Y-75324141D01*
X142871498Y-75392262D01*
X142837770Y-75427354D01*
X142692478Y-75529088D01*
X142692472Y-75529093D01*
X142687962Y-75532251D01*
X142532251Y-75687962D01*
X142405944Y-75868347D01*
X142403621Y-75873329D01*
X142403618Y-75873334D01*
X142356415Y-75974562D01*
X142312880Y-76067924D01*
X142255885Y-76280629D01*
X142236693Y-76500000D01*
X142255885Y-76719371D01*
X142257308Y-76724681D01*
X142257310Y-76724691D01*
X142269842Y-76771461D01*
X142268153Y-76842437D01*
X142228360Y-76901233D01*
X142163096Y-76929182D01*
X142093082Y-76917409D01*
X142081180Y-76910810D01*
X142028185Y-76877566D01*
X142018219Y-76872489D01*
X141820286Y-76792920D01*
X141809571Y-76789685D01*
X141599699Y-76746223D01*
X141590563Y-76745020D01*
X141572087Y-76743955D01*
X141556668Y-76747533D01*
X141554000Y-76758294D01*
X141554000Y-77727885D01*
X141558475Y-77743124D01*
X141559865Y-77744329D01*
X141567548Y-77746000D01*
X142668411Y-77746000D01*
X142682393Y-77741895D01*
X142683886Y-77732273D01*
X142683299Y-77729511D01*
X142688702Y-77658720D01*
X142731519Y-77602088D01*
X142798157Y-77577595D01*
X142868046Y-77593846D01*
X142868346Y-77594056D01*
X143067924Y-77687120D01*
X143280629Y-77744115D01*
X143500000Y-77763307D01*
X143719371Y-77744115D01*
X143932076Y-77687120D01*
X144131654Y-77594056D01*
X144312038Y-77467749D01*
X144467749Y-77312038D01*
X144480233Y-77294210D01*
X144590899Y-77136162D01*
X144590900Y-77136160D01*
X144594056Y-77131653D01*
X144596379Y-77126671D01*
X144596382Y-77126666D01*
X144655805Y-76999231D01*
X144702722Y-76945946D01*
X144770999Y-76926485D01*
X144838959Y-76947027D01*
X144884195Y-76999231D01*
X144943618Y-77126666D01*
X144943621Y-77126671D01*
X144945944Y-77131653D01*
X144949100Y-77136160D01*
X144949101Y-77136162D01*
X145059768Y-77294210D01*
X145072251Y-77312038D01*
X145227962Y-77467749D01*
X145408346Y-77594056D01*
X145607924Y-77687120D01*
X145820629Y-77744115D01*
X146040000Y-77763307D01*
X146259371Y-77744115D01*
X146472076Y-77687120D01*
X146671654Y-77594056D01*
X146852038Y-77467749D01*
X147007749Y-77312038D01*
X147020233Y-77294210D01*
X147130899Y-77136162D01*
X147130900Y-77136160D01*
X147134056Y-77131653D01*
X147136379Y-77126671D01*
X147136382Y-77126666D01*
X147195805Y-76999231D01*
X147242722Y-76945946D01*
X147310999Y-76926485D01*
X147378959Y-76947027D01*
X147424195Y-76999231D01*
X147483618Y-77126666D01*
X147483621Y-77126671D01*
X147485944Y-77131653D01*
X147489100Y-77136160D01*
X147489101Y-77136162D01*
X147599768Y-77294210D01*
X147612251Y-77312038D01*
X147767962Y-77467749D01*
X147948346Y-77594056D01*
X148147924Y-77687120D01*
X148360629Y-77744115D01*
X148580000Y-77763307D01*
X148799371Y-77744115D01*
X149012076Y-77687120D01*
X149211654Y-77594056D01*
X149392038Y-77467749D01*
X149547749Y-77312038D01*
X149560233Y-77294210D01*
X149670899Y-77136162D01*
X149670900Y-77136160D01*
X149674056Y-77131653D01*
X149676379Y-77126671D01*
X149676382Y-77126666D01*
X149735805Y-76999231D01*
X149782722Y-76945946D01*
X149850999Y-76926485D01*
X149918959Y-76947027D01*
X149964195Y-76999231D01*
X150023618Y-77126666D01*
X150023621Y-77126671D01*
X150025944Y-77131653D01*
X150029100Y-77136160D01*
X150029101Y-77136162D01*
X150139768Y-77294210D01*
X150152251Y-77312038D01*
X150307962Y-77467749D01*
X150488346Y-77594056D01*
X150687924Y-77687120D01*
X150900629Y-77744115D01*
X151120000Y-77763307D01*
X151339371Y-77744115D01*
X151552076Y-77687120D01*
X151735189Y-77601734D01*
X151805380Y-77591073D01*
X151870193Y-77620053D01*
X151909049Y-77679473D01*
X151909612Y-77750467D01*
X151902633Y-77769179D01*
X151809297Y-77969340D01*
X151751171Y-78186271D01*
X151731597Y-78410000D01*
X151751171Y-78633729D01*
X151752595Y-78639042D01*
X151752595Y-78639044D01*
X151796795Y-78804000D01*
X151809297Y-78850660D01*
X151811619Y-78855641D01*
X151811620Y-78855642D01*
X151901884Y-79049214D01*
X151901885Y-79049215D01*
X151904210Y-79054201D01*
X151907366Y-79058708D01*
X151907367Y-79058710D01*
X151993312Y-79181451D01*
X152033026Y-79238169D01*
X152191831Y-79396974D01*
X152196339Y-79400131D01*
X152196342Y-79400133D01*
X152235172Y-79427322D01*
X152375799Y-79525790D01*
X152380781Y-79528113D01*
X152380786Y-79528116D01*
X152574358Y-79618380D01*
X152579340Y-79620703D01*
X152584648Y-79622125D01*
X152584650Y-79622126D01*
X152790956Y-79677405D01*
X152790958Y-79677405D01*
X152796271Y-79678829D01*
X152894186Y-79687396D01*
X152961235Y-79693262D01*
X152961242Y-79693262D01*
X152963959Y-79693500D01*
X153076041Y-79693500D01*
X153078758Y-79693262D01*
X153078765Y-79693262D01*
X153145814Y-79687396D01*
X153243729Y-79678829D01*
X153249042Y-79677405D01*
X153249044Y-79677405D01*
X153455350Y-79622126D01*
X153455352Y-79622125D01*
X153460660Y-79620703D01*
X153465642Y-79618380D01*
X153659214Y-79528116D01*
X153659219Y-79528113D01*
X153664201Y-79525790D01*
X153804828Y-79427322D01*
X153843658Y-79400133D01*
X153843661Y-79400131D01*
X153848169Y-79396974D01*
X154006974Y-79238169D01*
X154135790Y-79054202D01*
X154138113Y-79049220D01*
X154138116Y-79049215D01*
X154228380Y-78855642D01*
X154228380Y-78855641D01*
X154230703Y-78850660D01*
X154243206Y-78804000D01*
X154287405Y-78639044D01*
X154287405Y-78639042D01*
X154288829Y-78633729D01*
X154308403Y-78410000D01*
X154288829Y-78186271D01*
X154230703Y-77969340D01*
X154228380Y-77964358D01*
X154138116Y-77770786D01*
X154138113Y-77770781D01*
X154135790Y-77765799D01*
X154132633Y-77761290D01*
X154109592Y-77728384D01*
X163921376Y-77728384D01*
X163922081Y-77742470D01*
X163930960Y-77746000D01*
X165027885Y-77746000D01*
X165043124Y-77741525D01*
X165044329Y-77740135D01*
X165046000Y-77732452D01*
X165046000Y-76764312D01*
X165041714Y-76749716D01*
X165029676Y-76747654D01*
X164931922Y-76756378D01*
X164920909Y-76758359D01*
X164715140Y-76814651D01*
X164704659Y-76818549D01*
X164512097Y-76910397D01*
X164502484Y-76916082D01*
X164329233Y-77040575D01*
X164320767Y-77047883D01*
X164172308Y-77201082D01*
X164165265Y-77209779D01*
X164046281Y-77386844D01*
X164040895Y-77396642D01*
X163955143Y-77591990D01*
X163951578Y-77602582D01*
X163921376Y-77728384D01*
X154109592Y-77728384D01*
X154010133Y-77586342D01*
X154010131Y-77586339D01*
X154006974Y-77581831D01*
X153848169Y-77423026D01*
X153843661Y-77419869D01*
X153843658Y-77419867D01*
X153668710Y-77297367D01*
X153668708Y-77297366D01*
X153664201Y-77294210D01*
X153659219Y-77291887D01*
X153659214Y-77291884D01*
X153465642Y-77201620D01*
X153465641Y-77201619D01*
X153460660Y-77199297D01*
X153455352Y-77197875D01*
X153455350Y-77197874D01*
X153249044Y-77142595D01*
X153249042Y-77142595D01*
X153243729Y-77141171D01*
X153145814Y-77132604D01*
X153078765Y-77126738D01*
X153078758Y-77126738D01*
X153076041Y-77126500D01*
X152963959Y-77126500D01*
X152961242Y-77126738D01*
X152961235Y-77126738D01*
X152894186Y-77132604D01*
X152796271Y-77141171D01*
X152790958Y-77142595D01*
X152790956Y-77142595D01*
X152584650Y-77197874D01*
X152584648Y-77197875D01*
X152579340Y-77199297D01*
X152574359Y-77201619D01*
X152574358Y-77201620D01*
X152385998Y-77289454D01*
X152315806Y-77300115D01*
X152250994Y-77271135D01*
X152212137Y-77211715D01*
X152211574Y-77140721D01*
X152218553Y-77122009D01*
X152304795Y-76937061D01*
X152307120Y-76932076D01*
X152364115Y-76719371D01*
X152383307Y-76500000D01*
X152364115Y-76280629D01*
X152307120Y-76067924D01*
X152263585Y-75974562D01*
X152216382Y-75873334D01*
X152216379Y-75873329D01*
X152214056Y-75868347D01*
X152087749Y-75687962D01*
X151932038Y-75532251D01*
X151927530Y-75529094D01*
X151927527Y-75529092D01*
X151841655Y-75468964D01*
X151807228Y-75444858D01*
X151762901Y-75389402D01*
X151753500Y-75341646D01*
X151753500Y-75249576D01*
X151773502Y-75181455D01*
X151827158Y-75134962D01*
X151897432Y-75124858D01*
X151932751Y-75135382D01*
X151952934Y-75144794D01*
X151952942Y-75144797D01*
X151957924Y-75147120D01*
X152170629Y-75204115D01*
X152390000Y-75223307D01*
X152609371Y-75204115D01*
X152822076Y-75147120D01*
X153021654Y-75054056D01*
X153202038Y-74927749D01*
X153357749Y-74772038D01*
X153484056Y-74591653D01*
X153490662Y-74577486D01*
X153537578Y-74524201D01*
X153541054Y-74522150D01*
X153547617Y-74519552D01*
X153583387Y-74493564D01*
X153593307Y-74487048D01*
X153624535Y-74468580D01*
X153624538Y-74468578D01*
X153631362Y-74464542D01*
X153645683Y-74450221D01*
X153660717Y-74437380D01*
X153670694Y-74430131D01*
X153677107Y-74425472D01*
X153705298Y-74391395D01*
X153713288Y-74382616D01*
X156525989Y-71569916D01*
X156588301Y-71535890D01*
X156615084Y-71533011D01*
X157159222Y-71533011D01*
X157170405Y-71533538D01*
X157177898Y-71535213D01*
X157185824Y-71534964D01*
X157185825Y-71534964D01*
X157245975Y-71533073D01*
X157249934Y-71533011D01*
X157277845Y-71533011D01*
X157281780Y-71532514D01*
X157281845Y-71532506D01*
X157293682Y-71531573D01*
X157325940Y-71530559D01*
X157329959Y-71530433D01*
X157337878Y-71530184D01*
X157357332Y-71524532D01*
X157376689Y-71520524D01*
X157388919Y-71518979D01*
X157388920Y-71518979D01*
X157396786Y-71517985D01*
X157404157Y-71515066D01*
X157404159Y-71515066D01*
X157437901Y-71501707D01*
X157449131Y-71497862D01*
X157483972Y-71487740D01*
X157483973Y-71487740D01*
X157491582Y-71485529D01*
X157498401Y-71481496D01*
X157498406Y-71481494D01*
X157509017Y-71475218D01*
X157526765Y-71466523D01*
X157545606Y-71459063D01*
X157581376Y-71433075D01*
X157591296Y-71426559D01*
X157622524Y-71408091D01*
X157622527Y-71408089D01*
X157629351Y-71404053D01*
X157643672Y-71389732D01*
X157658706Y-71376891D01*
X157666360Y-71371330D01*
X157675096Y-71364983D01*
X157703287Y-71330906D01*
X157711277Y-71322127D01*
X157912999Y-71120405D01*
X157975311Y-71086379D01*
X158002094Y-71083500D01*
X158960634Y-71083500D01*
X159022816Y-71076745D01*
X159159205Y-71025615D01*
X159275761Y-70938261D01*
X159363115Y-70821705D01*
X159414245Y-70685316D01*
X159421000Y-70623134D01*
X159421000Y-69176866D01*
X159414245Y-69114684D01*
X159363115Y-68978295D01*
X159342662Y-68951005D01*
X159317816Y-68884500D01*
X159332869Y-68815118D01*
X159383044Y-68764888D01*
X159399260Y-68757460D01*
X159475797Y-68728767D01*
X159484205Y-68725615D01*
X159491391Y-68720229D01*
X159499260Y-68715921D01*
X159500643Y-68718447D01*
X159553442Y-68698721D01*
X159622824Y-68713774D01*
G37*
G04 #@! TD.AperFunction*
G04 #@! TA.AperFunction,Conductor*
G36*
X169470018Y-47010000D02*
G01*
X169484851Y-47012310D01*
X169484855Y-47012310D01*
X169493724Y-47013691D01*
X169508981Y-47011696D01*
X169534302Y-47010953D01*
X169703285Y-47023039D01*
X169721064Y-47025596D01*
X169911392Y-47066999D01*
X169928641Y-47072063D01*
X170111150Y-47140136D01*
X170127502Y-47147604D01*
X170298458Y-47240952D01*
X170313582Y-47250672D01*
X170469514Y-47367402D01*
X170483100Y-47379175D01*
X170620825Y-47516900D01*
X170632598Y-47530486D01*
X170749328Y-47686418D01*
X170759048Y-47701542D01*
X170852396Y-47872498D01*
X170859864Y-47888850D01*
X170927937Y-48071359D01*
X170933001Y-48088607D01*
X170974404Y-48278936D01*
X170976961Y-48296715D01*
X170988540Y-48458601D01*
X170987793Y-48476565D01*
X170987692Y-48484845D01*
X170986309Y-48493724D01*
X170989398Y-48517344D01*
X170990436Y-48525283D01*
X170991500Y-48541621D01*
X170991500Y-63450633D01*
X170990000Y-63470018D01*
X170987690Y-63484851D01*
X170987690Y-63484855D01*
X170986309Y-63493724D01*
X170987473Y-63502628D01*
X170987451Y-63504455D01*
X170987803Y-63508393D01*
X171003727Y-63838299D01*
X171020867Y-63955935D01*
X171042988Y-64107749D01*
X171052561Y-64173453D01*
X171133448Y-64502346D01*
X171245634Y-64821920D01*
X171246918Y-64824689D01*
X171246918Y-64824690D01*
X171381520Y-65115060D01*
X171388076Y-65129204D01*
X171389613Y-65131824D01*
X171389614Y-65131826D01*
X171444636Y-65225620D01*
X171559451Y-65421340D01*
X171758166Y-65695613D01*
X171760175Y-65697887D01*
X171760176Y-65697889D01*
X171958422Y-65922356D01*
X171982371Y-65949473D01*
X171985181Y-65952095D01*
X172226582Y-66177385D01*
X172229984Y-66180560D01*
X172232394Y-66182409D01*
X172489410Y-66379595D01*
X172498702Y-66386724D01*
X172757851Y-66548466D01*
X172770016Y-66557101D01*
X172774594Y-66560776D01*
X172785476Y-66567034D01*
X172790028Y-66568787D01*
X172794403Y-66570871D01*
X172794199Y-66571299D01*
X172812273Y-66580679D01*
X173259688Y-66880283D01*
X175657302Y-68485805D01*
X175702775Y-68540328D01*
X175711552Y-68610780D01*
X175680847Y-68674793D01*
X175620408Y-68712044D01*
X175587195Y-68716500D01*
X175176866Y-68716500D01*
X175114684Y-68723255D01*
X174978295Y-68774385D01*
X174971109Y-68779771D01*
X174963240Y-68784079D01*
X174961857Y-68781553D01*
X174909058Y-68801279D01*
X174839676Y-68786226D01*
X174833888Y-68782507D01*
X174828893Y-68779772D01*
X174821705Y-68774385D01*
X174685316Y-68723255D01*
X174623134Y-68716500D01*
X173176866Y-68716500D01*
X173114684Y-68723255D01*
X172978295Y-68774385D01*
X172971109Y-68779771D01*
X172963240Y-68784079D01*
X172961857Y-68781553D01*
X172909058Y-68801279D01*
X172839676Y-68786226D01*
X172833888Y-68782507D01*
X172828893Y-68779772D01*
X172821705Y-68774385D01*
X172685316Y-68723255D01*
X172623134Y-68716500D01*
X171176866Y-68716500D01*
X171114684Y-68723255D01*
X170978295Y-68774385D01*
X170971109Y-68779771D01*
X170963240Y-68784079D01*
X170961857Y-68781553D01*
X170909058Y-68801279D01*
X170839676Y-68786226D01*
X170833888Y-68782507D01*
X170828893Y-68779772D01*
X170821705Y-68774385D01*
X170685316Y-68723255D01*
X170623134Y-68716500D01*
X169176866Y-68716500D01*
X169114684Y-68723255D01*
X168978295Y-68774385D01*
X168971109Y-68779771D01*
X168963240Y-68784079D01*
X168961857Y-68781553D01*
X168909058Y-68801279D01*
X168839676Y-68786226D01*
X168833888Y-68782507D01*
X168828893Y-68779772D01*
X168821705Y-68774385D01*
X168685316Y-68723255D01*
X168623134Y-68716500D01*
X167792648Y-68716500D01*
X167724527Y-68696498D01*
X167678034Y-68642842D01*
X167667930Y-68572568D01*
X167682128Y-68529992D01*
X167682734Y-68528884D01*
X167688115Y-68521705D01*
X167739245Y-68385316D01*
X167746000Y-68323134D01*
X167746000Y-66876866D01*
X167739245Y-66814684D01*
X167688115Y-66678295D01*
X167600761Y-66561739D01*
X167484205Y-66474385D01*
X167347816Y-66423255D01*
X167285634Y-66416500D01*
X166291739Y-66416500D01*
X166223618Y-66396498D01*
X166202644Y-66379595D01*
X165745405Y-65922356D01*
X165711379Y-65860044D01*
X165708500Y-65833261D01*
X165708500Y-61348136D01*
X165709578Y-61331690D01*
X165712672Y-61308188D01*
X165713750Y-61300000D01*
X165708500Y-61260122D01*
X165708500Y-61260115D01*
X165692838Y-61141150D01*
X165631524Y-60993125D01*
X165632367Y-60992776D01*
X165617286Y-60930623D01*
X165621438Y-60904001D01*
X165642690Y-60824690D01*
X165642692Y-60824681D01*
X165644115Y-60819371D01*
X165663307Y-60600000D01*
X165644115Y-60380629D01*
X165642691Y-60375315D01*
X165642690Y-60375309D01*
X165630158Y-60328539D01*
X165631847Y-60257563D01*
X165671640Y-60198767D01*
X165736904Y-60170818D01*
X165806918Y-60182591D01*
X165818820Y-60189190D01*
X165871815Y-60222434D01*
X165881781Y-60227511D01*
X166079714Y-60307080D01*
X166090429Y-60310315D01*
X166300301Y-60353777D01*
X166309437Y-60354980D01*
X166327913Y-60356045D01*
X166343332Y-60352467D01*
X166346000Y-60341706D01*
X166346000Y-60335688D01*
X166854000Y-60335688D01*
X166858286Y-60350284D01*
X166870324Y-60352346D01*
X166968078Y-60343622D01*
X166979091Y-60341641D01*
X167184860Y-60285349D01*
X167195341Y-60281451D01*
X167387903Y-60189603D01*
X167397516Y-60183918D01*
X167570767Y-60059425D01*
X167579233Y-60052117D01*
X167727692Y-59898918D01*
X167734735Y-59890221D01*
X167853719Y-59713156D01*
X167859105Y-59703358D01*
X167944857Y-59508010D01*
X167948422Y-59497418D01*
X167978624Y-59371616D01*
X167977919Y-59357530D01*
X167969040Y-59354000D01*
X166872115Y-59354000D01*
X166856876Y-59358475D01*
X166855671Y-59359865D01*
X166854000Y-59367548D01*
X166854000Y-60335688D01*
X166346000Y-60335688D01*
X166346000Y-59372115D01*
X166341525Y-59356876D01*
X166340135Y-59355671D01*
X166332452Y-59354000D01*
X165231589Y-59354000D01*
X165217607Y-59358105D01*
X165216114Y-59367727D01*
X165216701Y-59370489D01*
X165211298Y-59441280D01*
X165168481Y-59497912D01*
X165101843Y-59522405D01*
X165031954Y-59506154D01*
X165031654Y-59505944D01*
X164832076Y-59412880D01*
X164619371Y-59355885D01*
X164400000Y-59336693D01*
X164180629Y-59355885D01*
X163967924Y-59412880D01*
X163907020Y-59441280D01*
X163773334Y-59503618D01*
X163773329Y-59503621D01*
X163768347Y-59505944D01*
X163763840Y-59509100D01*
X163763838Y-59509101D01*
X163592473Y-59629092D01*
X163592470Y-59629094D01*
X163587962Y-59632251D01*
X163432251Y-59787962D01*
X163429094Y-59792470D01*
X163429092Y-59792473D01*
X163312293Y-59959279D01*
X163305944Y-59968347D01*
X163303621Y-59973329D01*
X163303618Y-59973334D01*
X163244195Y-60100769D01*
X163197278Y-60154054D01*
X163129001Y-60173515D01*
X163061041Y-60152973D01*
X163015805Y-60100769D01*
X162956382Y-59973334D01*
X162956379Y-59973329D01*
X162954056Y-59968347D01*
X162947707Y-59959279D01*
X162830908Y-59792473D01*
X162830906Y-59792470D01*
X162827749Y-59787962D01*
X162672038Y-59632251D01*
X162491654Y-59505944D01*
X162292076Y-59412880D01*
X162079371Y-59355885D01*
X161860000Y-59336693D01*
X161640629Y-59355885D01*
X161427924Y-59412880D01*
X161367020Y-59441280D01*
X161233334Y-59503618D01*
X161233329Y-59503621D01*
X161228347Y-59505944D01*
X161223840Y-59509100D01*
X161223838Y-59509101D01*
X161052473Y-59629092D01*
X161052470Y-59629094D01*
X161047962Y-59632251D01*
X160892251Y-59787962D01*
X160889094Y-59792470D01*
X160889092Y-59792473D01*
X160772293Y-59959279D01*
X160765944Y-59968347D01*
X160763621Y-59973329D01*
X160763618Y-59973334D01*
X160704195Y-60100769D01*
X160657278Y-60154054D01*
X160589001Y-60173515D01*
X160521041Y-60152973D01*
X160475805Y-60100769D01*
X160416382Y-59973334D01*
X160416379Y-59973329D01*
X160414056Y-59968347D01*
X160407707Y-59959279D01*
X160290908Y-59792473D01*
X160290906Y-59792470D01*
X160287749Y-59787962D01*
X160132038Y-59632251D01*
X159951654Y-59505944D01*
X159752076Y-59412880D01*
X159539371Y-59355885D01*
X159320000Y-59336693D01*
X159100629Y-59355885D01*
X158887924Y-59412880D01*
X158827020Y-59441280D01*
X158693334Y-59503618D01*
X158693329Y-59503621D01*
X158688347Y-59505944D01*
X158683840Y-59509100D01*
X158683838Y-59509101D01*
X158512473Y-59629092D01*
X158512470Y-59629094D01*
X158507962Y-59632251D01*
X158352251Y-59787962D01*
X158349094Y-59792470D01*
X158349092Y-59792473D01*
X158232293Y-59959279D01*
X158225944Y-59968347D01*
X158223621Y-59973329D01*
X158223618Y-59973334D01*
X158164195Y-60100769D01*
X158117278Y-60154054D01*
X158049001Y-60173515D01*
X157981041Y-60152973D01*
X157935805Y-60100769D01*
X157876382Y-59973334D01*
X157876379Y-59973329D01*
X157874056Y-59968347D01*
X157867707Y-59959279D01*
X157750908Y-59792473D01*
X157750906Y-59792470D01*
X157747749Y-59787962D01*
X157592038Y-59632251D01*
X157411654Y-59505944D01*
X157212076Y-59412880D01*
X156999371Y-59355885D01*
X156780000Y-59336693D01*
X156560629Y-59355885D01*
X156347924Y-59412880D01*
X156164810Y-59498267D01*
X156094619Y-59508928D01*
X156029807Y-59479948D01*
X155990950Y-59420528D01*
X155990387Y-59349534D01*
X155997366Y-59330822D01*
X156088380Y-59135642D01*
X156088380Y-59135641D01*
X156090703Y-59130660D01*
X156148829Y-58913729D01*
X156156296Y-58828384D01*
X165221376Y-58828384D01*
X165222081Y-58842470D01*
X165230960Y-58846000D01*
X167968411Y-58846000D01*
X167982393Y-58841895D01*
X167987104Y-58811538D01*
X167988771Y-58811797D01*
X167991730Y-58772990D01*
X168034543Y-58716355D01*
X168065966Y-58699365D01*
X168195252Y-58651669D01*
X168205630Y-58646719D01*
X168378606Y-58543809D01*
X168387915Y-58537045D01*
X168539243Y-58404335D01*
X168547153Y-58396000D01*
X168671764Y-58237931D01*
X168678032Y-58228280D01*
X168771743Y-58050164D01*
X168776152Y-58039521D01*
X168835833Y-57847316D01*
X168838227Y-57836054D01*
X168857563Y-57672678D01*
X168858000Y-57665272D01*
X168858000Y-57372115D01*
X168853525Y-57356876D01*
X168852135Y-57355671D01*
X168844452Y-57354000D01*
X166560115Y-57354000D01*
X166544876Y-57358475D01*
X166543671Y-57359865D01*
X166542000Y-57367548D01*
X166542000Y-57651092D01*
X166542266Y-57656878D01*
X166546639Y-57704470D01*
X166532955Y-57774135D01*
X166483779Y-57825343D01*
X166421168Y-57842000D01*
X166395825Y-57842000D01*
X166390230Y-57842249D01*
X166231922Y-57856378D01*
X166220908Y-57858360D01*
X166015140Y-57914651D01*
X166004659Y-57918549D01*
X165812097Y-58010397D01*
X165802484Y-58016082D01*
X165629233Y-58140575D01*
X165620767Y-58147883D01*
X165472308Y-58301082D01*
X165465265Y-58309779D01*
X165346281Y-58486844D01*
X165340895Y-58496642D01*
X165255143Y-58691990D01*
X165251578Y-58702582D01*
X165221376Y-58828384D01*
X156156296Y-58828384D01*
X156168403Y-58690000D01*
X156148829Y-58466271D01*
X156147405Y-58460956D01*
X156092126Y-58254650D01*
X156092125Y-58254648D01*
X156090703Y-58249340D01*
X156034252Y-58128280D01*
X155998116Y-58050786D01*
X155998113Y-58050781D01*
X155995790Y-58045799D01*
X155928826Y-57950164D01*
X155870133Y-57866342D01*
X155870131Y-57866339D01*
X155866974Y-57861831D01*
X155708169Y-57703026D01*
X155703661Y-57699869D01*
X155703658Y-57699867D01*
X155528710Y-57577367D01*
X155528708Y-57577366D01*
X155524201Y-57574210D01*
X155519219Y-57571887D01*
X155519214Y-57571884D01*
X155325642Y-57481620D01*
X155325641Y-57481619D01*
X155320660Y-57479297D01*
X155315352Y-57477875D01*
X155315350Y-57477874D01*
X155109044Y-57422595D01*
X155109042Y-57422595D01*
X155103729Y-57421171D01*
X155005814Y-57412604D01*
X154938765Y-57406738D01*
X154938758Y-57406738D01*
X154936041Y-57406500D01*
X154823959Y-57406500D01*
X154821242Y-57406738D01*
X154821235Y-57406738D01*
X154754186Y-57412604D01*
X154656271Y-57421171D01*
X154650958Y-57422595D01*
X154650956Y-57422595D01*
X154444650Y-57477874D01*
X154444648Y-57477875D01*
X154439340Y-57479297D01*
X154434359Y-57481619D01*
X154434358Y-57481620D01*
X154240786Y-57571884D01*
X154240781Y-57571887D01*
X154235799Y-57574210D01*
X154231292Y-57577366D01*
X154231290Y-57577367D01*
X154056342Y-57699867D01*
X154056339Y-57699869D01*
X154051831Y-57703026D01*
X153893026Y-57861831D01*
X153764210Y-58045798D01*
X153761887Y-58050780D01*
X153761884Y-58050785D01*
X153720015Y-58140575D01*
X153669297Y-58249340D01*
X153667875Y-58254648D01*
X153667874Y-58254650D01*
X153612595Y-58460956D01*
X153611171Y-58466271D01*
X153591597Y-58690000D01*
X153611171Y-58913729D01*
X153669297Y-59130660D01*
X153671619Y-59135641D01*
X153671620Y-59135642D01*
X153761884Y-59329214D01*
X153761887Y-59329219D01*
X153764210Y-59334201D01*
X153767366Y-59338708D01*
X153767367Y-59338710D01*
X153886677Y-59509101D01*
X153893026Y-59518169D01*
X154051831Y-59676974D01*
X154056339Y-59680131D01*
X154056342Y-59680133D01*
X154231290Y-59802633D01*
X154235799Y-59805790D01*
X154240781Y-59808113D01*
X154240786Y-59808116D01*
X154416861Y-59890221D01*
X154439340Y-59900703D01*
X154444648Y-59902125D01*
X154444650Y-59902126D01*
X154650956Y-59957405D01*
X154650958Y-59957405D01*
X154656271Y-59958829D01*
X154754186Y-59967396D01*
X154821235Y-59973262D01*
X154821242Y-59973262D01*
X154823959Y-59973500D01*
X154936041Y-59973500D01*
X154938758Y-59973262D01*
X154938765Y-59973262D01*
X155005814Y-59967396D01*
X155103729Y-59958829D01*
X155109042Y-59957405D01*
X155109044Y-59957405D01*
X155315350Y-59902126D01*
X155315352Y-59902125D01*
X155320660Y-59900703D01*
X155347291Y-59888285D01*
X155514002Y-59810546D01*
X155584194Y-59799885D01*
X155649006Y-59828865D01*
X155687863Y-59888285D01*
X155688426Y-59959279D01*
X155681447Y-59977990D01*
X155592880Y-60167924D01*
X155535885Y-60380629D01*
X155516693Y-60600000D01*
X155535885Y-60819371D01*
X155592880Y-61032076D01*
X155595205Y-61037061D01*
X155683618Y-61226666D01*
X155683621Y-61226671D01*
X155685944Y-61231653D01*
X155689100Y-61236160D01*
X155689101Y-61236162D01*
X155755991Y-61331690D01*
X155812251Y-61412038D01*
X155967962Y-61567749D01*
X155972470Y-61570906D01*
X155972473Y-61570908D01*
X156025866Y-61608294D01*
X156092772Y-61655142D01*
X156137099Y-61710598D01*
X156146500Y-61758354D01*
X156146500Y-61850424D01*
X156126498Y-61918545D01*
X156072842Y-61965038D01*
X156002568Y-61975142D01*
X155967249Y-61964618D01*
X155947066Y-61955206D01*
X155947058Y-61955203D01*
X155942076Y-61952880D01*
X155729371Y-61895885D01*
X155510000Y-61876693D01*
X155290629Y-61895885D01*
X155077924Y-61952880D01*
X154984562Y-61996415D01*
X154883334Y-62043618D01*
X154883329Y-62043621D01*
X154878347Y-62045944D01*
X154873840Y-62049100D01*
X154873838Y-62049101D01*
X154702473Y-62169092D01*
X154702470Y-62169094D01*
X154697962Y-62172251D01*
X154542251Y-62327962D01*
X154415944Y-62508347D01*
X154413621Y-62513329D01*
X154413618Y-62513334D01*
X154388695Y-62566783D01*
X154322880Y-62707924D01*
X154265885Y-62920629D01*
X154265406Y-62926106D01*
X154258609Y-63003798D01*
X154232746Y-63069916D01*
X154222183Y-63081912D01*
X152170247Y-65133848D01*
X152161961Y-65141388D01*
X152155482Y-65145500D01*
X152150057Y-65151277D01*
X152108857Y-65195151D01*
X152106102Y-65197993D01*
X152086365Y-65217730D01*
X152083885Y-65220927D01*
X152076182Y-65229947D01*
X152045914Y-65262179D01*
X152042095Y-65269125D01*
X152042093Y-65269128D01*
X152036152Y-65279934D01*
X152025301Y-65296453D01*
X152012886Y-65312459D01*
X152009741Y-65319728D01*
X152009738Y-65319732D01*
X151995326Y-65353037D01*
X151990109Y-65363687D01*
X151968805Y-65402440D01*
X151966834Y-65410115D01*
X151966834Y-65410116D01*
X151963767Y-65422062D01*
X151957363Y-65440766D01*
X151949319Y-65459355D01*
X151948080Y-65467178D01*
X151948077Y-65467188D01*
X151942401Y-65503024D01*
X151939995Y-65514644D01*
X151929000Y-65557470D01*
X151929000Y-65577724D01*
X151927449Y-65597434D01*
X151924280Y-65617443D01*
X151925026Y-65625335D01*
X151928441Y-65661461D01*
X151929000Y-65673319D01*
X151929000Y-66293709D01*
X151908998Y-66361830D01*
X151855342Y-66408323D01*
X151816608Y-66418972D01*
X151804414Y-66420297D01*
X151777184Y-66423255D01*
X151640795Y-66474385D01*
X151524239Y-66561739D01*
X151436885Y-66678295D01*
X151385755Y-66814684D01*
X151379000Y-66876866D01*
X151379000Y-68323134D01*
X151385755Y-68385316D01*
X151436885Y-68521705D01*
X151457338Y-68548995D01*
X151482184Y-68615500D01*
X151467131Y-68684882D01*
X151416956Y-68735112D01*
X151400740Y-68742540D01*
X151360942Y-68757460D01*
X151315795Y-68774385D01*
X151308609Y-68779771D01*
X151300740Y-68784079D01*
X151299357Y-68781553D01*
X151246558Y-68801279D01*
X151177176Y-68786226D01*
X151171388Y-68782507D01*
X151166393Y-68779772D01*
X151159205Y-68774385D01*
X151022816Y-68723255D01*
X150960634Y-68716500D01*
X149514366Y-68716500D01*
X149452184Y-68723255D01*
X149315795Y-68774385D01*
X149308609Y-68779771D01*
X149300740Y-68784079D01*
X149299357Y-68781553D01*
X149246558Y-68801279D01*
X149177176Y-68786226D01*
X149171388Y-68782507D01*
X149166393Y-68779772D01*
X149159205Y-68774385D01*
X149022816Y-68723255D01*
X148960634Y-68716500D01*
X147514366Y-68716500D01*
X147452184Y-68723255D01*
X147315795Y-68774385D01*
X147308609Y-68779771D01*
X147300740Y-68784079D01*
X147299357Y-68781553D01*
X147246558Y-68801279D01*
X147177176Y-68786226D01*
X147171388Y-68782507D01*
X147166393Y-68779772D01*
X147159205Y-68774385D01*
X147022816Y-68723255D01*
X146960634Y-68716500D01*
X145514366Y-68716500D01*
X145452184Y-68723255D01*
X145315795Y-68774385D01*
X145308609Y-68779771D01*
X145300740Y-68784079D01*
X145299357Y-68781553D01*
X145246558Y-68801279D01*
X145177176Y-68786226D01*
X145171388Y-68782507D01*
X145166393Y-68779772D01*
X145159205Y-68774385D01*
X145022816Y-68723255D01*
X144960634Y-68716500D01*
X144410541Y-68716500D01*
X144342420Y-68696498D01*
X144295927Y-68642842D01*
X144285823Y-68572568D01*
X144315317Y-68507988D01*
X144340645Y-68485664D01*
X146846926Y-66814684D01*
X147268624Y-66533531D01*
X147288107Y-66523367D01*
X147288039Y-66523226D01*
X147292424Y-66521102D01*
X147296956Y-66519325D01*
X147301740Y-66516533D01*
X147303590Y-66515454D01*
X147303593Y-66515452D01*
X147307798Y-66512998D01*
X147314270Y-66507736D01*
X147323944Y-66500609D01*
X147580879Y-66329596D01*
X147836419Y-66122559D01*
X148071474Y-65892528D01*
X148283983Y-65641520D01*
X148337057Y-65565399D01*
X148403055Y-65470740D01*
X148472083Y-65371736D01*
X148478947Y-65359614D01*
X148632665Y-65088117D01*
X148632666Y-65088116D01*
X148634124Y-65085540D01*
X148768686Y-64785443D01*
X148874589Y-64474076D01*
X148925934Y-64258842D01*
X148950220Y-64157037D01*
X148950222Y-64157029D01*
X148950904Y-64154168D01*
X148957470Y-64107749D01*
X148980131Y-63947527D01*
X148996962Y-63828524D01*
X149010721Y-63534968D01*
X149012329Y-63519963D01*
X149012770Y-63517344D01*
X149012770Y-63517342D01*
X149013576Y-63512552D01*
X149013729Y-63500000D01*
X149009773Y-63472376D01*
X149008500Y-63454514D01*
X149008500Y-57551092D01*
X151042000Y-57551092D01*
X151042266Y-57556881D01*
X151055984Y-57706176D01*
X151058082Y-57717497D01*
X151112713Y-57911203D01*
X151116837Y-57921950D01*
X151205859Y-58102466D01*
X151211869Y-58112273D01*
X151332299Y-58273549D01*
X151339989Y-58282089D01*
X151487794Y-58418720D01*
X151496919Y-58425721D01*
X151667144Y-58533125D01*
X151677391Y-58538346D01*
X151864332Y-58612928D01*
X151875369Y-58616197D01*
X151928230Y-58626712D01*
X151941106Y-58625560D01*
X151945067Y-58613294D01*
X152454000Y-58613294D01*
X152457806Y-58626256D01*
X152472722Y-58628192D01*
X152495300Y-58624313D01*
X152506417Y-58621334D01*
X152695252Y-58551669D01*
X152705630Y-58546719D01*
X152878606Y-58443809D01*
X152887915Y-58437045D01*
X153039243Y-58304335D01*
X153047153Y-58296000D01*
X153171764Y-58137931D01*
X153178032Y-58128280D01*
X153271743Y-57950164D01*
X153276152Y-57939521D01*
X153335833Y-57747316D01*
X153338227Y-57736054D01*
X153357563Y-57572678D01*
X153358000Y-57565272D01*
X153358000Y-57272115D01*
X153353525Y-57256876D01*
X153352135Y-57255671D01*
X153344452Y-57254000D01*
X152472115Y-57254000D01*
X152456876Y-57258475D01*
X152455671Y-57259865D01*
X152454000Y-57267548D01*
X152454000Y-58613294D01*
X151945067Y-58613294D01*
X151946000Y-58610404D01*
X151946000Y-57272115D01*
X151941525Y-57256876D01*
X151940135Y-57255671D01*
X151932452Y-57254000D01*
X151060115Y-57254000D01*
X151044876Y-57258475D01*
X151043671Y-57259865D01*
X151042000Y-57267548D01*
X151042000Y-57551092D01*
X149008500Y-57551092D01*
X149008500Y-56727885D01*
X151042000Y-56727885D01*
X151046475Y-56743124D01*
X151047865Y-56744329D01*
X151055548Y-56746000D01*
X151927885Y-56746000D01*
X151943124Y-56741525D01*
X151944329Y-56740135D01*
X151946000Y-56732452D01*
X151946000Y-55386706D01*
X151942194Y-55373744D01*
X151927278Y-55371808D01*
X151904700Y-55375687D01*
X151893583Y-55378666D01*
X151704748Y-55448331D01*
X151694370Y-55453281D01*
X151521394Y-55556191D01*
X151512085Y-55562955D01*
X151360757Y-55695665D01*
X151352847Y-55704000D01*
X151228236Y-55862069D01*
X151221968Y-55871720D01*
X151128257Y-56049836D01*
X151123848Y-56060479D01*
X151064167Y-56252684D01*
X151061773Y-56263946D01*
X151042437Y-56427322D01*
X151042000Y-56434728D01*
X151042000Y-56727885D01*
X149008500Y-56727885D01*
X149008500Y-54382703D01*
X152130743Y-54382703D01*
X152168268Y-54667734D01*
X152244129Y-54945036D01*
X152356923Y-55209476D01*
X152368693Y-55229142D01*
X152436116Y-55341798D01*
X152454000Y-55406504D01*
X152454000Y-56727885D01*
X152458475Y-56743124D01*
X152459865Y-56744329D01*
X152467548Y-56746000D01*
X153339885Y-56746000D01*
X153355124Y-56741525D01*
X153356329Y-56740135D01*
X153358000Y-56732452D01*
X153358000Y-56448908D01*
X153357734Y-56443119D01*
X153350215Y-56361286D01*
X153363900Y-56291621D01*
X153413076Y-56240414D01*
X153482131Y-56223922D01*
X153518987Y-56231431D01*
X153646342Y-56278036D01*
X153650373Y-56279511D01*
X153931264Y-56340755D01*
X153959841Y-56343004D01*
X154154282Y-56358307D01*
X154154291Y-56358307D01*
X154156739Y-56358500D01*
X154312271Y-56358500D01*
X154314407Y-56358354D01*
X154314418Y-56358354D01*
X154522548Y-56344165D01*
X154522554Y-56344164D01*
X154526825Y-56343873D01*
X154531020Y-56343004D01*
X154531022Y-56343004D01*
X154667584Y-56314723D01*
X154808342Y-56285574D01*
X155079343Y-56189607D01*
X155334812Y-56057750D01*
X155338313Y-56055289D01*
X155338317Y-56055287D01*
X155452417Y-55975096D01*
X155570023Y-55892441D01*
X155650227Y-55817911D01*
X155777479Y-55699661D01*
X155777481Y-55699658D01*
X155780622Y-55696740D01*
X155962713Y-55474268D01*
X156112927Y-55229142D01*
X156228483Y-54965898D01*
X156307244Y-54689406D01*
X156347751Y-54404784D01*
X156347845Y-54386951D01*
X156347867Y-54382703D01*
X163560743Y-54382703D01*
X163598268Y-54667734D01*
X163674129Y-54945036D01*
X163786923Y-55209476D01*
X163798693Y-55229142D01*
X163929875Y-55448331D01*
X163934561Y-55456161D01*
X164114313Y-55680528D01*
X164237711Y-55797628D01*
X164315788Y-55871720D01*
X164322851Y-55878423D01*
X164556317Y-56046186D01*
X164560112Y-56048195D01*
X164560113Y-56048196D01*
X164581869Y-56059715D01*
X164810392Y-56180712D01*
X164834699Y-56189607D01*
X165037840Y-56263946D01*
X165080373Y-56279511D01*
X165361264Y-56340755D01*
X165389841Y-56343004D01*
X165584282Y-56358307D01*
X165584291Y-56358307D01*
X165586739Y-56358500D01*
X165742271Y-56358500D01*
X165744407Y-56358354D01*
X165744418Y-56358354D01*
X165952548Y-56344165D01*
X165952554Y-56344164D01*
X165956825Y-56343873D01*
X165961020Y-56343004D01*
X165961022Y-56343004D01*
X166097584Y-56314723D01*
X166238342Y-56285574D01*
X166331220Y-56252684D01*
X166394600Y-56230240D01*
X166465490Y-56226356D01*
X166527227Y-56261414D01*
X166560210Y-56324284D01*
X166561787Y-56363822D01*
X166542437Y-56527322D01*
X166542000Y-56534728D01*
X166542000Y-56827885D01*
X166546475Y-56843124D01*
X166547865Y-56844329D01*
X166555548Y-56846000D01*
X167427885Y-56846000D01*
X167443124Y-56841525D01*
X167444329Y-56840135D01*
X167446000Y-56832452D01*
X167446000Y-56827885D01*
X167954000Y-56827885D01*
X167958475Y-56843124D01*
X167959865Y-56844329D01*
X167967548Y-56846000D01*
X168839885Y-56846000D01*
X168855124Y-56841525D01*
X168856329Y-56840135D01*
X168858000Y-56832452D01*
X168858000Y-56548908D01*
X168857734Y-56543119D01*
X168844016Y-56393824D01*
X168841918Y-56382503D01*
X168787287Y-56188797D01*
X168783163Y-56178050D01*
X168694141Y-55997534D01*
X168688131Y-55987727D01*
X168567701Y-55826451D01*
X168560011Y-55817911D01*
X168412206Y-55681280D01*
X168403081Y-55674279D01*
X168232856Y-55566875D01*
X168222609Y-55561654D01*
X168035668Y-55487072D01*
X168024631Y-55483803D01*
X167971770Y-55473288D01*
X167958894Y-55474440D01*
X167954000Y-55489596D01*
X167954000Y-56827885D01*
X167446000Y-56827885D01*
X167446000Y-55486708D01*
X167442023Y-55473163D01*
X167442024Y-55402166D01*
X167455487Y-55371831D01*
X167540686Y-55232799D01*
X167542927Y-55229142D01*
X167658483Y-54965898D01*
X167737244Y-54689406D01*
X167777751Y-54404784D01*
X167777845Y-54386951D01*
X167779235Y-54121583D01*
X167779235Y-54121576D01*
X167779257Y-54117297D01*
X167741732Y-53832266D01*
X167665871Y-53554964D01*
X167568318Y-53326256D01*
X167562789Y-53313294D01*
X167954000Y-53313294D01*
X167957806Y-53326256D01*
X167972722Y-53328192D01*
X167995300Y-53324313D01*
X168006417Y-53321334D01*
X168195252Y-53251669D01*
X168205630Y-53246719D01*
X168378606Y-53143809D01*
X168387915Y-53137045D01*
X168539243Y-53004335D01*
X168547153Y-52996000D01*
X168671764Y-52837931D01*
X168678032Y-52828280D01*
X168771743Y-52650164D01*
X168776152Y-52639521D01*
X168835833Y-52447316D01*
X168838227Y-52436054D01*
X168857563Y-52272678D01*
X168858000Y-52265272D01*
X168858000Y-50622115D01*
X168853525Y-50606876D01*
X168852135Y-50605671D01*
X168844452Y-50604000D01*
X167972115Y-50604000D01*
X167956876Y-50608475D01*
X167955671Y-50609865D01*
X167954000Y-50617548D01*
X167954000Y-53313294D01*
X167562789Y-53313294D01*
X167554763Y-53294476D01*
X167554761Y-53294472D01*
X167553077Y-53290524D01*
X167463884Y-53141493D01*
X167446000Y-53076787D01*
X167446000Y-50622115D01*
X167441525Y-50606876D01*
X167440135Y-50605671D01*
X167432452Y-50604000D01*
X166560115Y-50604000D01*
X166544876Y-50608475D01*
X166543671Y-50609865D01*
X166542000Y-50617548D01*
X166542000Y-52143541D01*
X166521998Y-52211662D01*
X166468342Y-52258155D01*
X166398068Y-52268259D01*
X166372699Y-52261867D01*
X166263658Y-52221964D01*
X166263656Y-52221963D01*
X166259627Y-52220489D01*
X165978736Y-52159245D01*
X165947685Y-52156801D01*
X165755718Y-52141693D01*
X165755709Y-52141693D01*
X165753261Y-52141500D01*
X165597729Y-52141500D01*
X165595593Y-52141646D01*
X165595582Y-52141646D01*
X165387452Y-52155835D01*
X165387446Y-52155836D01*
X165383175Y-52156127D01*
X165378980Y-52156996D01*
X165378978Y-52156996D01*
X165306816Y-52171940D01*
X165101658Y-52214426D01*
X164830657Y-52310393D01*
X164826848Y-52312359D01*
X164587193Y-52436054D01*
X164575188Y-52442250D01*
X164571687Y-52444711D01*
X164571683Y-52444713D01*
X164561594Y-52451804D01*
X164339977Y-52607559D01*
X164129378Y-52803260D01*
X163947287Y-53025732D01*
X163797073Y-53270858D01*
X163795347Y-53274790D01*
X163795346Y-53274792D01*
X163772755Y-53326256D01*
X163681517Y-53534102D01*
X163602756Y-53810594D01*
X163562249Y-54095216D01*
X163562227Y-54099505D01*
X163562226Y-54099512D01*
X163560765Y-54378417D01*
X163560743Y-54382703D01*
X156347867Y-54382703D01*
X156349235Y-54121583D01*
X156349235Y-54121576D01*
X156349257Y-54117297D01*
X156311732Y-53832266D01*
X156235871Y-53554964D01*
X156138318Y-53326256D01*
X156124763Y-53294476D01*
X156124761Y-53294472D01*
X156123077Y-53290524D01*
X156031222Y-53137045D01*
X155977643Y-53047521D01*
X155977640Y-53047517D01*
X155975439Y-53043839D01*
X155795687Y-52819472D01*
X155672289Y-52702372D01*
X155590258Y-52624527D01*
X155590255Y-52624525D01*
X155587149Y-52621577D01*
X155353683Y-52453814D01*
X155341411Y-52447316D01*
X155285092Y-52417497D01*
X155099608Y-52319288D01*
X154829627Y-52220489D01*
X154548736Y-52159245D01*
X154517685Y-52156801D01*
X154325718Y-52141693D01*
X154325709Y-52141693D01*
X154323261Y-52141500D01*
X154167729Y-52141500D01*
X154165593Y-52141646D01*
X154165582Y-52141646D01*
X153957452Y-52155835D01*
X153957446Y-52155836D01*
X153953175Y-52156127D01*
X153948980Y-52156996D01*
X153948978Y-52156996D01*
X153876816Y-52171940D01*
X153671658Y-52214426D01*
X153637871Y-52226391D01*
X153526060Y-52265985D01*
X153455169Y-52269869D01*
X153393433Y-52234811D01*
X153360450Y-52171940D01*
X153358000Y-52147212D01*
X153358000Y-50622115D01*
X153353525Y-50606876D01*
X153352135Y-50605671D01*
X153344452Y-50604000D01*
X152472115Y-50604000D01*
X152456876Y-50608475D01*
X152455671Y-50609865D01*
X152454000Y-50617548D01*
X152454000Y-53093472D01*
X152435432Y-53159306D01*
X152367073Y-53270858D01*
X152251517Y-53534102D01*
X152172756Y-53810594D01*
X152132249Y-54095216D01*
X152132227Y-54099505D01*
X152132226Y-54099512D01*
X152130765Y-54378417D01*
X152130743Y-54382703D01*
X149008500Y-54382703D01*
X149008500Y-52251092D01*
X151042000Y-52251092D01*
X151042266Y-52256881D01*
X151055984Y-52406176D01*
X151058082Y-52417497D01*
X151112713Y-52611203D01*
X151116837Y-52621950D01*
X151205859Y-52802466D01*
X151211869Y-52812273D01*
X151332299Y-52973549D01*
X151339989Y-52982089D01*
X151487794Y-53118720D01*
X151496919Y-53125721D01*
X151667144Y-53233125D01*
X151677391Y-53238346D01*
X151864332Y-53312928D01*
X151875369Y-53316197D01*
X151928230Y-53326712D01*
X151941106Y-53325560D01*
X151946000Y-53310404D01*
X151946000Y-50622115D01*
X151941525Y-50606876D01*
X151940135Y-50605671D01*
X151932452Y-50604000D01*
X151060115Y-50604000D01*
X151044876Y-50608475D01*
X151043671Y-50609865D01*
X151042000Y-50617548D01*
X151042000Y-52251092D01*
X149008500Y-52251092D01*
X149008500Y-50077885D01*
X151042000Y-50077885D01*
X151046475Y-50093124D01*
X151047865Y-50094329D01*
X151055548Y-50096000D01*
X151927885Y-50096000D01*
X151943124Y-50091525D01*
X151944329Y-50090135D01*
X151946000Y-50082452D01*
X151946000Y-50077885D01*
X152454000Y-50077885D01*
X152458475Y-50093124D01*
X152459865Y-50094329D01*
X152467548Y-50096000D01*
X153339885Y-50096000D01*
X153355124Y-50091525D01*
X153356329Y-50090135D01*
X153358000Y-50082452D01*
X153358000Y-49800000D01*
X163751597Y-49800000D01*
X163771171Y-50023729D01*
X163772595Y-50029042D01*
X163772595Y-50029044D01*
X163786906Y-50082452D01*
X163829297Y-50240660D01*
X163831619Y-50245641D01*
X163831620Y-50245642D01*
X163921884Y-50439214D01*
X163921885Y-50439215D01*
X163924210Y-50444201D01*
X163927366Y-50448708D01*
X163927367Y-50448710D01*
X164037273Y-50605671D01*
X164053026Y-50628169D01*
X164211831Y-50786974D01*
X164216339Y-50790131D01*
X164216342Y-50790133D01*
X164391290Y-50912633D01*
X164395799Y-50915790D01*
X164400781Y-50918113D01*
X164400786Y-50918116D01*
X164594358Y-51008380D01*
X164599340Y-51010703D01*
X164604648Y-51012125D01*
X164604650Y-51012126D01*
X164810956Y-51067405D01*
X164810958Y-51067405D01*
X164816271Y-51068829D01*
X164914186Y-51077396D01*
X164981235Y-51083262D01*
X164981242Y-51083262D01*
X164983959Y-51083500D01*
X165096041Y-51083500D01*
X165098758Y-51083262D01*
X165098765Y-51083262D01*
X165165814Y-51077396D01*
X165263729Y-51068829D01*
X165269042Y-51067405D01*
X165269044Y-51067405D01*
X165475350Y-51012126D01*
X165475352Y-51012125D01*
X165480660Y-51010703D01*
X165485642Y-51008380D01*
X165679214Y-50918116D01*
X165679219Y-50918113D01*
X165684201Y-50915790D01*
X165688710Y-50912633D01*
X165863658Y-50790133D01*
X165863661Y-50790131D01*
X165868169Y-50786974D01*
X166026974Y-50628169D01*
X166042728Y-50605671D01*
X166152633Y-50448710D01*
X166155790Y-50444202D01*
X166158113Y-50439220D01*
X166158116Y-50439215D01*
X166248380Y-50245642D01*
X166248380Y-50245641D01*
X166250703Y-50240660D01*
X166296337Y-50070350D01*
X166333289Y-50009727D01*
X166397149Y-49978706D01*
X166467644Y-49987134D01*
X166522391Y-50032337D01*
X166538940Y-50067463D01*
X166546475Y-50093124D01*
X166547865Y-50094329D01*
X166555548Y-50096000D01*
X167427885Y-50096000D01*
X167443124Y-50091525D01*
X167444329Y-50090135D01*
X167446000Y-50082452D01*
X167446000Y-50077885D01*
X167954000Y-50077885D01*
X167958475Y-50093124D01*
X167959865Y-50094329D01*
X167967548Y-50096000D01*
X168839885Y-50096000D01*
X168855124Y-50091525D01*
X168856329Y-50090135D01*
X168858000Y-50082452D01*
X168858000Y-48448908D01*
X168857734Y-48443119D01*
X168844016Y-48293824D01*
X168841918Y-48282503D01*
X168787287Y-48088797D01*
X168783163Y-48078050D01*
X168694141Y-47897534D01*
X168688131Y-47887727D01*
X168567701Y-47726451D01*
X168560011Y-47717911D01*
X168412206Y-47581280D01*
X168403081Y-47574279D01*
X168232856Y-47466875D01*
X168222609Y-47461654D01*
X168035668Y-47387072D01*
X168024631Y-47383803D01*
X167971770Y-47373288D01*
X167958894Y-47374440D01*
X167954000Y-47389596D01*
X167954000Y-50077885D01*
X167446000Y-50077885D01*
X167446000Y-47386706D01*
X167442194Y-47373744D01*
X167427278Y-47371808D01*
X167404700Y-47375687D01*
X167393583Y-47378666D01*
X167204748Y-47448331D01*
X167194370Y-47453281D01*
X167021394Y-47556191D01*
X167012085Y-47562955D01*
X166860757Y-47695665D01*
X166852847Y-47704000D01*
X166728236Y-47862069D01*
X166721968Y-47871720D01*
X166628257Y-48049836D01*
X166623848Y-48060479D01*
X166564167Y-48252684D01*
X166561773Y-48263946D01*
X166542437Y-48427322D01*
X166542000Y-48434728D01*
X166542000Y-49489410D01*
X166521998Y-49557531D01*
X166468342Y-49604024D01*
X166398068Y-49614128D01*
X166333488Y-49584634D01*
X166294293Y-49522021D01*
X166252126Y-49364650D01*
X166252125Y-49364648D01*
X166250703Y-49359340D01*
X166248380Y-49354358D01*
X166158116Y-49160786D01*
X166158113Y-49160781D01*
X166155790Y-49155799D01*
X166026974Y-48971831D01*
X165868169Y-48813026D01*
X165863661Y-48809869D01*
X165863658Y-48809867D01*
X165688710Y-48687367D01*
X165688708Y-48687366D01*
X165684201Y-48684210D01*
X165679219Y-48681887D01*
X165679214Y-48681884D01*
X165485642Y-48591620D01*
X165485641Y-48591619D01*
X165480660Y-48589297D01*
X165475352Y-48587875D01*
X165475350Y-48587874D01*
X165269044Y-48532595D01*
X165269042Y-48532595D01*
X165263729Y-48531171D01*
X165165814Y-48522604D01*
X165098765Y-48516738D01*
X165098758Y-48516738D01*
X165096041Y-48516500D01*
X164983959Y-48516500D01*
X164981242Y-48516738D01*
X164981235Y-48516738D01*
X164914186Y-48522604D01*
X164816271Y-48531171D01*
X164810958Y-48532595D01*
X164810956Y-48532595D01*
X164604650Y-48587874D01*
X164604648Y-48587875D01*
X164599340Y-48589297D01*
X164594359Y-48591619D01*
X164594358Y-48591620D01*
X164400786Y-48681884D01*
X164400781Y-48681887D01*
X164395799Y-48684210D01*
X164391292Y-48687366D01*
X164391290Y-48687367D01*
X164216342Y-48809867D01*
X164216339Y-48809869D01*
X164211831Y-48813026D01*
X164053026Y-48971831D01*
X163924210Y-49155798D01*
X163921887Y-49160780D01*
X163921884Y-49160785D01*
X163921884Y-49160786D01*
X163829297Y-49359340D01*
X163771171Y-49576271D01*
X163751597Y-49800000D01*
X153358000Y-49800000D01*
X153358000Y-48448908D01*
X153357734Y-48443119D01*
X153344016Y-48293824D01*
X153341918Y-48282503D01*
X153287287Y-48088797D01*
X153283163Y-48078050D01*
X153194141Y-47897534D01*
X153188131Y-47887727D01*
X153067701Y-47726451D01*
X153060011Y-47717911D01*
X152912206Y-47581280D01*
X152903081Y-47574279D01*
X152732856Y-47466875D01*
X152722609Y-47461654D01*
X152535668Y-47387072D01*
X152524631Y-47383803D01*
X152471770Y-47373288D01*
X152458894Y-47374440D01*
X152454000Y-47389596D01*
X152454000Y-50077885D01*
X151946000Y-50077885D01*
X151946000Y-47386706D01*
X151942194Y-47373744D01*
X151927278Y-47371808D01*
X151904700Y-47375687D01*
X151893583Y-47378666D01*
X151704748Y-47448331D01*
X151694370Y-47453281D01*
X151521394Y-47556191D01*
X151512085Y-47562955D01*
X151360757Y-47695665D01*
X151352847Y-47704000D01*
X151228236Y-47862069D01*
X151221968Y-47871720D01*
X151128257Y-48049836D01*
X151123848Y-48060479D01*
X151064167Y-48252684D01*
X151061773Y-48263946D01*
X151042437Y-48427322D01*
X151042000Y-48434728D01*
X151042000Y-50077885D01*
X149008500Y-50077885D01*
X149008500Y-48553250D01*
X149010246Y-48532345D01*
X149012770Y-48517344D01*
X149012770Y-48517341D01*
X149013576Y-48512552D01*
X149013729Y-48500000D01*
X149013040Y-48495186D01*
X149013039Y-48495176D01*
X149012157Y-48489017D01*
X149011206Y-48462172D01*
X149023038Y-48296723D01*
X149025596Y-48278934D01*
X149066999Y-48088607D01*
X149072063Y-48071359D01*
X149140136Y-47888850D01*
X149147604Y-47872498D01*
X149240952Y-47701542D01*
X149250672Y-47686418D01*
X149367402Y-47530486D01*
X149379175Y-47516900D01*
X149516900Y-47379175D01*
X149530486Y-47367402D01*
X149686418Y-47250672D01*
X149701542Y-47240952D01*
X149872498Y-47147604D01*
X149888850Y-47140136D01*
X150071359Y-47072063D01*
X150088608Y-47066999D01*
X150278936Y-47025596D01*
X150296715Y-47023039D01*
X150458605Y-47011460D01*
X150476565Y-47012207D01*
X150484845Y-47012308D01*
X150493724Y-47013691D01*
X150525286Y-47009564D01*
X150541621Y-47008500D01*
X169450633Y-47008500D01*
X169470018Y-47010000D01*
G37*
G04 #@! TD.AperFunction*
M02*
