G04 #@! TF.GenerationSoftware,KiCad,Pcbnew,(6.0.4-0)*
G04 #@! TF.CreationDate,2022-05-30T10:48:12+01:00*
G04 #@! TF.ProjectId,InterlockSplitterCombiner06,496e7465-726c-46f6-936b-53706c697474,rev?*
G04 #@! TF.SameCoordinates,Original*
G04 #@! TF.FileFunction,Legend,Bot*
G04 #@! TF.FilePolarity,Positive*
%FSLAX46Y46*%
G04 Gerber Fmt 4.6, Leading zero omitted, Abs format (unit mm)*
G04 Created by KiCad (PCBNEW (6.0.4-0)) date 2022-05-30 10:48:12*
%MOMM*%
%LPD*%
G01*
G04 APERTURE LIST*
%ADD10C,0.300000*%
%ADD11C,0.100000*%
%ADD12C,0.010000*%
%ADD13C,0.120000*%
G04 APERTURE END LIST*
D10*
X155300000Y-50964285D02*
X155228571Y-50892857D01*
X155014285Y-50821428D01*
X154871428Y-50821428D01*
X154657142Y-50892857D01*
X154514285Y-51035714D01*
X154442857Y-51178571D01*
X154371428Y-51464285D01*
X154371428Y-51678571D01*
X154442857Y-51964285D01*
X154514285Y-52107142D01*
X154657142Y-52250000D01*
X154871428Y-52321428D01*
X155014285Y-52321428D01*
X155228571Y-52250000D01*
X155300000Y-52178571D01*
X156228571Y-52321428D02*
X156514285Y-52321428D01*
X156657142Y-52250000D01*
X156800000Y-52107142D01*
X156871428Y-51821428D01*
X156871428Y-51321428D01*
X156800000Y-51035714D01*
X156657142Y-50892857D01*
X156514285Y-50821428D01*
X156228571Y-50821428D01*
X156085714Y-50892857D01*
X155942857Y-51035714D01*
X155871428Y-51321428D01*
X155871428Y-51821428D01*
X155942857Y-52107142D01*
X156085714Y-52250000D01*
X156228571Y-52321428D01*
X157514285Y-50821428D02*
X157514285Y-52321428D01*
X158014285Y-51250000D01*
X158514285Y-52321428D01*
X158514285Y-50821428D01*
X159728571Y-51607142D02*
X159942857Y-51535714D01*
X160014285Y-51464285D01*
X160085714Y-51321428D01*
X160085714Y-51107142D01*
X160014285Y-50964285D01*
X159942857Y-50892857D01*
X159800000Y-50821428D01*
X159228571Y-50821428D01*
X159228571Y-52321428D01*
X159728571Y-52321428D01*
X159871428Y-52250000D01*
X159942857Y-52178571D01*
X160014285Y-52035714D01*
X160014285Y-51892857D01*
X159942857Y-51750000D01*
X159871428Y-51678571D01*
X159728571Y-51607142D01*
X159228571Y-51607142D01*
X160728571Y-50821428D02*
X160728571Y-52321428D01*
X161442857Y-50821428D02*
X161442857Y-52321428D01*
X162300000Y-50821428D01*
X162300000Y-52321428D01*
X163014285Y-51607142D02*
X163514285Y-51607142D01*
X163728571Y-50821428D02*
X163014285Y-50821428D01*
X163014285Y-52321428D01*
X163728571Y-52321428D01*
X164371428Y-50821428D02*
X164371428Y-52321428D01*
X164728571Y-52321428D01*
X164942857Y-52250000D01*
X165085714Y-52107142D01*
X165157142Y-51964285D01*
X165228571Y-51678571D01*
X165228571Y-51464285D01*
X165157142Y-51178571D01*
X165085714Y-51035714D01*
X164942857Y-50892857D01*
X164728571Y-50821428D01*
X164371428Y-50821428D01*
X174435714Y-84099642D02*
X174221428Y-84171071D01*
X173864285Y-84171071D01*
X173721428Y-84099642D01*
X173650000Y-84028214D01*
X173578571Y-83885357D01*
X173578571Y-83742500D01*
X173650000Y-83599642D01*
X173721428Y-83528214D01*
X173864285Y-83456785D01*
X174150000Y-83385357D01*
X174292857Y-83313928D01*
X174364285Y-83242500D01*
X174435714Y-83099642D01*
X174435714Y-82956785D01*
X174364285Y-82813928D01*
X174292857Y-82742500D01*
X174150000Y-82671071D01*
X173792857Y-82671071D01*
X173578571Y-82742500D01*
X173150000Y-82671071D02*
X172292857Y-82671071D01*
X172721428Y-84171071D02*
X172721428Y-82671071D01*
X171507142Y-82671071D02*
X171221428Y-82671071D01*
X171078571Y-82742500D01*
X170935714Y-82885357D01*
X170864285Y-83171071D01*
X170864285Y-83671071D01*
X170935714Y-83956785D01*
X171078571Y-84099642D01*
X171221428Y-84171071D01*
X171507142Y-84171071D01*
X171650000Y-84099642D01*
X171792857Y-83956785D01*
X171864285Y-83671071D01*
X171864285Y-83171071D01*
X171792857Y-82885357D01*
X171650000Y-82742500D01*
X171507142Y-82671071D01*
X170221428Y-84171071D02*
X170221428Y-82671071D01*
X169650000Y-82671071D01*
X169507142Y-82742500D01*
X169435714Y-82813928D01*
X169364285Y-82956785D01*
X169364285Y-83171071D01*
X169435714Y-83313928D01*
X169507142Y-83385357D01*
X169650000Y-83456785D01*
X170221428Y-83456785D01*
X176042857Y-85586071D02*
X176042857Y-86586071D01*
X176400000Y-85014642D02*
X176757142Y-86086071D01*
X175828571Y-86086071D01*
X173400000Y-85086071D02*
X174114285Y-85086071D01*
X174185714Y-85800357D01*
X174114285Y-85728928D01*
X173971428Y-85657500D01*
X173614285Y-85657500D01*
X173471428Y-85728928D01*
X173400000Y-85800357D01*
X173328571Y-85943214D01*
X173328571Y-86300357D01*
X173400000Y-86443214D01*
X173471428Y-86514642D01*
X173614285Y-86586071D01*
X173971428Y-86586071D01*
X174114285Y-86514642D01*
X174185714Y-86443214D01*
X171685714Y-85086071D02*
X170685714Y-85086071D01*
X171328571Y-86586071D01*
X168757142Y-85728928D02*
X168900000Y-85657500D01*
X168971428Y-85586071D01*
X169042857Y-85443214D01*
X169042857Y-85371785D01*
X168971428Y-85228928D01*
X168900000Y-85157500D01*
X168757142Y-85086071D01*
X168471428Y-85086071D01*
X168328571Y-85157500D01*
X168257142Y-85228928D01*
X168185714Y-85371785D01*
X168185714Y-85443214D01*
X168257142Y-85586071D01*
X168328571Y-85657500D01*
X168471428Y-85728928D01*
X168757142Y-85728928D01*
X168900000Y-85800357D01*
X168971428Y-85871785D01*
X169042857Y-86014642D01*
X169042857Y-86300357D01*
X168971428Y-86443214D01*
X168900000Y-86514642D01*
X168757142Y-86586071D01*
X168471428Y-86586071D01*
X168328571Y-86514642D01*
X168257142Y-86443214D01*
X168185714Y-86300357D01*
X168185714Y-86014642D01*
X168257142Y-85871785D01*
X168328571Y-85800357D01*
X168471428Y-85728928D01*
D11*
X169850000Y-66316666D02*
X169850000Y-65616666D01*
X169516666Y-66316666D02*
X169516666Y-65616666D01*
X169116666Y-66316666D01*
X169116666Y-65616666D01*
X168883333Y-65616666D02*
X168483333Y-65616666D01*
X168683333Y-66316666D02*
X168683333Y-65616666D01*
X168250000Y-65950000D02*
X168016666Y-65950000D01*
X167916666Y-66316666D02*
X168250000Y-66316666D01*
X168250000Y-65616666D01*
X167916666Y-65616666D01*
X167216666Y-66316666D02*
X167450000Y-65983333D01*
X167616666Y-66316666D02*
X167616666Y-65616666D01*
X167350000Y-65616666D01*
X167283333Y-65650000D01*
X167250000Y-65683333D01*
X167216666Y-65750000D01*
X167216666Y-65850000D01*
X167250000Y-65916666D01*
X167283333Y-65950000D01*
X167350000Y-65983333D01*
X167616666Y-65983333D01*
X166583333Y-66316666D02*
X166916666Y-66316666D01*
X166916666Y-65616666D01*
X166216666Y-65616666D02*
X166083333Y-65616666D01*
X166016666Y-65650000D01*
X165950000Y-65716666D01*
X165916666Y-65850000D01*
X165916666Y-66083333D01*
X165950000Y-66216666D01*
X166016666Y-66283333D01*
X166083333Y-66316666D01*
X166216666Y-66316666D01*
X166283333Y-66283333D01*
X166350000Y-66216666D01*
X166383333Y-66083333D01*
X166383333Y-65850000D01*
X166350000Y-65716666D01*
X166283333Y-65650000D01*
X166216666Y-65616666D01*
X165216666Y-66250000D02*
X165250000Y-66283333D01*
X165350000Y-66316666D01*
X165416666Y-66316666D01*
X165516666Y-66283333D01*
X165583333Y-66216666D01*
X165616666Y-66150000D01*
X165650000Y-66016666D01*
X165650000Y-65916666D01*
X165616666Y-65783333D01*
X165583333Y-65716666D01*
X165516666Y-65650000D01*
X165416666Y-65616666D01*
X165350000Y-65616666D01*
X165250000Y-65650000D01*
X165216666Y-65683333D01*
X164916666Y-66316666D02*
X164916666Y-65616666D01*
X164516666Y-66316666D02*
X164816666Y-65916666D01*
X164516666Y-65616666D02*
X164916666Y-66016666D01*
X163716666Y-66283333D02*
X163616666Y-66316666D01*
X163450000Y-66316666D01*
X163383333Y-66283333D01*
X163350000Y-66250000D01*
X163316666Y-66183333D01*
X163316666Y-66116666D01*
X163350000Y-66050000D01*
X163383333Y-66016666D01*
X163450000Y-65983333D01*
X163583333Y-65950000D01*
X163650000Y-65916666D01*
X163683333Y-65883333D01*
X163716666Y-65816666D01*
X163716666Y-65750000D01*
X163683333Y-65683333D01*
X163650000Y-65650000D01*
X163583333Y-65616666D01*
X163416666Y-65616666D01*
X163316666Y-65650000D01*
X163016666Y-66316666D02*
X163016666Y-65616666D01*
X162750000Y-65616666D01*
X162683333Y-65650000D01*
X162650000Y-65683333D01*
X162616666Y-65750000D01*
X162616666Y-65850000D01*
X162650000Y-65916666D01*
X162683333Y-65950000D01*
X162750000Y-65983333D01*
X163016666Y-65983333D01*
X161983333Y-66316666D02*
X162316666Y-66316666D01*
X162316666Y-65616666D01*
X161750000Y-66316666D02*
X161750000Y-65616666D01*
X161516666Y-65616666D02*
X161116666Y-65616666D01*
X161316666Y-66316666D02*
X161316666Y-65616666D01*
X160983333Y-65616666D02*
X160583333Y-65616666D01*
X160783333Y-66316666D02*
X160783333Y-65616666D01*
X160350000Y-65950000D02*
X160116666Y-65950000D01*
X160016666Y-66316666D02*
X160350000Y-66316666D01*
X160350000Y-65616666D01*
X160016666Y-65616666D01*
X159316666Y-66316666D02*
X159550000Y-65983333D01*
X159716666Y-66316666D02*
X159716666Y-65616666D01*
X159450000Y-65616666D01*
X159383333Y-65650000D01*
X159350000Y-65683333D01*
X159316666Y-65750000D01*
X159316666Y-65850000D01*
X159350000Y-65916666D01*
X159383333Y-65950000D01*
X159450000Y-65983333D01*
X159716666Y-65983333D01*
X158516666Y-65583333D02*
X159116666Y-66483333D01*
X157883333Y-66250000D02*
X157916666Y-66283333D01*
X158016666Y-66316666D01*
X158083333Y-66316666D01*
X158183333Y-66283333D01*
X158250000Y-66216666D01*
X158283333Y-66150000D01*
X158316666Y-66016666D01*
X158316666Y-65916666D01*
X158283333Y-65783333D01*
X158250000Y-65716666D01*
X158183333Y-65650000D01*
X158083333Y-65616666D01*
X158016666Y-65616666D01*
X157916666Y-65650000D01*
X157883333Y-65683333D01*
X157450000Y-65616666D02*
X157316666Y-65616666D01*
X157250000Y-65650000D01*
X157183333Y-65716666D01*
X157150000Y-65850000D01*
X157150000Y-66083333D01*
X157183333Y-66216666D01*
X157250000Y-66283333D01*
X157316666Y-66316666D01*
X157450000Y-66316666D01*
X157516666Y-66283333D01*
X157583333Y-66216666D01*
X157616666Y-66083333D01*
X157616666Y-65850000D01*
X157583333Y-65716666D01*
X157516666Y-65650000D01*
X157450000Y-65616666D01*
X156850000Y-66316666D02*
X156850000Y-65616666D01*
X156616666Y-66116666D01*
X156383333Y-65616666D01*
X156383333Y-66316666D01*
X155816666Y-65950000D02*
X155716666Y-65983333D01*
X155683333Y-66016666D01*
X155650000Y-66083333D01*
X155650000Y-66183333D01*
X155683333Y-66250000D01*
X155716666Y-66283333D01*
X155783333Y-66316666D01*
X156050000Y-66316666D01*
X156050000Y-65616666D01*
X155816666Y-65616666D01*
X155750000Y-65650000D01*
X155716666Y-65683333D01*
X155683333Y-65750000D01*
X155683333Y-65816666D01*
X155716666Y-65883333D01*
X155750000Y-65916666D01*
X155816666Y-65950000D01*
X156050000Y-65950000D01*
X155350000Y-66316666D02*
X155350000Y-65616666D01*
X155016666Y-66316666D02*
X155016666Y-65616666D01*
X154616666Y-66316666D01*
X154616666Y-65616666D01*
X154283333Y-65950000D02*
X154050000Y-65950000D01*
X153950000Y-66316666D02*
X154283333Y-66316666D01*
X154283333Y-65616666D01*
X153950000Y-65616666D01*
X153250000Y-66316666D02*
X153483333Y-65983333D01*
X153650000Y-66316666D02*
X153650000Y-65616666D01*
X153383333Y-65616666D01*
X153316666Y-65650000D01*
X153283333Y-65683333D01*
X153250000Y-65750000D01*
X153250000Y-65850000D01*
X153283333Y-65916666D01*
X153316666Y-65950000D01*
X153383333Y-65983333D01*
X153650000Y-65983333D01*
X152483333Y-65850000D02*
X152316666Y-66316666D01*
X152150000Y-65850000D01*
X151583333Y-65616666D02*
X151716666Y-65616666D01*
X151783333Y-65650000D01*
X151816666Y-65683333D01*
X151883333Y-65783333D01*
X151916666Y-65916666D01*
X151916666Y-66183333D01*
X151883333Y-66250000D01*
X151850000Y-66283333D01*
X151783333Y-66316666D01*
X151650000Y-66316666D01*
X151583333Y-66283333D01*
X151550000Y-66250000D01*
X151516666Y-66183333D01*
X151516666Y-66016666D01*
X151550000Y-65950000D01*
X151583333Y-65916666D01*
X151650000Y-65883333D01*
X151783333Y-65883333D01*
X151850000Y-65916666D01*
X151883333Y-65950000D01*
X151916666Y-66016666D01*
X151216666Y-66250000D02*
X151183333Y-66283333D01*
X151216666Y-66316666D01*
X151250000Y-66283333D01*
X151216666Y-66250000D01*
X151216666Y-66316666D01*
X150750000Y-65616666D02*
X150683333Y-65616666D01*
X150616666Y-65650000D01*
X150583333Y-65683333D01*
X150550000Y-65750000D01*
X150516666Y-65883333D01*
X150516666Y-66050000D01*
X150550000Y-66183333D01*
X150583333Y-66250000D01*
X150616666Y-66283333D01*
X150683333Y-66316666D01*
X150750000Y-66316666D01*
X150816666Y-66283333D01*
X150850000Y-66250000D01*
X150883333Y-66183333D01*
X150916666Y-66050000D01*
X150916666Y-65883333D01*
X150883333Y-65750000D01*
X150850000Y-65683333D01*
X150816666Y-65650000D01*
X150750000Y-65616666D01*
D10*
X149278571Y-84171071D02*
X149278571Y-82671071D01*
X148421428Y-84171071D01*
X148421428Y-82671071D01*
X147707142Y-83385357D02*
X147207142Y-83385357D01*
X146992857Y-84171071D02*
X147707142Y-84171071D01*
X147707142Y-82671071D01*
X146992857Y-82671071D01*
X146564285Y-82671071D02*
X145707142Y-82671071D01*
X146135714Y-84171071D02*
X146135714Y-82671071D01*
X151028571Y-86586071D02*
X151885714Y-86586071D01*
X151457142Y-86586071D02*
X151457142Y-85086071D01*
X151600000Y-85300357D01*
X151742857Y-85443214D01*
X151885714Y-85514642D01*
X149314285Y-85228928D02*
X149242857Y-85157500D01*
X149100000Y-85086071D01*
X148742857Y-85086071D01*
X148600000Y-85157500D01*
X148528571Y-85228928D01*
X148457142Y-85371785D01*
X148457142Y-85514642D01*
X148528571Y-85728928D01*
X149385714Y-86586071D01*
X148457142Y-86586071D01*
X146814285Y-85086071D02*
X145885714Y-85086071D01*
X146385714Y-85657500D01*
X146171428Y-85657500D01*
X146028571Y-85728928D01*
X145957142Y-85800357D01*
X145885714Y-85943214D01*
X145885714Y-86300357D01*
X145957142Y-86443214D01*
X146028571Y-86514642D01*
X146171428Y-86586071D01*
X146600000Y-86586071D01*
X146742857Y-86514642D01*
X146814285Y-86443214D01*
X143457142Y-85086071D02*
X143742857Y-85086071D01*
X143885714Y-85157500D01*
X143957142Y-85228928D01*
X144100000Y-85443214D01*
X144171428Y-85728928D01*
X144171428Y-86300357D01*
X144100000Y-86443214D01*
X144028571Y-86514642D01*
X143885714Y-86586071D01*
X143600000Y-86586071D01*
X143457142Y-86514642D01*
X143385714Y-86443214D01*
X143314285Y-86300357D01*
X143314285Y-85943214D01*
X143385714Y-85800357D01*
X143457142Y-85728928D01*
X143600000Y-85657500D01*
X143885714Y-85657500D01*
X144028571Y-85728928D01*
X144100000Y-85800357D01*
X144171428Y-85943214D01*
G36*
X163498701Y-77661842D02*
G01*
X163498355Y-77867683D01*
X163497931Y-78053235D01*
X163497424Y-78219551D01*
X163496827Y-78367688D01*
X163496132Y-78498702D01*
X163495333Y-78613646D01*
X163494423Y-78713577D01*
X163493395Y-78799549D01*
X163492243Y-78872618D01*
X163490959Y-78933839D01*
X163489537Y-78984268D01*
X163487970Y-79024959D01*
X163486250Y-79056968D01*
X163484372Y-79081351D01*
X163482328Y-79099161D01*
X163480111Y-79111456D01*
X163477715Y-79119289D01*
X163459594Y-79156290D01*
X163408624Y-79219612D01*
X163337278Y-79265219D01*
X163335281Y-79266117D01*
X163327402Y-79269140D01*
X163317396Y-79271911D01*
X163304075Y-79274441D01*
X163286254Y-79276743D01*
X163262747Y-79278825D01*
X163232368Y-79280700D01*
X163193930Y-79282379D01*
X163146248Y-79283873D01*
X163088135Y-79285192D01*
X163018405Y-79286348D01*
X162935872Y-79287353D01*
X162839351Y-79288216D01*
X162727654Y-79288949D01*
X162599596Y-79289564D01*
X162453991Y-79290071D01*
X162289652Y-79290482D01*
X162105394Y-79290806D01*
X161900030Y-79291057D01*
X161672375Y-79291244D01*
X161421242Y-79291378D01*
X161145445Y-79291472D01*
X160843798Y-79291535D01*
X160515114Y-79291579D01*
X157749395Y-79291889D01*
X157124920Y-78667532D01*
X156500444Y-78043175D01*
X156500444Y-76229778D01*
X157502749Y-76229778D01*
X157507440Y-76275063D01*
X157533949Y-76333246D01*
X157585765Y-76381049D01*
X157587897Y-76382482D01*
X157602332Y-76391497D01*
X157617807Y-76398552D01*
X157637718Y-76403886D01*
X157665464Y-76407740D01*
X157704443Y-76410355D01*
X157758052Y-76411970D01*
X157829690Y-76412826D01*
X157922754Y-76413164D01*
X158040642Y-76413223D01*
X158447778Y-76413223D01*
X158447778Y-77005889D01*
X158214244Y-77005889D01*
X158145492Y-77006207D01*
X158062589Y-77008319D01*
X158000821Y-77013223D01*
X157955944Y-77021854D01*
X157923715Y-77035147D01*
X157899890Y-77054037D01*
X157880224Y-77079458D01*
X157854074Y-77136540D01*
X157848974Y-77204509D01*
X157870446Y-77270478D01*
X157917890Y-77330445D01*
X157918424Y-77330937D01*
X157933190Y-77343564D01*
X157948980Y-77352793D01*
X157970327Y-77359259D01*
X158001763Y-77363594D01*
X158047821Y-77366434D01*
X158113033Y-77368411D01*
X158201931Y-77370160D01*
X158447778Y-77374597D01*
X158447778Y-78007778D01*
X158052213Y-78007778D01*
X157948519Y-78007978D01*
X157845650Y-78008836D01*
X157765356Y-78010503D01*
X157704542Y-78013121D01*
X157660112Y-78016832D01*
X157628971Y-78021776D01*
X157608022Y-78028096D01*
X157581174Y-78042389D01*
X157536367Y-78086487D01*
X157510406Y-78143253D01*
X157504441Y-78206037D01*
X157519619Y-78268190D01*
X157557090Y-78323061D01*
X157601626Y-78367612D01*
X158141119Y-78371358D01*
X158189824Y-78371693D01*
X158318908Y-78372489D01*
X158423595Y-78372872D01*
X158506756Y-78372718D01*
X158571261Y-78371907D01*
X158619982Y-78370315D01*
X158655791Y-78367819D01*
X158681558Y-78364298D01*
X158700155Y-78359628D01*
X158714452Y-78353688D01*
X158727321Y-78346355D01*
X158737458Y-78340187D01*
X158752294Y-78330679D01*
X158765098Y-78320194D01*
X158776019Y-78306787D01*
X158785208Y-78288511D01*
X158792813Y-78263420D01*
X158798984Y-78229569D01*
X158803870Y-78185011D01*
X158807622Y-78127800D01*
X158810388Y-78055989D01*
X158812318Y-77967633D01*
X158813562Y-77860786D01*
X158814270Y-77733501D01*
X158814590Y-77583832D01*
X158814672Y-77409833D01*
X158814667Y-77209558D01*
X158814676Y-77067833D01*
X158814651Y-76886155D01*
X158814439Y-76729398D01*
X158813886Y-76595615D01*
X158812835Y-76482857D01*
X158811133Y-76389176D01*
X158808623Y-76312623D01*
X158805150Y-76251250D01*
X158803103Y-76229778D01*
X159379527Y-76229778D01*
X159384218Y-76275063D01*
X159410727Y-76333246D01*
X159462542Y-76381049D01*
X159464675Y-76382482D01*
X159479110Y-76391497D01*
X159494585Y-76398552D01*
X159514496Y-76403886D01*
X159542242Y-76407740D01*
X159581221Y-76410355D01*
X159634830Y-76411970D01*
X159706468Y-76412826D01*
X159799532Y-76413164D01*
X159917420Y-76413223D01*
X160324555Y-76413223D01*
X160324555Y-77005889D01*
X160091021Y-77005889D01*
X160022270Y-77006207D01*
X159939367Y-77008319D01*
X159877599Y-77013223D01*
X159832722Y-77021854D01*
X159800493Y-77035147D01*
X159776667Y-77054037D01*
X159765994Y-77067833D01*
X159757002Y-77079458D01*
X159730852Y-77136540D01*
X159725751Y-77204509D01*
X159747224Y-77270478D01*
X159794668Y-77330445D01*
X159795202Y-77330937D01*
X159809968Y-77343564D01*
X159825758Y-77352793D01*
X159847105Y-77359259D01*
X159878541Y-77363594D01*
X159924599Y-77366434D01*
X159989810Y-77368411D01*
X160078709Y-77370160D01*
X160324555Y-77374597D01*
X160324555Y-78007778D01*
X159928991Y-78007778D01*
X159825297Y-78007978D01*
X159722427Y-78008836D01*
X159642134Y-78010503D01*
X159581320Y-78013121D01*
X159536890Y-78016832D01*
X159505749Y-78021776D01*
X159484800Y-78028096D01*
X159457952Y-78042389D01*
X159413144Y-78086487D01*
X159387184Y-78143253D01*
X159381219Y-78206037D01*
X159396397Y-78268190D01*
X159433868Y-78323061D01*
X159478404Y-78367612D01*
X160017896Y-78371358D01*
X160066602Y-78371693D01*
X160195686Y-78372489D01*
X160300373Y-78372872D01*
X160383533Y-78372718D01*
X160448039Y-78371907D01*
X160496760Y-78370315D01*
X160532569Y-78367819D01*
X160558336Y-78364298D01*
X160576932Y-78359628D01*
X160591230Y-78353688D01*
X160604099Y-78346355D01*
X160614236Y-78340187D01*
X160629072Y-78330679D01*
X160641876Y-78320194D01*
X160652797Y-78306787D01*
X160661986Y-78288511D01*
X160669590Y-78263420D01*
X160675761Y-78229569D01*
X160678342Y-78206037D01*
X161116885Y-78206037D01*
X161132064Y-78268190D01*
X161169534Y-78323061D01*
X161214071Y-78367612D01*
X161753563Y-78371358D01*
X161802269Y-78371693D01*
X161931353Y-78372489D01*
X162036039Y-78372872D01*
X162119200Y-78372718D01*
X162183705Y-78371907D01*
X162232427Y-78370315D01*
X162268235Y-78367819D01*
X162294002Y-78364298D01*
X162312599Y-78359628D01*
X162326896Y-78353688D01*
X162339766Y-78346355D01*
X162349784Y-78340259D01*
X162364642Y-78330745D01*
X162377465Y-78320267D01*
X162388402Y-78306880D01*
X162397604Y-78288635D01*
X162405221Y-78263586D01*
X162411401Y-78229786D01*
X162416295Y-78185287D01*
X162420053Y-78128142D01*
X162422824Y-78056405D01*
X162424758Y-77968128D01*
X162426004Y-77861365D01*
X162426713Y-77734167D01*
X162427034Y-77584588D01*
X162427117Y-77410682D01*
X162427111Y-77210500D01*
X162427038Y-77014168D01*
X162426792Y-76842125D01*
X162426337Y-76694520D01*
X162425636Y-76569451D01*
X162424652Y-76465016D01*
X162423350Y-76379315D01*
X162421692Y-76310445D01*
X162419642Y-76256506D01*
X162417164Y-76215596D01*
X162414220Y-76185812D01*
X162410776Y-76165255D01*
X162406794Y-76152023D01*
X162392495Y-76125167D01*
X162348395Y-76080361D01*
X162291629Y-76054403D01*
X162228846Y-76048441D01*
X162166695Y-76063624D01*
X162111828Y-76101098D01*
X162067278Y-76145643D01*
X162063490Y-77067833D01*
X162063454Y-77076711D01*
X162059631Y-78007778D01*
X161664362Y-78007778D01*
X161561102Y-78007976D01*
X161458192Y-78008833D01*
X161377866Y-78010499D01*
X161317027Y-78013117D01*
X161272579Y-78016828D01*
X161241424Y-78021774D01*
X161220467Y-78028096D01*
X161193619Y-78042389D01*
X161148811Y-78086487D01*
X161122850Y-78143253D01*
X161116885Y-78206037D01*
X160678342Y-78206037D01*
X160680648Y-78185011D01*
X160684399Y-78127800D01*
X160687166Y-78055989D01*
X160689096Y-77967633D01*
X160690340Y-77860786D01*
X160691048Y-77733501D01*
X160691368Y-77583832D01*
X160691450Y-77409833D01*
X160691444Y-77209558D01*
X160691454Y-77067833D01*
X160691429Y-76886155D01*
X160691217Y-76729398D01*
X160690663Y-76595615D01*
X160689613Y-76482857D01*
X160687911Y-76389176D01*
X160685401Y-76312623D01*
X160681928Y-76251250D01*
X160677337Y-76203109D01*
X160671473Y-76166251D01*
X160664180Y-76138728D01*
X160655304Y-76118592D01*
X160644688Y-76103893D01*
X160632177Y-76092685D01*
X160617617Y-76083017D01*
X160600852Y-76072943D01*
X160591201Y-76067580D01*
X160576440Y-76061697D01*
X160556652Y-76057013D01*
X160528938Y-76053392D01*
X160490398Y-76050698D01*
X160438134Y-76048796D01*
X160369245Y-76047549D01*
X160280832Y-76046823D01*
X160169995Y-76046480D01*
X160033837Y-76046386D01*
X159961471Y-76046384D01*
X159839470Y-76046469D01*
X159741280Y-76046811D01*
X159663982Y-76047574D01*
X159604655Y-76048923D01*
X159560379Y-76051021D01*
X159528232Y-76054034D01*
X159505296Y-76058125D01*
X159488649Y-76063458D01*
X159475371Y-76070197D01*
X159462542Y-76078507D01*
X159425859Y-76108615D01*
X159390747Y-76162717D01*
X159379527Y-76229778D01*
X158803103Y-76229778D01*
X158800560Y-76203109D01*
X158794695Y-76166251D01*
X158787403Y-76138728D01*
X158778526Y-76118592D01*
X158767910Y-76103893D01*
X158755399Y-76092685D01*
X158740839Y-76083017D01*
X158724074Y-76072943D01*
X158714423Y-76067580D01*
X158699662Y-76061697D01*
X158679874Y-76057013D01*
X158652160Y-76053392D01*
X158613621Y-76050698D01*
X158561356Y-76048796D01*
X158492467Y-76047549D01*
X158404054Y-76046823D01*
X158293218Y-76046480D01*
X158157059Y-76046386D01*
X158084693Y-76046384D01*
X157962692Y-76046469D01*
X157864503Y-76046811D01*
X157787205Y-76047574D01*
X157727877Y-76048923D01*
X157683601Y-76051021D01*
X157651455Y-76054034D01*
X157628518Y-76058125D01*
X157611871Y-76063458D01*
X157598594Y-76070197D01*
X157585765Y-76078507D01*
X157549081Y-76108615D01*
X157513969Y-76162717D01*
X157502749Y-76229778D01*
X156500444Y-76229778D01*
X156500444Y-75238079D01*
X156500450Y-75043434D01*
X156500488Y-74725363D01*
X156500496Y-74697204D01*
X157489462Y-74697204D01*
X157490724Y-74800293D01*
X157491797Y-74845978D01*
X157494077Y-74918932D01*
X157497245Y-74972110D01*
X157502145Y-75011141D01*
X157509623Y-75041652D01*
X157520525Y-75069272D01*
X157535697Y-75099628D01*
X157551890Y-75128302D01*
X157625899Y-75224466D01*
X157719902Y-75304788D01*
X157829410Y-75365962D01*
X157949932Y-75404680D01*
X157955795Y-75405873D01*
X158016647Y-75414381D01*
X158100048Y-75420370D01*
X158207860Y-75423937D01*
X158341944Y-75425178D01*
X158437945Y-75424896D01*
X158528233Y-75423172D01*
X158597490Y-75419163D01*
X158649601Y-75412052D01*
X158688450Y-75401021D01*
X158717923Y-75385251D01*
X158741902Y-75363924D01*
X158764275Y-75336222D01*
X158767829Y-75331227D01*
X158772888Y-75322627D01*
X158777250Y-75311521D01*
X158780974Y-75295931D01*
X158784122Y-75273878D01*
X158786403Y-75247464D01*
X159364341Y-75247464D01*
X159378369Y-75307329D01*
X159413084Y-75359523D01*
X159468241Y-75398022D01*
X159474244Y-75400666D01*
X159492320Y-75407339D01*
X159513843Y-75412670D01*
X159541910Y-75416808D01*
X159579619Y-75419907D01*
X159630065Y-75422118D01*
X159696346Y-75423592D01*
X159781559Y-75424481D01*
X159888800Y-75424938D01*
X160021167Y-75425113D01*
X160112629Y-75425130D01*
X160236082Y-75424812D01*
X160336069Y-75423704D01*
X160415508Y-75421387D01*
X160477312Y-75417443D01*
X160524396Y-75411456D01*
X160559676Y-75403006D01*
X160586067Y-75391675D01*
X160606483Y-75377047D01*
X160623840Y-75358702D01*
X160641052Y-75336222D01*
X160644606Y-75331227D01*
X160649666Y-75322627D01*
X160654028Y-75311521D01*
X160657752Y-75295931D01*
X160660900Y-75273878D01*
X160663533Y-75243385D01*
X160665711Y-75202474D01*
X160667495Y-75149165D01*
X160668947Y-75081482D01*
X160670126Y-74997446D01*
X160671094Y-74895078D01*
X160671912Y-74772401D01*
X160672640Y-74627436D01*
X160673340Y-74458206D01*
X160674071Y-74262731D01*
X160676273Y-73662706D01*
X161247282Y-73662706D01*
X161251804Y-73693671D01*
X161263769Y-73729179D01*
X161266738Y-73736552D01*
X161305332Y-73795269D01*
X161360611Y-73832128D01*
X161429451Y-73844948D01*
X161452523Y-73844044D01*
X161515794Y-73828146D01*
X161564148Y-73791067D01*
X161599307Y-73731040D01*
X161622996Y-73646296D01*
X161639424Y-73586999D01*
X161675551Y-73524900D01*
X161729485Y-73482288D01*
X161803202Y-73457754D01*
X161898683Y-73449889D01*
X161947557Y-73451618D01*
X162019116Y-73464602D01*
X162076326Y-73492809D01*
X162126774Y-73539208D01*
X162163657Y-73594029D01*
X162183993Y-73666120D01*
X162181181Y-73751433D01*
X162169324Y-73801930D01*
X162145225Y-73853779D01*
X162107196Y-73902818D01*
X162052642Y-73951315D01*
X161978969Y-74001537D01*
X161883583Y-74055753D01*
X161763889Y-74116231D01*
X161631774Y-74186614D01*
X161507678Y-74269494D01*
X161408718Y-74357337D01*
X161333305Y-74451581D01*
X161279851Y-74553660D01*
X161269829Y-74580792D01*
X161259731Y-74619325D01*
X161253520Y-74664724D01*
X161250330Y-74724098D01*
X161249296Y-74804556D01*
X161249337Y-74864949D01*
X161250653Y-74922619D01*
X161254475Y-74964980D01*
X161261979Y-74999277D01*
X161274337Y-75032757D01*
X161292724Y-75072667D01*
X161299825Y-75087085D01*
X161371011Y-75198722D01*
X161460279Y-75289731D01*
X161565792Y-75358566D01*
X161685715Y-75403681D01*
X161725523Y-75411490D01*
X161799243Y-75419432D01*
X161883871Y-75423411D01*
X161969717Y-75423279D01*
X162047091Y-75418888D01*
X162106302Y-75410091D01*
X162120422Y-75406530D01*
X162227760Y-75363833D01*
X162326274Y-75297749D01*
X162411847Y-75212291D01*
X162480365Y-75111471D01*
X162527711Y-74999302D01*
X162544156Y-74934260D01*
X162551468Y-74852146D01*
X162538021Y-74785755D01*
X162503609Y-74732839D01*
X162489119Y-74719125D01*
X162431321Y-74685227D01*
X162369193Y-74674386D01*
X162308452Y-74684875D01*
X162254817Y-74714966D01*
X162214006Y-74762933D01*
X162191736Y-74827048D01*
X162173526Y-74895832D01*
X162135971Y-74966636D01*
X162085236Y-75018562D01*
X162071113Y-75027820D01*
X162037037Y-75042885D01*
X161992521Y-75051751D01*
X161928705Y-75056567D01*
X161888310Y-75057363D01*
X161791454Y-75047660D01*
X161716017Y-75020061D01*
X161661292Y-74974050D01*
X161626574Y-74909112D01*
X161611156Y-74824732D01*
X161610121Y-74766394D01*
X161617680Y-74718807D01*
X161636340Y-74671634D01*
X161650481Y-74645991D01*
X161676090Y-74612206D01*
X161711427Y-74578763D01*
X161759730Y-74543356D01*
X161824236Y-74503683D01*
X161908182Y-74457441D01*
X162014805Y-74402325D01*
X162031429Y-74393874D01*
X162117380Y-74348868D01*
X162184476Y-74310600D01*
X162238735Y-74275193D01*
X162286176Y-74238769D01*
X162332815Y-74197453D01*
X162354499Y-74176479D01*
X162403429Y-74124287D01*
X162445411Y-74073287D01*
X162473182Y-74032039D01*
X162476932Y-74025027D01*
X162521528Y-73914318D01*
X162546515Y-73793694D01*
X162551557Y-73670361D01*
X162536320Y-73551527D01*
X162500470Y-73444398D01*
X162440307Y-73341340D01*
X162354265Y-73243584D01*
X162251018Y-73166283D01*
X162133580Y-73112167D01*
X162064891Y-73095583D01*
X161971644Y-73084987D01*
X161870609Y-73082873D01*
X161771921Y-73089410D01*
X161685715Y-73104765D01*
X161655804Y-73113272D01*
X161539764Y-73163201D01*
X161449058Y-73229074D01*
X161441101Y-73234853D01*
X161360980Y-73326958D01*
X161300566Y-73438248D01*
X161261022Y-73567455D01*
X161259864Y-73573031D01*
X161250027Y-73625940D01*
X161247282Y-73662706D01*
X160676273Y-73662706D01*
X160677865Y-73229074D01*
X160645568Y-73180732D01*
X160645091Y-73180019D01*
X160628322Y-73155749D01*
X160611683Y-73135873D01*
X160592339Y-73119976D01*
X160567455Y-73107642D01*
X160534196Y-73098456D01*
X160489728Y-73092002D01*
X160431213Y-73087867D01*
X160355819Y-73085633D01*
X160260708Y-73084888D01*
X160143047Y-73085214D01*
X160000000Y-73086198D01*
X159906357Y-73086933D01*
X159788778Y-73088055D01*
X159694564Y-73089352D01*
X159620814Y-73090987D01*
X159564622Y-73093118D01*
X159523085Y-73095907D01*
X159493300Y-73099513D01*
X159472363Y-73104098D01*
X159457370Y-73109822D01*
X159445418Y-73116846D01*
X159412397Y-73145612D01*
X159377118Y-73205458D01*
X159373245Y-73229074D01*
X159365000Y-73279364D01*
X159371174Y-73319230D01*
X159399750Y-73375150D01*
X159446004Y-73421093D01*
X159503744Y-73449468D01*
X159524463Y-73452703D01*
X159572594Y-73456356D01*
X159641596Y-73459443D01*
X159727383Y-73461824D01*
X159825870Y-73463363D01*
X159932972Y-73463922D01*
X160310444Y-73464000D01*
X160310444Y-74042556D01*
X160091269Y-74042556D01*
X160052554Y-74042671D01*
X159961518Y-74044533D01*
X159892595Y-74049454D01*
X159841320Y-74058442D01*
X159803229Y-74072505D01*
X159773857Y-74092651D01*
X159748740Y-74119889D01*
X159728628Y-74151524D01*
X159710216Y-74214825D01*
X159715208Y-74278670D01*
X159742507Y-74336276D01*
X159791012Y-74380861D01*
X159795832Y-74383727D01*
X159816038Y-74393584D01*
X159840256Y-74400558D01*
X159873329Y-74405138D01*
X159920097Y-74407811D01*
X159985401Y-74409067D01*
X160074083Y-74409392D01*
X160310444Y-74409445D01*
X160310444Y-75042855D01*
X159904750Y-75047178D01*
X159862882Y-75047636D01*
X159752363Y-75049063D01*
X159665595Y-75050707D01*
X159599210Y-75052800D01*
X159549838Y-75055573D01*
X159514110Y-75059259D01*
X159488659Y-75064088D01*
X159470114Y-75070294D01*
X159455107Y-75078107D01*
X159448862Y-75082043D01*
X159399341Y-75128799D01*
X159371250Y-75185946D01*
X159364341Y-75247464D01*
X158786403Y-75247464D01*
X158786755Y-75243385D01*
X158788933Y-75202474D01*
X158790718Y-75149165D01*
X158792169Y-75081482D01*
X158793348Y-74997446D01*
X158794317Y-74895078D01*
X158795134Y-74772401D01*
X158795862Y-74627436D01*
X158796562Y-74458206D01*
X158797293Y-74262731D01*
X158801087Y-73229074D01*
X158768790Y-73180732D01*
X158747225Y-73151179D01*
X158723894Y-73127841D01*
X158695397Y-73110499D01*
X158657892Y-73098275D01*
X158607539Y-73090293D01*
X158540496Y-73085675D01*
X158452923Y-73083544D01*
X158340978Y-73083022D01*
X158267521Y-73083222D01*
X158173482Y-73084466D01*
X158100692Y-73087073D01*
X158044912Y-73091301D01*
X158001904Y-73097406D01*
X157967430Y-73105644D01*
X157907314Y-73127859D01*
X157809713Y-73186359D01*
X157728128Y-73266730D01*
X157664370Y-73366993D01*
X157620247Y-73485167D01*
X157614790Y-73508680D01*
X157603878Y-73589628D01*
X157599744Y-73684670D01*
X157601910Y-73786799D01*
X157609897Y-73889008D01*
X157623226Y-73984289D01*
X157641419Y-74065635D01*
X157663998Y-74126038D01*
X157664333Y-74126686D01*
X157676144Y-74154900D01*
X157671761Y-74174764D01*
X157648386Y-74199421D01*
X157622243Y-74227660D01*
X157575637Y-74298044D01*
X157536238Y-74383583D01*
X157508371Y-74475737D01*
X157504524Y-74494167D01*
X157496022Y-74550380D01*
X157491114Y-74615979D01*
X157489462Y-74697204D01*
X156500496Y-74697204D01*
X156500571Y-74433704D01*
X156500707Y-74167308D01*
X156500905Y-73925024D01*
X156501174Y-73705702D01*
X156501522Y-73508191D01*
X156501959Y-73331342D01*
X156502493Y-73174003D01*
X156503134Y-73035025D01*
X156503889Y-72913258D01*
X156504767Y-72807550D01*
X156505778Y-72716752D01*
X156506930Y-72639714D01*
X156508232Y-72575285D01*
X156509693Y-72522314D01*
X156511322Y-72479652D01*
X156513126Y-72446149D01*
X156515116Y-72420653D01*
X156517300Y-72402016D01*
X156519686Y-72389085D01*
X156522285Y-72380712D01*
X156540406Y-72343710D01*
X156591376Y-72280389D01*
X156662722Y-72234782D01*
X156665415Y-72233588D01*
X156672908Y-72230826D01*
X156682569Y-72228276D01*
X156695483Y-72225930D01*
X156712737Y-72223779D01*
X156735415Y-72221815D01*
X156764604Y-72220030D01*
X156801388Y-72218414D01*
X156846855Y-72216960D01*
X156902088Y-72215659D01*
X156968174Y-72214502D01*
X157046199Y-72213481D01*
X157137247Y-72212588D01*
X157242405Y-72211814D01*
X157362759Y-72211151D01*
X157499392Y-72210590D01*
X157653393Y-72210122D01*
X157825845Y-72209740D01*
X158017834Y-72209434D01*
X158230447Y-72209197D01*
X158464768Y-72209019D01*
X158721883Y-72208893D01*
X159002879Y-72208810D01*
X159308840Y-72208760D01*
X159640851Y-72208737D01*
X160000000Y-72208731D01*
X160150341Y-72208732D01*
X160498252Y-72208744D01*
X160819471Y-72208777D01*
X161115082Y-72208839D01*
X161386173Y-72208939D01*
X161633828Y-72209085D01*
X161859133Y-72209286D01*
X162063174Y-72209551D01*
X162247036Y-72209887D01*
X162411805Y-72210303D01*
X162558566Y-72210808D01*
X162688406Y-72211410D01*
X162802408Y-72212117D01*
X162901660Y-72212939D01*
X162987247Y-72213883D01*
X163060255Y-72214959D01*
X163121768Y-72216173D01*
X163172873Y-72217536D01*
X163214654Y-72219055D01*
X163248199Y-72220739D01*
X163274592Y-72222597D01*
X163294919Y-72224636D01*
X163310265Y-72226866D01*
X163321717Y-72229295D01*
X163330359Y-72231930D01*
X163337278Y-72234782D01*
X163373442Y-72254190D01*
X163434697Y-72307482D01*
X163477715Y-72380712D01*
X163478977Y-72384270D01*
X163481279Y-72394278D01*
X163483406Y-72409293D01*
X163485363Y-72430369D01*
X163487158Y-72458563D01*
X163488798Y-72494930D01*
X163490290Y-72540524D01*
X163491640Y-72596401D01*
X163492855Y-72663616D01*
X163493942Y-72743225D01*
X163494908Y-72836282D01*
X163495760Y-72943843D01*
X163496504Y-73066964D01*
X163497147Y-73206699D01*
X163497697Y-73364104D01*
X163498160Y-73540234D01*
X163498415Y-73670361D01*
X163498543Y-73736144D01*
X163498853Y-73952889D01*
X163499096Y-74191525D01*
X163499280Y-74453107D01*
X163499411Y-74738691D01*
X163499496Y-75049330D01*
X163499542Y-75386082D01*
X163499555Y-75750000D01*
X163499552Y-75941614D01*
X163499522Y-76291355D01*
X163499457Y-76614474D01*
X163499349Y-76912027D01*
X163499192Y-77185069D01*
X163498998Y-77410682D01*
X163498978Y-77434656D01*
X163498701Y-77661842D01*
G37*
D12*
X163498701Y-77661842D02*
X163498355Y-77867683D01*
X163497931Y-78053235D01*
X163497424Y-78219551D01*
X163496827Y-78367688D01*
X163496132Y-78498702D01*
X163495333Y-78613646D01*
X163494423Y-78713577D01*
X163493395Y-78799549D01*
X163492243Y-78872618D01*
X163490959Y-78933839D01*
X163489537Y-78984268D01*
X163487970Y-79024959D01*
X163486250Y-79056968D01*
X163484372Y-79081351D01*
X163482328Y-79099161D01*
X163480111Y-79111456D01*
X163477715Y-79119289D01*
X163459594Y-79156290D01*
X163408624Y-79219612D01*
X163337278Y-79265219D01*
X163335281Y-79266117D01*
X163327402Y-79269140D01*
X163317396Y-79271911D01*
X163304075Y-79274441D01*
X163286254Y-79276743D01*
X163262747Y-79278825D01*
X163232368Y-79280700D01*
X163193930Y-79282379D01*
X163146248Y-79283873D01*
X163088135Y-79285192D01*
X163018405Y-79286348D01*
X162935872Y-79287353D01*
X162839351Y-79288216D01*
X162727654Y-79288949D01*
X162599596Y-79289564D01*
X162453991Y-79290071D01*
X162289652Y-79290482D01*
X162105394Y-79290806D01*
X161900030Y-79291057D01*
X161672375Y-79291244D01*
X161421242Y-79291378D01*
X161145445Y-79291472D01*
X160843798Y-79291535D01*
X160515114Y-79291579D01*
X157749395Y-79291889D01*
X157124920Y-78667532D01*
X156500444Y-78043175D01*
X156500444Y-76229778D01*
X157502749Y-76229778D01*
X157507440Y-76275063D01*
X157533949Y-76333246D01*
X157585765Y-76381049D01*
X157587897Y-76382482D01*
X157602332Y-76391497D01*
X157617807Y-76398552D01*
X157637718Y-76403886D01*
X157665464Y-76407740D01*
X157704443Y-76410355D01*
X157758052Y-76411970D01*
X157829690Y-76412826D01*
X157922754Y-76413164D01*
X158040642Y-76413223D01*
X158447778Y-76413223D01*
X158447778Y-77005889D01*
X158214244Y-77005889D01*
X158145492Y-77006207D01*
X158062589Y-77008319D01*
X158000821Y-77013223D01*
X157955944Y-77021854D01*
X157923715Y-77035147D01*
X157899890Y-77054037D01*
X157880224Y-77079458D01*
X157854074Y-77136540D01*
X157848974Y-77204509D01*
X157870446Y-77270478D01*
X157917890Y-77330445D01*
X157918424Y-77330937D01*
X157933190Y-77343564D01*
X157948980Y-77352793D01*
X157970327Y-77359259D01*
X158001763Y-77363594D01*
X158047821Y-77366434D01*
X158113033Y-77368411D01*
X158201931Y-77370160D01*
X158447778Y-77374597D01*
X158447778Y-78007778D01*
X158052213Y-78007778D01*
X157948519Y-78007978D01*
X157845650Y-78008836D01*
X157765356Y-78010503D01*
X157704542Y-78013121D01*
X157660112Y-78016832D01*
X157628971Y-78021776D01*
X157608022Y-78028096D01*
X157581174Y-78042389D01*
X157536367Y-78086487D01*
X157510406Y-78143253D01*
X157504441Y-78206037D01*
X157519619Y-78268190D01*
X157557090Y-78323061D01*
X157601626Y-78367612D01*
X158141119Y-78371358D01*
X158189824Y-78371693D01*
X158318908Y-78372489D01*
X158423595Y-78372872D01*
X158506756Y-78372718D01*
X158571261Y-78371907D01*
X158619982Y-78370315D01*
X158655791Y-78367819D01*
X158681558Y-78364298D01*
X158700155Y-78359628D01*
X158714452Y-78353688D01*
X158727321Y-78346355D01*
X158737458Y-78340187D01*
X158752294Y-78330679D01*
X158765098Y-78320194D01*
X158776019Y-78306787D01*
X158785208Y-78288511D01*
X158792813Y-78263420D01*
X158798984Y-78229569D01*
X158803870Y-78185011D01*
X158807622Y-78127800D01*
X158810388Y-78055989D01*
X158812318Y-77967633D01*
X158813562Y-77860786D01*
X158814270Y-77733501D01*
X158814590Y-77583832D01*
X158814672Y-77409833D01*
X158814667Y-77209558D01*
X158814676Y-77067833D01*
X158814651Y-76886155D01*
X158814439Y-76729398D01*
X158813886Y-76595615D01*
X158812835Y-76482857D01*
X158811133Y-76389176D01*
X158808623Y-76312623D01*
X158805150Y-76251250D01*
X158803103Y-76229778D01*
X159379527Y-76229778D01*
X159384218Y-76275063D01*
X159410727Y-76333246D01*
X159462542Y-76381049D01*
X159464675Y-76382482D01*
X159479110Y-76391497D01*
X159494585Y-76398552D01*
X159514496Y-76403886D01*
X159542242Y-76407740D01*
X159581221Y-76410355D01*
X159634830Y-76411970D01*
X159706468Y-76412826D01*
X159799532Y-76413164D01*
X159917420Y-76413223D01*
X160324555Y-76413223D01*
X160324555Y-77005889D01*
X160091021Y-77005889D01*
X160022270Y-77006207D01*
X159939367Y-77008319D01*
X159877599Y-77013223D01*
X159832722Y-77021854D01*
X159800493Y-77035147D01*
X159776667Y-77054037D01*
X159765994Y-77067833D01*
X159757002Y-77079458D01*
X159730852Y-77136540D01*
X159725751Y-77204509D01*
X159747224Y-77270478D01*
X159794668Y-77330445D01*
X159795202Y-77330937D01*
X159809968Y-77343564D01*
X159825758Y-77352793D01*
X159847105Y-77359259D01*
X159878541Y-77363594D01*
X159924599Y-77366434D01*
X159989810Y-77368411D01*
X160078709Y-77370160D01*
X160324555Y-77374597D01*
X160324555Y-78007778D01*
X159928991Y-78007778D01*
X159825297Y-78007978D01*
X159722427Y-78008836D01*
X159642134Y-78010503D01*
X159581320Y-78013121D01*
X159536890Y-78016832D01*
X159505749Y-78021776D01*
X159484800Y-78028096D01*
X159457952Y-78042389D01*
X159413144Y-78086487D01*
X159387184Y-78143253D01*
X159381219Y-78206037D01*
X159396397Y-78268190D01*
X159433868Y-78323061D01*
X159478404Y-78367612D01*
X160017896Y-78371358D01*
X160066602Y-78371693D01*
X160195686Y-78372489D01*
X160300373Y-78372872D01*
X160383533Y-78372718D01*
X160448039Y-78371907D01*
X160496760Y-78370315D01*
X160532569Y-78367819D01*
X160558336Y-78364298D01*
X160576932Y-78359628D01*
X160591230Y-78353688D01*
X160604099Y-78346355D01*
X160614236Y-78340187D01*
X160629072Y-78330679D01*
X160641876Y-78320194D01*
X160652797Y-78306787D01*
X160661986Y-78288511D01*
X160669590Y-78263420D01*
X160675761Y-78229569D01*
X160678342Y-78206037D01*
X161116885Y-78206037D01*
X161132064Y-78268190D01*
X161169534Y-78323061D01*
X161214071Y-78367612D01*
X161753563Y-78371358D01*
X161802269Y-78371693D01*
X161931353Y-78372489D01*
X162036039Y-78372872D01*
X162119200Y-78372718D01*
X162183705Y-78371907D01*
X162232427Y-78370315D01*
X162268235Y-78367819D01*
X162294002Y-78364298D01*
X162312599Y-78359628D01*
X162326896Y-78353688D01*
X162339766Y-78346355D01*
X162349784Y-78340259D01*
X162364642Y-78330745D01*
X162377465Y-78320267D01*
X162388402Y-78306880D01*
X162397604Y-78288635D01*
X162405221Y-78263586D01*
X162411401Y-78229786D01*
X162416295Y-78185287D01*
X162420053Y-78128142D01*
X162422824Y-78056405D01*
X162424758Y-77968128D01*
X162426004Y-77861365D01*
X162426713Y-77734167D01*
X162427034Y-77584588D01*
X162427117Y-77410682D01*
X162427111Y-77210500D01*
X162427038Y-77014168D01*
X162426792Y-76842125D01*
X162426337Y-76694520D01*
X162425636Y-76569451D01*
X162424652Y-76465016D01*
X162423350Y-76379315D01*
X162421692Y-76310445D01*
X162419642Y-76256506D01*
X162417164Y-76215596D01*
X162414220Y-76185812D01*
X162410776Y-76165255D01*
X162406794Y-76152023D01*
X162392495Y-76125167D01*
X162348395Y-76080361D01*
X162291629Y-76054403D01*
X162228846Y-76048441D01*
X162166695Y-76063624D01*
X162111828Y-76101098D01*
X162067278Y-76145643D01*
X162063490Y-77067833D01*
X162063454Y-77076711D01*
X162059631Y-78007778D01*
X161664362Y-78007778D01*
X161561102Y-78007976D01*
X161458192Y-78008833D01*
X161377866Y-78010499D01*
X161317027Y-78013117D01*
X161272579Y-78016828D01*
X161241424Y-78021774D01*
X161220467Y-78028096D01*
X161193619Y-78042389D01*
X161148811Y-78086487D01*
X161122850Y-78143253D01*
X161116885Y-78206037D01*
X160678342Y-78206037D01*
X160680648Y-78185011D01*
X160684399Y-78127800D01*
X160687166Y-78055989D01*
X160689096Y-77967633D01*
X160690340Y-77860786D01*
X160691048Y-77733501D01*
X160691368Y-77583832D01*
X160691450Y-77409833D01*
X160691444Y-77209558D01*
X160691454Y-77067833D01*
X160691429Y-76886155D01*
X160691217Y-76729398D01*
X160690663Y-76595615D01*
X160689613Y-76482857D01*
X160687911Y-76389176D01*
X160685401Y-76312623D01*
X160681928Y-76251250D01*
X160677337Y-76203109D01*
X160671473Y-76166251D01*
X160664180Y-76138728D01*
X160655304Y-76118592D01*
X160644688Y-76103893D01*
X160632177Y-76092685D01*
X160617617Y-76083017D01*
X160600852Y-76072943D01*
X160591201Y-76067580D01*
X160576440Y-76061697D01*
X160556652Y-76057013D01*
X160528938Y-76053392D01*
X160490398Y-76050698D01*
X160438134Y-76048796D01*
X160369245Y-76047549D01*
X160280832Y-76046823D01*
X160169995Y-76046480D01*
X160033837Y-76046386D01*
X159961471Y-76046384D01*
X159839470Y-76046469D01*
X159741280Y-76046811D01*
X159663982Y-76047574D01*
X159604655Y-76048923D01*
X159560379Y-76051021D01*
X159528232Y-76054034D01*
X159505296Y-76058125D01*
X159488649Y-76063458D01*
X159475371Y-76070197D01*
X159462542Y-76078507D01*
X159425859Y-76108615D01*
X159390747Y-76162717D01*
X159379527Y-76229778D01*
X158803103Y-76229778D01*
X158800560Y-76203109D01*
X158794695Y-76166251D01*
X158787403Y-76138728D01*
X158778526Y-76118592D01*
X158767910Y-76103893D01*
X158755399Y-76092685D01*
X158740839Y-76083017D01*
X158724074Y-76072943D01*
X158714423Y-76067580D01*
X158699662Y-76061697D01*
X158679874Y-76057013D01*
X158652160Y-76053392D01*
X158613621Y-76050698D01*
X158561356Y-76048796D01*
X158492467Y-76047549D01*
X158404054Y-76046823D01*
X158293218Y-76046480D01*
X158157059Y-76046386D01*
X158084693Y-76046384D01*
X157962692Y-76046469D01*
X157864503Y-76046811D01*
X157787205Y-76047574D01*
X157727877Y-76048923D01*
X157683601Y-76051021D01*
X157651455Y-76054034D01*
X157628518Y-76058125D01*
X157611871Y-76063458D01*
X157598594Y-76070197D01*
X157585765Y-76078507D01*
X157549081Y-76108615D01*
X157513969Y-76162717D01*
X157502749Y-76229778D01*
X156500444Y-76229778D01*
X156500444Y-75238079D01*
X156500450Y-75043434D01*
X156500488Y-74725363D01*
X156500496Y-74697204D01*
X157489462Y-74697204D01*
X157490724Y-74800293D01*
X157491797Y-74845978D01*
X157494077Y-74918932D01*
X157497245Y-74972110D01*
X157502145Y-75011141D01*
X157509623Y-75041652D01*
X157520525Y-75069272D01*
X157535697Y-75099628D01*
X157551890Y-75128302D01*
X157625899Y-75224466D01*
X157719902Y-75304788D01*
X157829410Y-75365962D01*
X157949932Y-75404680D01*
X157955795Y-75405873D01*
X158016647Y-75414381D01*
X158100048Y-75420370D01*
X158207860Y-75423937D01*
X158341944Y-75425178D01*
X158437945Y-75424896D01*
X158528233Y-75423172D01*
X158597490Y-75419163D01*
X158649601Y-75412052D01*
X158688450Y-75401021D01*
X158717923Y-75385251D01*
X158741902Y-75363924D01*
X158764275Y-75336222D01*
X158767829Y-75331227D01*
X158772888Y-75322627D01*
X158777250Y-75311521D01*
X158780974Y-75295931D01*
X158784122Y-75273878D01*
X158786403Y-75247464D01*
X159364341Y-75247464D01*
X159378369Y-75307329D01*
X159413084Y-75359523D01*
X159468241Y-75398022D01*
X159474244Y-75400666D01*
X159492320Y-75407339D01*
X159513843Y-75412670D01*
X159541910Y-75416808D01*
X159579619Y-75419907D01*
X159630065Y-75422118D01*
X159696346Y-75423592D01*
X159781559Y-75424481D01*
X159888800Y-75424938D01*
X160021167Y-75425113D01*
X160112629Y-75425130D01*
X160236082Y-75424812D01*
X160336069Y-75423704D01*
X160415508Y-75421387D01*
X160477312Y-75417443D01*
X160524396Y-75411456D01*
X160559676Y-75403006D01*
X160586067Y-75391675D01*
X160606483Y-75377047D01*
X160623840Y-75358702D01*
X160641052Y-75336222D01*
X160644606Y-75331227D01*
X160649666Y-75322627D01*
X160654028Y-75311521D01*
X160657752Y-75295931D01*
X160660900Y-75273878D01*
X160663533Y-75243385D01*
X160665711Y-75202474D01*
X160667495Y-75149165D01*
X160668947Y-75081482D01*
X160670126Y-74997446D01*
X160671094Y-74895078D01*
X160671912Y-74772401D01*
X160672640Y-74627436D01*
X160673340Y-74458206D01*
X160674071Y-74262731D01*
X160676273Y-73662706D01*
X161247282Y-73662706D01*
X161251804Y-73693671D01*
X161263769Y-73729179D01*
X161266738Y-73736552D01*
X161305332Y-73795269D01*
X161360611Y-73832128D01*
X161429451Y-73844948D01*
X161452523Y-73844044D01*
X161515794Y-73828146D01*
X161564148Y-73791067D01*
X161599307Y-73731040D01*
X161622996Y-73646296D01*
X161639424Y-73586999D01*
X161675551Y-73524900D01*
X161729485Y-73482288D01*
X161803202Y-73457754D01*
X161898683Y-73449889D01*
X161947557Y-73451618D01*
X162019116Y-73464602D01*
X162076326Y-73492809D01*
X162126774Y-73539208D01*
X162163657Y-73594029D01*
X162183993Y-73666120D01*
X162181181Y-73751433D01*
X162169324Y-73801930D01*
X162145225Y-73853779D01*
X162107196Y-73902818D01*
X162052642Y-73951315D01*
X161978969Y-74001537D01*
X161883583Y-74055753D01*
X161763889Y-74116231D01*
X161631774Y-74186614D01*
X161507678Y-74269494D01*
X161408718Y-74357337D01*
X161333305Y-74451581D01*
X161279851Y-74553660D01*
X161269829Y-74580792D01*
X161259731Y-74619325D01*
X161253520Y-74664724D01*
X161250330Y-74724098D01*
X161249296Y-74804556D01*
X161249337Y-74864949D01*
X161250653Y-74922619D01*
X161254475Y-74964980D01*
X161261979Y-74999277D01*
X161274337Y-75032757D01*
X161292724Y-75072667D01*
X161299825Y-75087085D01*
X161371011Y-75198722D01*
X161460279Y-75289731D01*
X161565792Y-75358566D01*
X161685715Y-75403681D01*
X161725523Y-75411490D01*
X161799243Y-75419432D01*
X161883871Y-75423411D01*
X161969717Y-75423279D01*
X162047091Y-75418888D01*
X162106302Y-75410091D01*
X162120422Y-75406530D01*
X162227760Y-75363833D01*
X162326274Y-75297749D01*
X162411847Y-75212291D01*
X162480365Y-75111471D01*
X162527711Y-74999302D01*
X162544156Y-74934260D01*
X162551468Y-74852146D01*
X162538021Y-74785755D01*
X162503609Y-74732839D01*
X162489119Y-74719125D01*
X162431321Y-74685227D01*
X162369193Y-74674386D01*
X162308452Y-74684875D01*
X162254817Y-74714966D01*
X162214006Y-74762933D01*
X162191736Y-74827048D01*
X162173526Y-74895832D01*
X162135971Y-74966636D01*
X162085236Y-75018562D01*
X162071113Y-75027820D01*
X162037037Y-75042885D01*
X161992521Y-75051751D01*
X161928705Y-75056567D01*
X161888310Y-75057363D01*
X161791454Y-75047660D01*
X161716017Y-75020061D01*
X161661292Y-74974050D01*
X161626574Y-74909112D01*
X161611156Y-74824732D01*
X161610121Y-74766394D01*
X161617680Y-74718807D01*
X161636340Y-74671634D01*
X161650481Y-74645991D01*
X161676090Y-74612206D01*
X161711427Y-74578763D01*
X161759730Y-74543356D01*
X161824236Y-74503683D01*
X161908182Y-74457441D01*
X162014805Y-74402325D01*
X162031429Y-74393874D01*
X162117380Y-74348868D01*
X162184476Y-74310600D01*
X162238735Y-74275193D01*
X162286176Y-74238769D01*
X162332815Y-74197453D01*
X162354499Y-74176479D01*
X162403429Y-74124287D01*
X162445411Y-74073287D01*
X162473182Y-74032039D01*
X162476932Y-74025027D01*
X162521528Y-73914318D01*
X162546515Y-73793694D01*
X162551557Y-73670361D01*
X162536320Y-73551527D01*
X162500470Y-73444398D01*
X162440307Y-73341340D01*
X162354265Y-73243584D01*
X162251018Y-73166283D01*
X162133580Y-73112167D01*
X162064891Y-73095583D01*
X161971644Y-73084987D01*
X161870609Y-73082873D01*
X161771921Y-73089410D01*
X161685715Y-73104765D01*
X161655804Y-73113272D01*
X161539764Y-73163201D01*
X161449058Y-73229074D01*
X161441101Y-73234853D01*
X161360980Y-73326958D01*
X161300566Y-73438248D01*
X161261022Y-73567455D01*
X161259864Y-73573031D01*
X161250027Y-73625940D01*
X161247282Y-73662706D01*
X160676273Y-73662706D01*
X160677865Y-73229074D01*
X160645568Y-73180732D01*
X160645091Y-73180019D01*
X160628322Y-73155749D01*
X160611683Y-73135873D01*
X160592339Y-73119976D01*
X160567455Y-73107642D01*
X160534196Y-73098456D01*
X160489728Y-73092002D01*
X160431213Y-73087867D01*
X160355819Y-73085633D01*
X160260708Y-73084888D01*
X160143047Y-73085214D01*
X160000000Y-73086198D01*
X159906357Y-73086933D01*
X159788778Y-73088055D01*
X159694564Y-73089352D01*
X159620814Y-73090987D01*
X159564622Y-73093118D01*
X159523085Y-73095907D01*
X159493300Y-73099513D01*
X159472363Y-73104098D01*
X159457370Y-73109822D01*
X159445418Y-73116846D01*
X159412397Y-73145612D01*
X159377118Y-73205458D01*
X159373245Y-73229074D01*
X159365000Y-73279364D01*
X159371174Y-73319230D01*
X159399750Y-73375150D01*
X159446004Y-73421093D01*
X159503744Y-73449468D01*
X159524463Y-73452703D01*
X159572594Y-73456356D01*
X159641596Y-73459443D01*
X159727383Y-73461824D01*
X159825870Y-73463363D01*
X159932972Y-73463922D01*
X160310444Y-73464000D01*
X160310444Y-74042556D01*
X160091269Y-74042556D01*
X160052554Y-74042671D01*
X159961518Y-74044533D01*
X159892595Y-74049454D01*
X159841320Y-74058442D01*
X159803229Y-74072505D01*
X159773857Y-74092651D01*
X159748740Y-74119889D01*
X159728628Y-74151524D01*
X159710216Y-74214825D01*
X159715208Y-74278670D01*
X159742507Y-74336276D01*
X159791012Y-74380861D01*
X159795832Y-74383727D01*
X159816038Y-74393584D01*
X159840256Y-74400558D01*
X159873329Y-74405138D01*
X159920097Y-74407811D01*
X159985401Y-74409067D01*
X160074083Y-74409392D01*
X160310444Y-74409445D01*
X160310444Y-75042855D01*
X159904750Y-75047178D01*
X159862882Y-75047636D01*
X159752363Y-75049063D01*
X159665595Y-75050707D01*
X159599210Y-75052800D01*
X159549838Y-75055573D01*
X159514110Y-75059259D01*
X159488659Y-75064088D01*
X159470114Y-75070294D01*
X159455107Y-75078107D01*
X159448862Y-75082043D01*
X159399341Y-75128799D01*
X159371250Y-75185946D01*
X159364341Y-75247464D01*
X158786403Y-75247464D01*
X158786755Y-75243385D01*
X158788933Y-75202474D01*
X158790718Y-75149165D01*
X158792169Y-75081482D01*
X158793348Y-74997446D01*
X158794317Y-74895078D01*
X158795134Y-74772401D01*
X158795862Y-74627436D01*
X158796562Y-74458206D01*
X158797293Y-74262731D01*
X158801087Y-73229074D01*
X158768790Y-73180732D01*
X158747225Y-73151179D01*
X158723894Y-73127841D01*
X158695397Y-73110499D01*
X158657892Y-73098275D01*
X158607539Y-73090293D01*
X158540496Y-73085675D01*
X158452923Y-73083544D01*
X158340978Y-73083022D01*
X158267521Y-73083222D01*
X158173482Y-73084466D01*
X158100692Y-73087073D01*
X158044912Y-73091301D01*
X158001904Y-73097406D01*
X157967430Y-73105644D01*
X157907314Y-73127859D01*
X157809713Y-73186359D01*
X157728128Y-73266730D01*
X157664370Y-73366993D01*
X157620247Y-73485167D01*
X157614790Y-73508680D01*
X157603878Y-73589628D01*
X157599744Y-73684670D01*
X157601910Y-73786799D01*
X157609897Y-73889008D01*
X157623226Y-73984289D01*
X157641419Y-74065635D01*
X157663998Y-74126038D01*
X157664333Y-74126686D01*
X157676144Y-74154900D01*
X157671761Y-74174764D01*
X157648386Y-74199421D01*
X157622243Y-74227660D01*
X157575637Y-74298044D01*
X157536238Y-74383583D01*
X157508371Y-74475737D01*
X157504524Y-74494167D01*
X157496022Y-74550380D01*
X157491114Y-74615979D01*
X157489462Y-74697204D01*
X156500496Y-74697204D01*
X156500571Y-74433704D01*
X156500707Y-74167308D01*
X156500905Y-73925024D01*
X156501174Y-73705702D01*
X156501522Y-73508191D01*
X156501959Y-73331342D01*
X156502493Y-73174003D01*
X156503134Y-73035025D01*
X156503889Y-72913258D01*
X156504767Y-72807550D01*
X156505778Y-72716752D01*
X156506930Y-72639714D01*
X156508232Y-72575285D01*
X156509693Y-72522314D01*
X156511322Y-72479652D01*
X156513126Y-72446149D01*
X156515116Y-72420653D01*
X156517300Y-72402016D01*
X156519686Y-72389085D01*
X156522285Y-72380712D01*
X156540406Y-72343710D01*
X156591376Y-72280389D01*
X156662722Y-72234782D01*
X156665415Y-72233588D01*
X156672908Y-72230826D01*
X156682569Y-72228276D01*
X156695483Y-72225930D01*
X156712737Y-72223779D01*
X156735415Y-72221815D01*
X156764604Y-72220030D01*
X156801388Y-72218414D01*
X156846855Y-72216960D01*
X156902088Y-72215659D01*
X156968174Y-72214502D01*
X157046199Y-72213481D01*
X157137247Y-72212588D01*
X157242405Y-72211814D01*
X157362759Y-72211151D01*
X157499392Y-72210590D01*
X157653393Y-72210122D01*
X157825845Y-72209740D01*
X158017834Y-72209434D01*
X158230447Y-72209197D01*
X158464768Y-72209019D01*
X158721883Y-72208893D01*
X159002879Y-72208810D01*
X159308840Y-72208760D01*
X159640851Y-72208737D01*
X160000000Y-72208731D01*
X160150341Y-72208732D01*
X160498252Y-72208744D01*
X160819471Y-72208777D01*
X161115082Y-72208839D01*
X161386173Y-72208939D01*
X161633828Y-72209085D01*
X161859133Y-72209286D01*
X162063174Y-72209551D01*
X162247036Y-72209887D01*
X162411805Y-72210303D01*
X162558566Y-72210808D01*
X162688406Y-72211410D01*
X162802408Y-72212117D01*
X162901660Y-72212939D01*
X162987247Y-72213883D01*
X163060255Y-72214959D01*
X163121768Y-72216173D01*
X163172873Y-72217536D01*
X163214654Y-72219055D01*
X163248199Y-72220739D01*
X163274592Y-72222597D01*
X163294919Y-72224636D01*
X163310265Y-72226866D01*
X163321717Y-72229295D01*
X163330359Y-72231930D01*
X163337278Y-72234782D01*
X163373442Y-72254190D01*
X163434697Y-72307482D01*
X163477715Y-72380712D01*
X163478977Y-72384270D01*
X163481279Y-72394278D01*
X163483406Y-72409293D01*
X163485363Y-72430369D01*
X163487158Y-72458563D01*
X163488798Y-72494930D01*
X163490290Y-72540524D01*
X163491640Y-72596401D01*
X163492855Y-72663616D01*
X163493942Y-72743225D01*
X163494908Y-72836282D01*
X163495760Y-72943843D01*
X163496504Y-73066964D01*
X163497147Y-73206699D01*
X163497697Y-73364104D01*
X163498160Y-73540234D01*
X163498415Y-73670361D01*
X163498543Y-73736144D01*
X163498853Y-73952889D01*
X163499096Y-74191525D01*
X163499280Y-74453107D01*
X163499411Y-74738691D01*
X163499496Y-75049330D01*
X163499542Y-75386082D01*
X163499555Y-75750000D01*
X163499552Y-75941614D01*
X163499522Y-76291355D01*
X163499457Y-76614474D01*
X163499349Y-76912027D01*
X163499192Y-77185069D01*
X163498998Y-77410682D01*
X163498978Y-77434656D01*
X163498701Y-77661842D01*
G36*
X158433667Y-75044445D02*
G01*
X158221438Y-75044445D01*
X158171473Y-75044316D01*
X158099310Y-75043198D01*
X158047017Y-75040465D01*
X158009206Y-75035564D01*
X157980491Y-75027940D01*
X157955482Y-75017035D01*
X157944854Y-75011495D01*
X157908805Y-74989078D01*
X157883600Y-74963426D01*
X157867542Y-74929561D01*
X157858936Y-74882506D01*
X157856085Y-74817282D01*
X157857292Y-74728913D01*
X157857988Y-74704534D01*
X157862722Y-74612780D01*
X157872666Y-74542411D01*
X157891103Y-74490587D01*
X157921314Y-74454468D01*
X157966580Y-74431214D01*
X158030183Y-74417985D01*
X158115405Y-74411940D01*
X158225528Y-74410241D01*
X158433667Y-74409445D01*
X158433667Y-75044445D01*
G37*
X158433667Y-75044445D02*
X158221438Y-75044445D01*
X158171473Y-75044316D01*
X158099310Y-75043198D01*
X158047017Y-75040465D01*
X158009206Y-75035564D01*
X157980491Y-75027940D01*
X157955482Y-75017035D01*
X157944854Y-75011495D01*
X157908805Y-74989078D01*
X157883600Y-74963426D01*
X157867542Y-74929561D01*
X157858936Y-74882506D01*
X157856085Y-74817282D01*
X157857292Y-74728913D01*
X157857988Y-74704534D01*
X157862722Y-74612780D01*
X157872666Y-74542411D01*
X157891103Y-74490587D01*
X157921314Y-74454468D01*
X157966580Y-74431214D01*
X158030183Y-74417985D01*
X158115405Y-74411940D01*
X158225528Y-74410241D01*
X158433667Y-74409445D01*
X158433667Y-75044445D01*
G36*
X158433667Y-74042556D02*
G01*
X158243716Y-74042556D01*
X158177521Y-74042351D01*
X158119851Y-74041165D01*
X158080965Y-74038280D01*
X158055719Y-74032982D01*
X158038969Y-74024557D01*
X158025571Y-74012292D01*
X158009334Y-73987836D01*
X157989609Y-73932357D01*
X157975970Y-73860897D01*
X157968664Y-73780486D01*
X157967942Y-73698149D01*
X157974053Y-73620914D01*
X157987244Y-73555810D01*
X158007766Y-73509862D01*
X158040477Y-73464000D01*
X158433667Y-73464000D01*
X158433667Y-74042556D01*
G37*
X158433667Y-74042556D02*
X158243716Y-74042556D01*
X158177521Y-74042351D01*
X158119851Y-74041165D01*
X158080965Y-74038280D01*
X158055719Y-74032982D01*
X158038969Y-74024557D01*
X158025571Y-74012292D01*
X158009334Y-73987836D01*
X157989609Y-73932357D01*
X157975970Y-73860897D01*
X157968664Y-73780486D01*
X157967942Y-73698149D01*
X157974053Y-73620914D01*
X157987244Y-73555810D01*
X158007766Y-73509862D01*
X158040477Y-73464000D01*
X158433667Y-73464000D01*
X158433667Y-74042556D01*
D13*
X166332500Y-68450000D02*
X167392500Y-68450000D01*
X167392500Y-68450000D02*
X167392500Y-67440000D01*
X162130000Y-69050000D02*
X161070000Y-69050000D01*
X161070000Y-69050000D02*
X161070000Y-70060000D01*
X143407500Y-69050000D02*
X143407500Y-70060000D01*
X144467500Y-69050000D02*
X143407500Y-69050000D01*
M02*
