G04 #@! TF.GenerationSoftware,KiCad,Pcbnew,(6.0.4-0)*
G04 #@! TF.CreationDate,2022-05-30T10:48:12+01:00*
G04 #@! TF.ProjectId,InterlockSplitterCombiner06,496e7465-726c-46f6-936b-53706c697474,rev?*
G04 #@! TF.SameCoordinates,Original*
G04 #@! TF.FileFunction,Soldermask,Bot*
G04 #@! TF.FilePolarity,Negative*
%FSLAX46Y46*%
G04 Gerber Fmt 4.6, Leading zero omitted, Abs format (unit mm)*
G04 Created by KiCad (PCBNEW (6.0.4-0)) date 2022-05-30 10:48:12*
%MOMM*%
%LPD*%
G01*
G04 APERTURE LIST*
G04 Aperture macros list*
%AMRoundRect*
0 Rectangle with rounded corners*
0 $1 Rounding radius*
0 $2 $3 $4 $5 $6 $7 $8 $9 X,Y pos of 4 corners*
0 Add a 4 corners polygon primitive as box body*
4,1,4,$2,$3,$4,$5,$6,$7,$8,$9,$2,$3,0*
0 Add four circle primitives for the rounded corners*
1,1,$1+$1,$2,$3*
1,1,$1+$1,$4,$5*
1,1,$1+$1,$6,$7*
1,1,$1+$1,$8,$9*
0 Add four rect primitives between the rounded corners*
20,1,$1+$1,$2,$3,$4,$5,0*
20,1,$1+$1,$4,$5,$6,$7,0*
20,1,$1+$1,$6,$7,$8,$9,0*
20,1,$1+$1,$8,$9,$2,$3,0*%
G04 Aperture macros list end*
%ADD10C,1.652000*%
%ADD11C,3.302000*%
%ADD12C,1.602000*%
%ADD13O,1.402000X5.102000*%
%ADD14O,1.902000X1.602000*%
%ADD15O,1.402000X2.402000*%
%ADD16RoundRect,0.051000X0.675000X-0.675000X0.675000X0.675000X-0.675000X0.675000X-0.675000X-0.675000X0*%
%ADD17RoundRect,0.051000X-0.675000X0.675000X-0.675000X-0.675000X0.675000X-0.675000X0.675000X0.675000X0*%
G04 APERTURE END LIST*
D10*
X165040000Y-49800000D03*
X154880000Y-58690000D03*
D11*
X165670000Y-54250000D03*
X154240000Y-54250000D03*
D12*
X164400000Y-60600000D03*
X163130000Y-63140000D03*
X161860000Y-60600000D03*
X160590000Y-63140000D03*
X159320000Y-60600000D03*
X158050000Y-63140000D03*
X156780000Y-60600000D03*
X155510000Y-63140000D03*
D13*
X152200000Y-50350000D03*
D14*
X166600000Y-59100000D03*
D13*
X167700000Y-50350000D03*
D15*
X152200000Y-57000000D03*
X167700000Y-57100000D03*
D11*
X153660000Y-82850000D03*
D10*
X153020000Y-78410000D03*
X142860000Y-87300000D03*
D11*
X142230000Y-82850000D03*
D12*
X143500000Y-76500000D03*
X144770000Y-73960000D03*
X146040000Y-76500000D03*
X147310000Y-73960000D03*
X148580000Y-76500000D03*
X149850000Y-73960000D03*
X151120000Y-76500000D03*
X152390000Y-73960000D03*
D15*
X140200000Y-80000000D03*
X155700000Y-80100000D03*
D13*
X155700000Y-86750000D03*
X140200000Y-86750000D03*
D14*
X141300000Y-78000000D03*
D11*
X166230000Y-82850000D03*
D10*
X177020000Y-78410000D03*
X166860000Y-87300000D03*
D11*
X177660000Y-82850000D03*
D12*
X167500000Y-76500000D03*
X168770000Y-73960000D03*
X170040000Y-76500000D03*
X171310000Y-73960000D03*
X172580000Y-76500000D03*
X173850000Y-73960000D03*
X175120000Y-76500000D03*
X176390000Y-73960000D03*
D15*
X179700000Y-80100000D03*
D13*
X164200000Y-86750000D03*
X179700000Y-86750000D03*
D14*
X165300000Y-78000000D03*
D15*
X164200000Y-80000000D03*
D16*
X166562500Y-67600000D03*
X164562500Y-67600000D03*
X162562500Y-67600000D03*
X160562500Y-67600000D03*
X158562500Y-67600000D03*
X156562500Y-67600000D03*
X154562500Y-67600000D03*
X152562500Y-67600000D03*
D17*
X161900000Y-69900000D03*
X163900000Y-69900000D03*
X165900000Y-69900000D03*
X167900000Y-69900000D03*
X169900000Y-69900000D03*
X171900000Y-69900000D03*
X173900000Y-69900000D03*
X175900000Y-69900000D03*
X144237500Y-69900000D03*
X146237500Y-69900000D03*
X148237500Y-69900000D03*
X150237500Y-69900000D03*
X152237500Y-69900000D03*
X154237500Y-69900000D03*
X156237500Y-69900000D03*
X158237500Y-69900000D03*
M02*
