M48
; DRILL file {KiCad (6.0.4-0)} date Monday, 30 May 2022 at 10:48:17
; FORMAT={-:-/ absolute / metric / decimal}
; #@! TF.CreationDate,2022-05-30T10:48:17+01:00
; #@! TF.GenerationSoftware,Kicad,Pcbnew,(6.0.4-0)
; #@! TF.FileFunction,Plated,1,2,PTH
FMAT,2
METRIC
; #@! TA.AperFunction,Plated,PTH,ComponentDrill
T1C0.500
; #@! TA.AperFunction,Plated,PTH,ComponentDrill
T2C0.750
; #@! TA.AperFunction,Plated,PTH,ComponentDrill
T3C0.760
%
G90
G05
T3
X143.5Y-76.5
X144.77Y-73.96
X146.04Y-76.5
X147.31Y-73.96
X148.58Y-76.5
X149.85Y-73.96
X151.12Y-76.5
X152.39Y-73.96
X155.51Y-63.14
X156.78Y-60.6
X158.05Y-63.14
X159.32Y-60.6
X160.59Y-63.14
X161.86Y-60.6
X163.13Y-63.14
X164.4Y-60.6
X167.5Y-76.5
X168.77Y-73.96
X170.04Y-76.5
X171.31Y-73.96
X172.58Y-76.5
X173.85Y-73.96
X175.12Y-76.5
X176.39Y-73.96
T1
X140.2Y-79.5G85X140.2Y-80.5
G05
X140.2Y-84.9G85X140.2Y-88.6
G05
X152.2Y-52.2G85X152.2Y-48.5
G05
X152.2Y-57.5G85X152.2Y-56.5
G05
X155.7Y-79.6G85X155.7Y-80.6
G05
X155.7Y-84.9G85X155.7Y-88.6
G05
X164.2Y-79.5G85X164.2Y-80.5
G05
X164.2Y-84.9G85X164.2Y-88.6
G05
X167.7Y-52.2G85X167.7Y-48.5
G05
X167.7Y-57.6G85X167.7Y-56.6
G05
X179.7Y-79.6G85X179.7Y-80.6
G05
X179.7Y-84.9G85X179.7Y-88.6
G05
T2
X141.175Y-78.0G85X141.425Y-78.0
G05
X165.175Y-78.0G85X165.425Y-78.0
G05
X166.725Y-59.1G85X166.475Y-59.1
G05
T0
M30
